<svg width="18" height="18" viewBox="0 0 18 18" fill="none" xmlns="http://www.w3.org/2000/svg">
<path fill-rule="evenodd" clip-rule="evenodd" d="M8.46023 11.3275C8.3212 11.3431 8.1814 11.351 8.0415 11.351H5.8668V13.1333C5.8668 13.1333 5.57126 13.0736 5.13346 12.9049C3.88166 12.4235 1.4668 11.0543 1.4668 7.65899C1.4668 5.62033 3.11973 3.96666 5.15913 3.96666H8.04113C9.8202 3.96666 11.3056 5.22469 11.6554 6.89999H13.18C13.9633 6.90009 14.7145 7.21134 15.2684 7.76529C15.8223 8.31924 16.1335 9.07051 16.1335 9.85386C16.1335 12.5228 13.9965 13.6269 12.8335 14.0298C12.399 14.1805 12.1001 14.2333 12.1001 14.2333V12.8074H11.0207C10.5014 12.8078 9.99123 12.6712 9.54166 12.4114C9.09209 12.1515 8.71905 11.7776 8.46023 11.3275ZM5.13346 10.6176V12.1118C4.7681 11.9516 4.42056 11.7535 4.09653 11.5207C3.14686 10.834 2.20013 9.66979 2.20013 7.65863C2.20023 6.87391 2.51202 6.12137 3.06693 5.56653C3.62184 5.01169 4.37442 4.69999 5.15913 4.69999H8.04113C8.79588 4.7 9.52209 4.98842 10.0712 5.50623C10.6203 6.02405 10.9508 6.73211 10.995 7.48556C10.9688 7.99318 10.8379 8.4899 10.6105 8.94448C10.3831 9.39906 10.0641 9.80168 9.67353 10.127C9.18975 10.4478 8.62197 10.6185 8.0415 10.6176H5.13346ZM10.111 10.7166C9.85856 10.9234 9.5841 11.1017 9.29256 11.2483C9.50056 11.5064 9.76377 11.7145 10.0628 11.8574C10.3619 12.0003 10.6892 12.0743 11.0207 12.074H12.8335V13.2477C13.144 13.1258 13.4427 12.9755 13.7256 12.7986C14.5935 12.2504 15.4001 11.3601 15.4001 9.85386C15.4001 9.265 15.1662 8.70025 14.7499 8.28383C14.3335 7.86741 13.7688 7.63342 13.18 7.63333H11.7335V7.65899C11.7335 8.93096 11.09 10.0526 10.111 10.7166Z" fill="#8590A5"/>
</svg>
