<svg width="18" height="19" viewBox="0 0 18 19" fill="none" xmlns="http://www.w3.org/2000/svg">
<g clip-path="url(#clip0_99_5067)">
<path d="M8.80019 4.979L8.62804 5.03125L1.75304 7.33465L0.189941 7.85L1.10019 8.1415V12.954C0.771841 13.1449 0.550191 13.493 0.550191 13.9C0.550191 14.1917 0.666084 14.4715 0.872374 14.6778C1.07866 14.8841 1.35845 15 1.65019 15C1.94193 15 2.22172 14.8841 2.42801 14.6778C2.6343 14.4715 2.75019 14.1917 2.75019 13.9C2.75019 13.493 2.52854 13.1449 2.20019 12.954V8.521L3.30019 8.88125V11.7C3.30019 12.151 3.57519 12.525 3.90189 12.7835C4.22859 13.0404 4.63449 13.2219 5.12179 13.3847C6.09749 13.7092 7.38339 13.9 8.80019 13.9C10.217 13.9 11.5029 13.7097 12.4786 13.3841C12.9659 13.2219 13.3718 13.0404 13.6985 12.783C14.0252 12.525 14.3002 12.151 14.3002 11.7V8.88125L15.8473 8.36535L17.4104 7.85L15.8468 7.3341L8.97179 5.03125L8.80019 4.979ZM8.80019 6.13125L13.9564 7.85L8.80019 9.56875L3.64394 7.85L8.80019 6.13125ZM4.40019 9.25965L8.62859 10.6688L8.80019 10.7205L8.97234 10.6682L13.2002 9.2591V11.7C13.2002 11.7055 13.2024 11.7693 13.028 11.9063C12.8542 12.0438 12.5424 12.217 12.1343 12.3534C11.3192 12.6246 10.1174 12.8 8.80019 12.8C7.48294 12.8 6.28119 12.6251 5.46554 12.3529C5.05854 12.217 4.74614 12.0432 4.57234 11.9063C4.39744 11.7688 4.40019 11.7055 4.40019 11.7V9.25965Z" fill="#8590A5"/>
</g>
<defs>
<clipPath id="clip0_99_5067">
<rect width="17.6" height="17.6" fill="white" transform="translate(0 0.699997)"/>
</clipPath>
</defs>
</svg>
