<svg width="56" height="70" viewBox="0 0 56 70" fill="none" xmlns="http://www.w3.org/2000/svg">
<path d="M16 28.49C16 27.9377 16.4477 27.49 17 27.49H33C33.5523 27.49 34 27.9377 34 28.49C34 29.0423 33.5523 29.49 33 29.49H17C16.4477 29.49 16 29.0423 16 28.49ZM16 35.49C16 34.9377 16.4477 34.49 17 34.49H27C27.5523 34.49 28 34.9377 28 35.49C28 36.0423 27.5523 36.49 27 36.49H17C16.4477 36.49 16 36.0423 16 35.49ZM16 42.49C16 41.9377 16.4477 41.49 17 41.49H33C33.5523 41.49 34 41.9377 34 42.49C34 43.0423 33.5523 43.49 33 43.49H17C16.4477 43.49 16 43.0423 16 42.49Z" fill="#636E75"/>
</svg>
