<svg width="18" height="18" viewBox="0 0 18 18" fill="none" xmlns="http://www.w3.org/2000/svg">
<path fill-rule="evenodd" clip-rule="evenodd" d="M8.46023 11.4275C8.3212 11.4432 8.1814 11.451 8.0415 11.451H5.8668V13.2333C5.8668 13.2333 5.57126 13.1736 5.13346 13.0049C3.88166 12.5235 1.4668 11.1543 1.4668 7.75901C1.4668 5.72035 3.11973 4.06668 5.15913 4.06668H8.04113C9.8202 4.06668 11.3056 5.32471 11.6554 7.00001H13.18C13.9633 7.00011 14.7145 7.31136 15.2684 7.86531C15.8223 8.41926 16.1335 9.17053 16.1335 9.95388C16.1335 12.6228 13.9965 13.7269 12.8335 14.1298C12.399 14.2805 12.1001 14.3333 12.1001 14.3333V12.9074H11.0207C10.5014 12.9078 9.99123 12.7712 9.54166 12.5114C9.09209 12.2515 8.71905 11.8777 8.46023 11.4275ZM5.13346 10.7176V12.2118C4.7681 12.0516 4.42056 11.8535 4.09653 11.6207C3.14686 10.934 2.20013 9.76981 2.20013 7.75865C2.20023 6.97394 2.51202 6.2214 3.06693 5.66656C3.62184 5.11171 4.37442 4.80001 5.15913 4.80001H8.04113C8.79588 4.80003 9.52209 5.08844 10.0712 5.60626C10.6203 6.12407 10.9508 6.83213 10.995 7.58558C10.9688 8.0932 10.8379 8.58992 10.6105 9.0445C10.3831 9.49909 10.0641 9.9017 9.67353 10.227C9.18975 10.5478 8.62197 10.7185 8.0415 10.7176H5.13346ZM10.111 10.8166C9.85856 11.0234 9.5841 11.2018 9.29256 11.3483C9.50056 11.6064 9.76377 11.8145 10.0628 11.9574C10.3619 12.1003 10.6892 12.1744 11.0207 12.174H12.8335V13.3477C13.144 13.2258 13.4427 13.0755 13.7256 12.8986C14.5935 12.3504 15.4001 11.4601 15.4001 9.95388C15.4001 9.36502 15.1662 8.80028 14.7499 8.38386C14.3335 7.96744 13.7688 7.73344 13.18 7.73335H11.7335V7.75901C11.7335 9.03098 11.09 10.1526 10.111 10.8166Z" fill="#8590A5"/>
</svg>
