<svg width="16" height="16" viewBox="0 0 16 16" fill="none" xmlns="http://www.w3.org/2000/svg">
<g clip-path="url(#clip0_104_6732)">
<path fill-rule="evenodd" clip-rule="evenodd" d="M4.74959 2.37001C4.01025 2.79681 3.36221 3.36505 2.84247 4.04229C2.32274 4.71953 1.94149 5.49251 1.72048 6.3171C1.27415 7.98242 1.50764 9.75684 2.36959 11.25C3.23154 12.7432 4.65135 13.8328 6.31668 14.2791C7.982 14.7254 9.75642 14.492 11.2496 13.63C11.4212 13.5386 11.6216 13.5174 11.8085 13.5709C11.9954 13.6244 12.1542 13.7484 12.2515 13.9168C12.3488 14.0851 12.3769 14.2846 12.3299 14.4733C12.2829 14.6619 12.1645 14.825 11.9996 14.928C10.4871 15.8008 8.73054 16.1548 6.99804 15.9359C5.26553 15.7169 3.65225 14.9371 2.40442 13.7155C1.1566 12.4939 0.342766 10.8975 0.0871541 9.17C-0.168458 7.44253 0.148187 5.67887 0.988758 4.1482C1.82933 2.61754 3.14766 1.40395 4.74252 0.692676C6.33738 -0.0186003 8.12117 -0.188495 9.82162 0.208922C11.5221 0.606339 13.0458 1.54924 14.1602 2.8937C15.2746 4.23817 15.9185 5.91035 15.9936 7.65501C15.9976 7.68652 15.9996 7.71825 15.9996 7.75001V7.85401C16.0003 7.91734 16.0003 7.98068 15.9996 8.04401V9.25001C16 9.84568 15.8069 10.4253 15.4494 10.9018C15.092 11.3783 14.5895 11.7259 14.0175 11.8922C13.4455 12.0586 12.835 12.0347 12.2778 11.8242C11.7206 11.6137 11.2467 11.228 10.9276 10.725C10.2929 11.4069 9.44009 11.8459 8.51631 11.9663C7.59252 12.0866 6.65571 11.8807 5.86749 11.3842C5.07928 10.8876 4.4891 10.1315 4.19878 9.24633C3.90847 8.36114 3.93623 7.40237 4.27727 6.53545C4.61831 5.66853 5.25124 4.94784 6.06686 4.49771C6.88249 4.04759 7.82964 3.89626 8.74492 4.06985C9.66019 4.24343 10.4862 4.73104 11.0804 5.44853C11.6745 6.16603 11.9997 7.06842 11.9996 8.00001V9.25001C11.9996 9.58153 12.1313 9.89947 12.3657 10.1339C12.6001 10.3683 12.9181 10.5 13.2496 10.5C13.5811 10.5 13.8991 10.3683 14.1335 10.1339C14.3679 9.89947 14.4996 9.58153 14.4996 9.25001V7.86701C14.4766 6.73735 14.1595 5.63319 13.5796 4.66345C12.9997 3.69371 12.1771 2.89188 11.1928 2.33704C10.2085 1.78221 9.09655 1.49353 7.96667 1.49949C6.83679 1.50544 5.72798 1.80583 4.74959 2.37101V2.37001ZM10.4996 8.00001C10.4996 7.33697 10.2362 6.70109 9.76736 6.23224C9.29852 5.7634 8.66263 5.50001 7.99959 5.50001C7.33655 5.50001 6.70066 5.7634 6.23182 6.23224C5.76298 6.70109 5.49959 7.33697 5.49959 8.00001C5.49959 8.66305 5.76298 9.29894 6.23182 9.76778C6.70066 10.2366 7.33655 10.5 7.99959 10.5C8.66263 10.5 9.29852 10.2366 9.76736 9.76778C10.2362 9.29894 10.4996 8.66305 10.4996 8.00001Z" fill="#3D3D3D"/>
</g>
<defs>
<clipPath id="clip0_104_6732">
<rect width="16" height="16" fill="white"/>
</clipPath>
</defs>
</svg>
