<svg width="18" height="19" viewBox="0 0 18 19" fill="none" xmlns="http://www.w3.org/2000/svg">
<g clip-path="url(#clip0_99_5261)">
<path d="M8.80019 5.07901L8.62804 5.13126L1.75304 7.43466L0.189941 7.95001L1.10019 8.24151V13.054C0.771841 13.2449 0.550191 13.593 0.550191 14C0.550191 14.2917 0.666084 14.5715 0.872374 14.7778C1.07866 14.9841 1.35845 15.1 1.65019 15.1C1.94193 15.1 2.22172 14.9841 2.42801 14.7778C2.6343 14.5715 2.75019 14.2917 2.75019 14C2.75019 13.593 2.52854 13.2449 2.20019 13.054V8.62101L3.30019 8.98126V11.8C3.30019 12.251 3.57519 12.625 3.90189 12.8835C4.22859 13.1404 4.63449 13.3219 5.12179 13.4847C6.09749 13.8092 7.38339 14 8.80019 14C10.217 14 11.5029 13.8097 12.4786 13.4841C12.9659 13.3219 13.3718 13.1404 13.6985 12.883C14.0252 12.625 14.3002 12.251 14.3002 11.8V8.98126L15.8473 8.46536L17.4104 7.95001L15.8468 7.43411L8.97179 5.13126L8.80019 5.07901ZM8.80019 6.23126L13.9564 7.95001L8.80019 9.66876L3.64394 7.95001L8.80019 6.23126ZM4.40019 9.35966L8.62859 10.7688L8.80019 10.8205L8.97234 10.7682L13.2002 9.35911V11.8C13.2002 11.8055 13.2024 11.8693 13.028 12.0063C12.8542 12.1438 12.5424 12.317 12.1343 12.4534C11.3192 12.7246 10.1174 12.9 8.80019 12.9C7.48294 12.9 6.28119 12.7251 5.46554 12.4529C5.05854 12.317 4.74614 12.1432 4.57234 12.0063C4.39744 11.8688 4.40019 11.8055 4.40019 11.8V9.35966Z" fill="#8590A5"/>
</g>
<defs>
<clipPath id="clip0_99_5261">
<rect width="17.6" height="17.6" fill="white" transform="translate(0 0.800018)"/>
</clipPath>
</defs>
</svg>
