<svg width="18" height="19" viewBox="0 0 18 19" fill="none" xmlns="http://www.w3.org/2000/svg">
<path d="M13.1998 17.3H4.3998C4.10816 17.2997 3.82854 17.1837 3.62231 16.9775C3.41608 16.7713 3.3001 16.4917 3.2998 16.2V3.00002C3.3001 2.70838 3.41608 2.42876 3.62231 2.22253C3.82854 2.0163 4.10816 1.90032 4.3998 1.90002H13.1998C13.4915 1.90032 13.7711 2.0163 13.9773 2.22253C14.1835 2.42876 14.2995 2.70838 14.2998 3.00002V12.1399L11.5498 10.7649L8.7998 12.1399V3.00002H4.3998V16.2H13.1998V14H14.2998V16.2C14.2994 16.4916 14.1833 16.7712 13.9771 16.9774C13.7709 17.1836 13.4914 17.2996 13.1998 17.3ZM11.5498 9.53512L13.1998 10.3601V3.00002H9.89981V10.3601L11.5498 9.53512Z" fill="#8590A5"/>
</svg>
