<svg width="26" height="26" viewBox="0 0 26 26" fill="none" xmlns="http://www.w3.org/2000/svg">
<path fill-rule="evenodd" clip-rule="evenodd" d="M23.0659 13.1792C23.0661 13.4668 22.8331 13.7002 22.5454 13.7004L4.01534 13.7134C3.72769 13.7136 3.49434 13.4806 3.49414 13.1929C3.49394 12.9053 3.72696 12.6719 4.01461 12.6717L22.5447 12.6587C22.8324 12.6585 23.0657 12.8915 23.0659 13.1792Z" fill="white"/>
<path fill-rule="evenodd" clip-rule="evenodd" d="M15.1182 5.51941C15.3218 5.31619 15.6516 5.31649 15.8548 5.52007L23.1334 12.8117C23.3364 13.0151 23.3364 13.3443 23.1334 13.5476L15.8548 20.8393C15.6516 21.0429 15.3218 21.0432 15.1182 20.84C14.9146 20.6368 14.9143 20.307 15.1176 20.1034L22.0289 13.1797L15.1176 6.25598C14.9143 6.0524 14.9146 5.72262 15.1182 5.51941Z" fill="white"/>
</svg>
