<svg width="102" height="21" viewBox="0 0 102 21" fill="none" xmlns="http://www.w3.org/2000/svg">
<path d="M41.4382 10.2404C39.0194 15.4835 37.0061 19.8576 36.9772 19.959C36.9192 20.1039 37.2524 20.1328 38.5414 20.1039L40.1781 20.0604L43.0025 13.8468L45.8268 7.63327L46.0875 8.19814C46.2468 8.5023 47.5214 11.2977 48.9263 14.4117L51.5045 20.0604L53.1411 20.1039C54.4302 20.1328 54.7633 20.1039 54.7054 19.959C54.6619 19.8576 52.7646 15.7297 50.4761 10.7907C48.1877 5.85176 46.2034 1.56454 46.073 1.26038L45.8413 0.709995L41.4382 10.2404Z" fill="white"/>
<path d="M28.9533 1.65144C25.4192 2.63634 23.826 6.38766 25.8248 9.00923C26.4476 9.83481 27.2876 10.4431 29.3733 11.6163C32.5018 13.3834 33.4722 14.2814 33.4867 15.4835C33.5012 16.367 33.0812 16.9464 32.1107 17.4388C30.5175 18.2354 28.0698 17.9168 26.6938 16.7291C26.3607 16.4539 26.071 16.2222 26.0275 16.2222C25.9986 16.2222 25.593 16.7146 25.1295 17.323L24.304 18.4237L24.7964 18.9307C25.3613 19.5245 26.9979 20.3356 28.0698 20.5529C29.1705 20.7846 31.2272 20.7556 32.2266 20.4949C34.0661 20.017 35.4855 18.8148 36.0648 17.265C36.4559 16.2367 36.4269 14.2814 36.0069 13.4847C35.3262 12.1812 33.7474 10.9501 30.6624 9.25546C28.2001 7.92295 27.6208 7.27117 27.8815 6.06901C28.1132 5.01169 29.7644 4.08473 31.1548 4.24405C31.9949 4.34544 32.9653 4.75098 33.4288 5.21447C33.6171 5.38827 33.7909 5.50414 33.8343 5.46069C33.8633 5.43172 34.2544 4.92479 34.7034 4.33095L35.5 3.25915L35.022 2.83912C33.6315 1.65144 30.9231 1.11554 28.9533 1.65144Z" fill="white"/>
<path d="M0 11.1528V20.1328H5.14176H10.2835V18.6844V17.236H6.59015H2.89677V9.70445V2.17285H1.44838H0V11.1528Z" fill="white"/>
<path d="M12.6008 3.62123V5.06961H17.7426H22.8844V3.62123V2.17284H17.7426H12.6008V3.62123Z" fill="white"/>
<path d="M94.2029 2.96948C93.7104 3.07087 92.9862 3.33158 92.5952 3.53435C91.7261 3.96886 90.7268 5.05515 90.524 5.77934C90.2778 6.69183 90.3502 7.82156 90.7268 8.61818C91.3351 9.93621 92.5372 10.6604 95.6947 11.6018C98.2294 12.3695 99.3157 12.8475 100.141 13.6151C100.952 14.3683 101.3 15.2083 101.213 16.2656C101.126 17.3085 100.706 18.0616 99.8516 18.7134C98.7363 19.568 97.9832 19.7707 95.9554 19.7707C94.507 19.7562 94.087 19.6983 93.4063 19.4376C91.6827 18.7569 90.7702 17.743 90.466 16.1932C90.3502 15.527 90.2633 15.3532 90.0315 15.3532C89.7853 15.3532 89.7708 15.4256 89.8577 16.1063C90.1474 18.2644 91.6248 19.6549 94.2463 20.2052C95.4919 20.466 96.5637 20.4804 97.7804 20.2197C99.6488 19.8142 100.851 18.9596 101.503 17.5402C101.807 16.8884 101.85 16.6133 101.792 15.7297C101.633 13.3834 100.199 12.1522 96.3175 11.037C92.262 9.86379 91.1033 8.99476 90.9875 7.03944C90.944 6.31525 91.0019 6.04005 91.2771 5.50415C91.9724 4.20061 93.8408 3.33158 95.9554 3.33158C98.5625 3.33158 100.518 4.75099 100.981 6.96702C101.126 7.64776 101.213 7.82156 101.43 7.82156C101.677 7.82156 101.706 7.74915 101.604 7.12634C101.126 3.9399 97.9397 2.15838 94.2029 2.96948Z" fill="white"/>
<path d="M57.9353 11.5873V20.1328H62.6425C67.2484 20.1328 67.3498 20.1328 67.3498 19.8431C67.3498 19.5535 67.2484 19.5535 62.9322 19.5535H58.5147V11.2977C58.5147 3.14327 58.5147 3.04188 58.225 3.04188C57.9353 3.04188 57.9353 3.14327 57.9353 11.5873Z" fill="white"/>
<path d="M70.3914 11.5873C70.3914 20.0314 70.3914 20.1328 70.681 20.1328C70.9707 20.1328 70.9707 20.0314 70.9707 12.1522C70.9707 7.7781 71.0286 4.21507 71.0866 4.25852C71.1445 4.28749 72.7522 7.87948 74.6641 12.2246C77.1698 17.9313 78.1981 20.1328 78.3575 20.1328C78.5313 20.1328 79.5741 17.8878 82.1377 12.0653L85.6718 4.0123L85.7153 12.0653C85.7442 20.0169 85.7442 20.1328 86.0339 20.1328C86.3236 20.1328 86.3236 20.0314 86.3236 11.5729V3.0274L85.8601 3.07085L85.3966 3.1143L81.9205 11.1094C79.9941 15.5125 78.4009 19.1189 78.3575 19.1189C78.314 19.1189 76.7208 15.498 74.8089 11.0804L71.3328 3.05636L70.8693 3.04188H70.3914V11.5873Z" fill="white"/>
<path d="M12.6008 11.1528V12.6012H17.815H23.0292V11.1528V9.70446H17.815H12.6008V11.1528Z" fill="white"/>
<path d="M44.0308 15.2807V17.0912H45.8412H47.6517V15.2807V13.4703H45.8412H44.0308V15.2807Z" fill="white"/>
<path d="M12.6008 18.6844V20.1328H17.7426H22.8844V18.6844V17.236H17.7426H12.6008V18.6844Z" fill="white"/>
</svg>
