<svg width="57" height="57" viewBox="0 0 57 57" fill="none" xmlns="http://www.w3.org/2000/svg">
<rect width="57" height="57" rx="28.5" fill="#FD5600"/>
<path d="M34.5 39H22.5C22.1023 38.9996 21.721 38.8414 21.4398 38.5602C21.1586 38.279 21.0004 37.8977 21 37.5V19.5C21.0004 19.1023 21.1586 18.721 21.4398 18.4398C21.721 18.1586 22.1023 18.0004 22.5 18H34.5C34.8977 18.0004 35.279 18.1586 35.5602 18.4398C35.8414 18.721 35.9996 19.1023 36 19.5V31.9635L32.25 30.0885L28.5 31.9635V19.5H22.5V37.5H34.5V34.5H36V37.5C35.9994 37.8976 35.8412 38.2788 35.56 38.56C35.2788 38.8412 34.8976 38.9994 34.5 39ZM32.25 28.4115L34.5 29.5365V19.5H30V29.5365L32.25 28.4115Z" fill="white"/>
</svg>
