<svg width="18" height="19" viewBox="0 0 18 19" fill="none" xmlns="http://www.w3.org/2000/svg">
<path d="M13.2 17.3H4.4C4.10835 17.2997 3.82873 17.1837 3.62251 16.9775C3.41628 16.7713 3.30029 16.4917 3.3 16.2V3.00002C3.30029 2.70838 3.41628 2.42876 3.62251 2.22253C3.82873 2.0163 4.10835 1.90032 4.4 1.90002H13.2C13.4917 1.90032 13.7713 2.0163 13.9775 2.22253C14.1837 2.42876 14.2997 2.70838 14.3 3.00002V12.1399L11.55 10.7649L8.8 12.1399V3.00002H4.4V16.2H13.2V14H14.3V16.2C14.2996 16.4916 14.1835 16.7712 13.9773 16.9774C13.7711 17.1836 13.4916 17.2996 13.2 17.3ZM11.55 9.53512L13.2 10.3601V3.00002H9.9V10.3601L11.55 9.53512Z" fill="#D7E4EC"/>
</svg>
