<svg width="18" height="19" viewBox="0 0 18 19" fill="none" xmlns="http://www.w3.org/2000/svg">
<g clip-path="url(#clip0_51_5621)">
<path d="M8.79995 5.07901L8.6278 5.13126L1.7528 7.43466L0.189697 7.95001L1.09995 8.24151V13.054C0.771597 13.2449 0.549947 13.593 0.549947 14C0.549947 14.2917 0.66584 14.5715 0.87213 14.7778C1.07842 14.9841 1.35821 15.1 1.64995 15.1C1.94169 15.1 2.22147 14.9841 2.42776 14.7778C2.63405 14.5715 2.74995 14.2917 2.74995 14C2.74995 13.593 2.5283 13.2449 2.19995 13.054V8.62101L3.29995 8.98126V11.8C3.29995 12.251 3.57495 12.625 3.90165 12.8835C4.22835 13.1404 4.63425 13.3219 5.12155 13.4847C6.09725 13.8092 7.38315 14 8.79995 14C10.2167 14 11.5026 13.8097 12.4783 13.4841C12.9656 13.3219 13.3715 13.1404 13.6982 12.883C14.0249 12.625 14.2999 12.251 14.2999 11.8V8.98126L15.8471 8.46536L17.4102 7.95001L15.8465 7.43411L8.97155 5.13126L8.79995 5.07901ZM8.79995 6.23126L13.9562 7.95001L8.79995 9.66876L3.6437 7.95001L8.79995 6.23126ZM4.39995 9.35966L8.62835 10.7688L8.79995 10.8205L8.9721 10.7682L13.1999 9.35911V11.8C13.1999 11.8055 13.2021 11.8693 13.0278 12.0063C12.854 12.1438 12.5421 12.317 12.134 12.4534C11.3189 12.7246 10.1172 12.9 8.79995 12.9C7.4827 12.9 6.28095 12.7251 5.4653 12.4529C5.0583 12.317 4.7459 12.1432 4.5721 12.0063C4.3972 11.8688 4.39995 11.8055 4.39995 11.8V9.35966Z" fill="#8590A5"/>
</g>
<defs>
<clipPath id="clip0_51_5621">
<rect width="17.6" height="17.6" fill="white" transform="translate(0 0.800018)"/>
</clipPath>
</defs>
</svg>
