<svg width="14" height="15" viewBox="0 0 14 15" fill="none" xmlns="http://www.w3.org/2000/svg">
<g clip-path="url(#clip0_107_3092)">
<path d="M9.91644 2.06668H11.4739C11.8041 2.06084 12.1249 2.17642 12.3754 2.39149C12.626 2.60655 12.7888 2.90613 12.8331 3.23334V7.31668C12.7888 7.64389 12.626 7.94347 12.3754 8.15853C12.1249 8.3736 11.8041 8.48918 11.4739 8.48334H9.91644M5.83311 9.65001V11.9833C5.83311 12.4475 6.01748 12.8926 6.34567 13.2208C6.67386 13.549 7.11898 13.7333 7.58311 13.7333L9.91644 8.48334V2.06668H3.33644C3.05508 2.0635 2.78205 2.16211 2.56766 2.34434C2.35327 2.52657 2.21196 2.78015 2.16977 3.05834L1.36477 8.30834C1.33939 8.47555 1.35067 8.64628 1.39783 8.8087C1.44498 8.97112 1.52688 9.12134 1.63786 9.24896C1.74883 9.37658 1.88623 9.47855 2.04052 9.5478C2.19482 9.61705 2.36233 9.65193 2.53144 9.65001H5.83311Z" stroke="#808080" stroke-linecap="round" stroke-linejoin="round"/>
</g>
<defs>
<clipPath id="clip0_107_3092">
<rect width="14" height="14" fill="white" transform="translate(0 0.900024)"/>
</clipPath>
</defs>
</svg>
