<svg width="14" height="15" viewBox="0 0 14 15" fill="none" xmlns="http://www.w3.org/2000/svg">
<g clip-path="url(#clip0_107_3088)">
<path d="M4.08366 13.7334H2.33366C2.02424 13.7334 1.72749 13.6105 1.5087 13.3917C1.28991 13.1729 1.16699 12.8761 1.16699 12.5667V8.48338C1.16699 8.17396 1.28991 7.87721 1.5087 7.65842C1.72749 7.43963 2.02424 7.31671 2.33366 7.31671H4.08366M8.16699 6.15004V3.81671C8.16699 3.35258 7.98262 2.90746 7.65443 2.57927C7.32624 2.25109 6.88112 2.06671 6.41699 2.06671L4.08366 7.31671V13.7334H10.6637C10.945 13.7366 11.218 13.6379 11.4324 13.4557C11.6468 13.2735 11.7881 13.0199 11.8303 12.7417L12.6353 7.49171C12.6607 7.3245 12.6494 7.15378 12.6023 6.99136C12.5551 6.82894 12.4732 6.67872 12.3622 6.55109C12.2513 6.42347 12.1139 6.3215 11.9596 6.25225C11.8053 6.18301 11.6378 6.14813 11.4687 6.15004H8.16699Z" stroke="#808080" stroke-linecap="round" stroke-linejoin="round"/>
</g>
<defs>
<clipPath id="clip0_107_3088">
<rect width="14" height="14" fill="white" transform="translate(0 0.900024)"/>
</clipPath>
</defs>
</svg>
