<svg width="14" height="15" viewBox="0 0 14 15" fill="none" xmlns="http://www.w3.org/2000/svg">
<g clip-path="url(#clip0_107_3198)">
<path d="M4.08366 13.7333H2.33366C2.02424 13.7333 1.72749 13.6104 1.5087 13.3916C1.28991 13.1728 1.16699 12.8761 1.16699 12.5667V8.48332C1.16699 8.1739 1.28991 7.87715 1.5087 7.65836C1.72749 7.43957 2.02424 7.31665 2.33366 7.31665H4.08366M8.16699 6.14998V3.81665C8.16699 3.35252 7.98262 2.9074 7.65443 2.57921C7.32624 2.25102 6.88112 2.06665 6.41699 2.06665L4.08366 7.31665V13.7333H10.6637C10.945 13.7365 11.218 13.6379 11.4324 13.4557C11.6468 13.2734 11.7881 13.0198 11.8303 12.7416L12.6353 7.49165C12.6607 7.32444 12.6494 7.15371 12.6023 6.9913C12.5551 6.82888 12.4732 6.67866 12.3622 6.55103C12.2513 6.42341 12.1139 6.32144 11.9596 6.25219C11.8053 6.18294 11.6378 6.14807 11.4687 6.14998H8.16699Z" stroke="#808080" stroke-linecap="round" stroke-linejoin="round"/>
</g>
<defs>
<clipPath id="clip0_107_3198">
<rect width="14" height="14" fill="white" transform="translate(0 0.900024)"/>
</clipPath>
</defs>
</svg>
