<svg width="102" height="21" viewBox="0 0 102 21" fill="none" xmlns="http://www.w3.org/2000/svg">
<path d="M41.438 10.2404C39.0191 15.4835 37.0059 19.8576 36.9769 19.959C36.919 20.1039 37.2521 20.1328 38.5412 20.1039L40.1779 20.0604L43.0022 13.8468L45.8266 7.63327L46.0873 8.19814C46.2466 8.5023 47.5212 11.2977 48.9261 14.4117L51.5042 20.0604L53.1409 20.1039C54.43 20.1328 54.7631 20.1039 54.7052 19.959C54.6617 19.8576 52.7643 15.7297 50.4759 10.7907C48.1874 5.85176 46.2031 1.56454 46.0728 1.26038L45.841 0.709995L41.438 10.2404Z" fill="white"/>
<path d="M28.954 1.65144C25.4199 2.63634 23.8267 6.38766 25.8255 9.00923C26.4483 9.83481 27.2884 10.4431 29.374 11.6163C32.5025 13.3834 33.473 14.2814 33.4874 15.4835C33.5019 16.367 33.0819 16.9464 32.1115 17.4388C30.5183 18.2354 28.0705 17.9168 26.6945 16.7291C26.3614 16.4539 26.0717 16.2222 26.0283 16.2222C25.9993 16.2222 25.5937 16.7146 25.1303 17.323L24.3047 18.4237L24.7971 18.9307C25.362 19.5245 26.9987 20.3356 28.0705 20.5529C29.1713 20.7846 31.228 20.7556 32.2273 20.4949C34.0668 20.017 35.4862 18.8148 36.0656 17.265C36.4566 16.2367 36.4277 14.2814 36.0076 13.4847C35.3269 12.1812 33.7482 10.9501 30.6631 9.25546C28.2008 7.92295 27.6215 7.27117 27.8822 6.06901C28.1139 5.01169 29.7651 4.08473 31.1555 4.24405C31.9956 4.34544 32.966 4.75098 33.4295 5.21447C33.6178 5.38827 33.7916 5.50414 33.8351 5.46069C33.864 5.43172 34.2551 4.92479 34.7041 4.33095L35.5007 3.25915L35.0227 2.83912C33.6323 1.65144 30.9238 1.11554 28.954 1.65144Z" fill="white"/>
<path d="M0 11.1528V20.1328H5.14176H10.2835V18.6844V17.236H6.59015H2.89677V9.70445V2.17285H1.44838H0V11.1528Z" fill="white"/>
<path d="M12.6016 3.62123V5.06961H17.7433H22.8851V3.62123V2.17284H17.7433H12.6016V3.62123Z" fill="white"/>
<path d="M94.2021 2.96948C93.7097 3.07087 92.9855 3.33158 92.5944 3.53435C91.7254 3.96886 90.726 5.05515 90.5232 5.77934C90.277 6.69183 90.3494 7.82156 90.726 8.61818C91.3343 9.93621 92.5365 10.6604 95.694 11.6018C98.2287 12.3695 99.3149 12.8475 100.141 13.6151C100.952 14.3683 101.299 15.2083 101.212 16.2656C101.125 17.3085 100.705 18.0616 99.8508 18.7134C98.7356 19.568 97.9824 19.7707 95.9547 19.7707C94.5063 19.7562 94.0863 19.6983 93.4055 19.4376C91.682 18.7569 90.7695 17.743 90.4653 16.1932C90.3494 15.527 90.2625 15.3532 90.0308 15.3532C89.7846 15.3532 89.7701 15.4256 89.857 16.1063C90.1467 18.2644 91.624 19.6549 94.2456 20.2052C95.4912 20.466 96.563 20.4804 97.7797 20.2197C99.6481 19.8142 100.85 18.9596 101.502 17.5402C101.806 16.8884 101.85 16.6133 101.792 15.7297C101.632 13.3834 100.198 12.1522 96.3168 11.037C92.2613 9.86379 91.1026 8.99476 90.9867 7.03944C90.9433 6.31525 91.0012 6.04005 91.2764 5.50415C91.9716 4.20061 93.84 3.33158 95.9547 3.33158C98.5618 3.33158 100.517 4.75099 100.981 6.96702C101.125 7.64776 101.212 7.82156 101.43 7.82156C101.676 7.82156 101.705 7.74915 101.603 7.12634C101.125 3.9399 97.939 2.15838 94.2021 2.96948Z" fill="white"/>
<path d="M57.9355 11.5873V20.1328H62.6428C67.2487 20.1328 67.35 20.1328 67.35 19.8431C67.35 19.5535 67.2487 19.5535 62.9325 19.5535H58.5149V11.2977C58.5149 3.14327 58.5149 3.04188 58.2252 3.04188C57.9355 3.04188 57.9355 3.14327 57.9355 11.5873Z" fill="white"/>
<path d="M70.3906 11.5873C70.3906 20.0314 70.3906 20.1328 70.6803 20.1328C70.97 20.1328 70.97 20.0314 70.97 12.1522C70.97 7.7781 71.0279 4.21507 71.0858 4.25852C71.1438 4.28749 72.7515 7.87948 74.6634 12.2246C77.1691 17.9313 78.1974 20.1328 78.3567 20.1328C78.5305 20.1328 79.5734 17.8878 82.137 12.0653L85.6711 4.0123L85.7145 12.0653C85.7435 20.0169 85.7435 20.1328 86.0332 20.1328C86.3228 20.1328 86.3228 20.0314 86.3228 11.5729V3.0274L85.8594 3.07085L85.3959 3.1143L81.9198 11.1094C79.9934 15.5125 78.4002 19.1189 78.3567 19.1189C78.3133 19.1189 76.7201 15.498 74.8082 11.0804L71.3321 3.05636L70.8686 3.04188H70.3906V11.5873Z" fill="white"/>
<path d="M12.6016 11.1528V12.6012H17.8157H23.0299V11.1528V9.70446H17.8157H12.6016V11.1528Z" fill="white"/>
<path d="M44.0312 15.2807V17.0912H45.8417H47.6522V15.2807V13.4703H45.8417H44.0312V15.2807Z" fill="white"/>
<path d="M12.6016 18.6844V20.1328H17.7433H22.8851V18.6844V17.236H17.7433H12.6016V18.6844Z" fill="white"/>
</svg>
