<svg width="18" height="19" viewBox="0 0 18 19" fill="none" xmlns="http://www.w3.org/2000/svg">
<path d="M13.2008 17.3H4.40078C4.10913 17.2997 3.82951 17.1837 3.62329 16.9775C3.41706 16.7713 3.30107 16.4917 3.30078 16.2V3.00002C3.30107 2.70838 3.41706 2.42876 3.62329 2.22253C3.82951 2.0163 4.10913 1.90032 4.40078 1.90002H13.2008C13.4924 1.90032 13.7721 2.0163 13.9783 2.22253C14.1845 2.42876 14.3005 2.70838 14.3008 3.00002V12.1399L11.5508 10.7649L8.80078 12.1399V3.00002H4.40078V16.2H13.2008V14H14.3008V16.2C14.3003 16.4916 14.1843 16.7712 13.9781 16.9774C13.7719 17.1836 13.4924 17.2996 13.2008 17.3ZM11.5508 9.53512L13.2008 10.3601V3.00002H9.90078V10.3601L11.5508 9.53512Z" fill="#8590A5"/>
</svg>
