<svg width="47" height="70" viewBox="0 0 47 70" fill="none" xmlns="http://www.w3.org/2000/svg">
<g clip-path="url(#clip0_51_5962)">
<path d="M19.1476 26.8667L21.5492 24.4833C21.7203 24.3 21.9342 24.2083 22.1909 24.2083C22.4476 24.2083 22.6614 24.3 22.8326 24.4833L25.2342 26.8667H28.6076C28.8642 26.8667 29.0812 26.9553 29.2584 27.1325C29.4356 27.3097 29.5242 27.5267 29.5242 27.7833V31.1567L31.9076 33.5583C32.0909 33.7294 32.1826 33.9433 32.1826 34.2C32.1826 34.4567 32.0909 34.6705 31.9076 34.8417L29.5242 37.2433V40.6167C29.5242 40.8733 29.4356 41.0903 29.2584 41.2675C29.0812 41.4447 28.8642 41.5333 28.6076 41.5333H25.2342L22.8326 43.9167C22.6614 44.1 22.4476 44.1917 22.1909 44.1917C21.9342 44.1917 21.7203 44.1 21.5492 43.9167L19.1476 41.5333H15.7742C15.5176 41.5333 15.3006 41.4447 15.1234 41.2675C14.9462 41.0903 14.8576 40.8733 14.8576 40.6167V37.2433L12.4742 34.8417C12.2909 34.6705 12.1992 34.4567 12.1992 34.2C12.1992 33.9433 12.2909 33.7294 12.4742 33.5583L14.8576 31.1567V27.7833C14.8576 27.5267 14.9462 27.3097 15.1234 27.1325C15.3006 26.9553 15.5176 26.8667 15.7742 26.8667H19.1476ZM16.6909 28.7V31.9267L14.4176 34.2L16.6909 36.4733V39.7H19.9176L22.1909 41.9733L24.4642 39.7H27.6909V36.4733L29.9642 34.2L27.6909 31.9267V28.7H24.4642L22.1909 26.4267L19.9176 28.7H16.6909ZM22.1909 37.8667C21.5309 37.8667 20.9198 37.7017 20.3576 37.3717C19.7953 37.0417 19.3492 36.5955 19.0192 36.0333C18.6892 35.4711 18.5242 34.86 18.5242 34.2C18.5242 33.54 18.6892 32.9289 19.0192 32.3667C19.3492 31.8044 19.7953 31.3583 20.3576 31.0283C20.9198 30.6983 21.5309 30.5333 22.1909 30.5333C22.8509 30.5333 23.462 30.6983 24.0242 31.0283C24.5864 31.3583 25.0326 31.8044 25.3626 32.3667C25.6926 32.9289 25.8576 33.54 25.8576 34.2C25.8576 34.86 25.6926 35.4711 25.3626 36.0333C25.0326 36.5955 24.5864 37.0417 24.0242 37.3717C23.462 37.7017 22.8509 37.8667 22.1909 37.8667ZM22.1909 36.0333C22.692 36.0333 23.1228 35.853 23.4834 35.4925C23.8439 35.1319 24.0242 34.7011 24.0242 34.2C24.0242 33.6989 23.8439 33.268 23.4834 32.9075C23.1228 32.5469 22.692 32.3667 22.1909 32.3667C21.6898 32.3667 21.2589 32.5469 20.8984 32.9075C20.5378 33.268 20.3576 33.6989 20.3576 34.2C20.3576 34.7011 20.5378 35.1319 20.8984 35.4925C21.2589 35.853 21.6898 36.0333 22.1909 36.0333Z" fill="#636E75"/>
</g>
<defs>
<clipPath id="clip0_51_5962">
<rect width="22" height="22.4" fill="white" transform="matrix(1 0 0 -1 12.1992 45.4)"/>
</clipPath>
</defs>
</svg>
