<svg width="22" height="23" viewBox="0 0 22 23" fill="none" xmlns="http://www.w3.org/2000/svg">
<path d="M16.5 15.7833H18.3333V17.6167H0V15.7833H1.83333V9.36666C1.83333 8.03444 2.16944 6.79999 2.84167 5.66333C3.48944 4.56333 4.36333 3.68944 5.46333 3.04166C6.6 2.36944 7.83444 2.03333 9.16667 2.03333C10.4989 2.03333 11.7333 2.36944 12.87 3.04166C13.97 3.68944 14.8439 4.56333 15.4917 5.66333C16.1639 6.79999 16.5 8.03444 16.5 9.36666V15.7833ZM14.6667 15.7833V9.36666C14.6667 8.37666 14.4161 7.45388 13.915 6.59833C13.4261 5.76721 12.7661 5.10721 11.935 4.61833C11.0794 4.11721 10.1567 3.86666 9.16667 3.86666C8.17667 3.86666 7.25389 4.11721 6.39833 4.61833C5.56722 5.10721 4.90722 5.76721 4.41833 6.59833C3.91722 7.45388 3.66667 8.37666 3.66667 9.36666V15.7833H14.6667ZM6.41667 19.45H11.9167V21.2833H6.41667V19.45Z" fill="#636E75"/>
</svg>
