<svg width="26" height="26" viewBox="0 0 26 26" fill="none" xmlns="http://www.w3.org/2000/svg">
<path fill-rule="evenodd" clip-rule="evenodd" d="M23.0659 13.2796C23.0661 13.5673 22.8331 13.8006 22.5454 13.8008L4.01534 13.8139C3.72769 13.8141 3.49434 13.581 3.49414 13.2934C3.49394 13.0057 3.72696 12.7724 4.01461 12.7722L22.5447 12.7592C22.8324 12.759 23.0657 12.992 23.0659 13.2796Z" fill="white"/>
<path fill-rule="evenodd" clip-rule="evenodd" d="M15.1182 5.61972C15.3218 5.4165 15.6516 5.4168 15.8548 5.62038L23.1334 12.912C23.3364 13.1154 23.3364 13.4446 23.1334 13.648L15.8548 20.9396C15.6516 21.1432 15.3218 21.1435 15.1182 20.9403C14.9146 20.7371 14.9143 20.4073 15.1176 20.2037L22.0289 13.28L15.1176 6.35629C14.9143 6.15271 14.9146 5.82293 15.1182 5.61972Z" fill="white"/>
</svg>
