<svg width="47" height="70" viewBox="0 0 47 70" fill="none" xmlns="http://www.w3.org/2000/svg">
<g clip-path="url(#clip0_51_5415)">
<path d="M19.1483 26.8667L21.55 24.4833C21.7211 24.3 21.935 24.2083 22.1916 24.2083C22.4483 24.2083 22.6622 24.3 22.8333 24.4833L25.235 26.8667H28.6083C28.865 26.8667 29.0819 26.9553 29.2591 27.1325C29.4363 27.3097 29.525 27.5267 29.525 27.7833V31.1567L31.9083 33.5583C32.0916 33.7294 32.1833 33.9433 32.1833 34.2C32.1833 34.4567 32.0916 34.6705 31.9083 34.8417L29.525 37.2433V40.6167C29.525 40.8733 29.4363 41.0903 29.2591 41.2675C29.0819 41.4447 28.865 41.5333 28.6083 41.5333H25.235L22.8333 43.9167C22.6622 44.1 22.4483 44.1917 22.1916 44.1917C21.935 44.1917 21.7211 44.1 21.55 43.9167L19.1483 41.5333H15.775C15.5183 41.5333 15.3013 41.4447 15.1241 41.2675C14.9469 41.0903 14.8583 40.8733 14.8583 40.6167V37.2433L12.475 34.8417C12.2916 34.6705 12.2 34.4567 12.2 34.2C12.2 33.9433 12.2916 33.7294 12.475 33.5583L14.8583 31.1567V27.7833C14.8583 27.5267 14.9469 27.3097 15.1241 27.1325C15.3013 26.9553 15.5183 26.8667 15.775 26.8667H19.1483ZM16.6916 28.7V31.9267L14.4183 34.2L16.6916 36.4733V39.7H19.9183L22.1916 41.9733L24.465 39.7H27.6916V36.4733L29.965 34.2L27.6916 31.9267V28.7H24.465L22.1916 26.4267L19.9183 28.7H16.6916ZM22.1916 37.8667C21.5316 37.8667 20.9205 37.7017 20.3583 37.3717C19.7961 37.0417 19.35 36.5955 19.02 36.0333C18.69 35.4711 18.525 34.86 18.525 34.2C18.525 33.54 18.69 32.9289 19.02 32.3667C19.35 31.8044 19.7961 31.3583 20.3583 31.0283C20.9205 30.6983 21.5316 30.5333 22.1916 30.5333C22.8516 30.5333 23.4627 30.6983 24.025 31.0283C24.5872 31.3583 25.0333 31.8044 25.3633 32.3667C25.6933 32.9289 25.8583 33.54 25.8583 34.2C25.8583 34.86 25.6933 35.4711 25.3633 36.0333C25.0333 36.5955 24.5872 37.0417 24.025 37.3717C23.4627 37.7017 22.8516 37.8667 22.1916 37.8667ZM22.1916 36.0333C22.6927 36.0333 23.1236 35.853 23.4841 35.4925C23.8447 35.1319 24.025 34.7011 24.025 34.2C24.025 33.6989 23.8447 33.268 23.4841 32.9075C23.1236 32.5469 22.6927 32.3667 22.1916 32.3667C21.6905 32.3667 21.2597 32.5469 20.8991 32.9075C20.5386 33.268 20.3583 33.6989 20.3583 34.2C20.3583 34.7011 20.5386 35.1319 20.8991 35.4925C21.2597 35.853 21.6905 36.0333 22.1916 36.0333Z" fill="#636E75"/>
</g>
<defs>
<clipPath id="clip0_51_5415">
<rect width="22" height="22.4" fill="white" transform="matrix(1 0 0 -1 12.2 45.4)"/>
</clipPath>
</defs>
</svg>
