<svg width="18" height="19" viewBox="0 0 18 19" fill="none" xmlns="http://www.w3.org/2000/svg">
<path fill-rule="evenodd" clip-rule="evenodd" d="M8.45999 11.7275C8.32096 11.7432 8.18116 11.751 8.04125 11.751H5.86655V13.5333C5.86655 13.5333 5.57102 13.4736 5.13322 13.3049C3.88142 12.8235 1.46655 11.4543 1.46655 8.059C1.46655 6.02034 3.11949 4.36667 5.15889 4.36667H8.04089C9.81995 4.36667 11.3053 5.6247 11.6551 7.3H13.1797C13.9631 7.3001 14.7143 7.61135 15.2682 8.1653C15.8221 8.71925 16.1332 9.47052 16.1332 10.2539C16.1332 12.9228 13.9963 14.0269 12.8332 14.4298C12.3987 14.5805 12.0999 14.6333 12.0999 14.6333V13.2074H11.0204C10.5012 13.2078 9.99098 13.0712 9.54141 12.8114C9.09184 12.5515 8.71881 12.1777 8.45999 11.7275ZM5.13322 11.0176V12.5118C4.76786 12.3516 4.42031 12.1535 4.09629 11.9207C3.14662 11.234 2.19989 10.0698 2.19989 8.05864C2.19998 7.27392 2.51178 6.52138 3.06669 5.96654C3.6216 5.4117 4.37417 5.1 5.15889 5.1H8.04089C8.79563 5.10001 9.52184 5.38843 10.0709 5.90624C10.62 6.42406 10.9505 7.13212 10.9948 7.88557C10.9686 8.39319 10.8377 8.88991 10.6102 9.34449C10.3828 9.79907 10.0638 10.2017 9.67329 10.527C9.1895 10.8478 8.62172 11.0185 8.04125 11.0176H5.13322ZM10.1107 11.1166C9.85832 11.3234 9.58386 11.5017 9.29232 11.6483C9.50031 11.9064 9.76353 12.1145 10.0626 12.2574C10.3617 12.4003 10.689 12.4743 11.0204 12.474H12.8332V13.6477C13.1438 13.5258 13.4424 13.3755 13.7253 13.1986C14.5932 12.6504 15.3999 11.7601 15.3999 10.2539C15.3999 9.66501 15.166 9.10026 14.7496 8.68384C14.3333 8.26742 13.7686 8.03343 13.1797 8.03334H11.7332V8.059C11.7332 9.33097 11.0897 10.4526 10.1107 11.1166Z" fill="#8590A5"/>
</svg>
