<svg width="22" height="20" viewBox="0 0 22 20" fill="none" xmlns="http://www.w3.org/2000/svg">
<g opacity="0.75">
<path d="M9.11982 2.28H12.5198C13.7552 2.28 14.8998 2.58085 15.9538 3.18256C16.9738 3.76239 17.7842 4.54461 18.3848 5.52923C19.0082 6.54667 19.3198 7.65162 19.3198 8.8441C19.3198 10.0366 19.0082 11.1415 18.3848 12.159C17.7842 13.1436 16.9738 13.9258 15.9538 14.5056C14.8998 15.1073 13.7552 15.4082 12.5198 15.4082V18.28C11.1145 17.733 9.98682 17.2626 9.13682 16.8687C7.83349 16.2451 6.72849 15.6051 5.82182 14.9487C4.73382 14.1391 3.90082 13.2694 3.32282 12.3395C2.65416 11.2673 2.31982 10.1022 2.31982 8.8441C2.31982 7.65162 2.63149 6.54667 3.25482 5.52923C3.85549 4.54461 4.66582 3.76239 5.68582 3.18256C6.73982 2.58085 7.88449 2.28 9.11982 2.28ZM10.8198 13.7672H12.5198C13.4378 13.7672 14.2935 13.5429 15.0868 13.0944C15.8575 12.6568 16.4695 12.066 16.9228 11.3221C17.3875 10.5562 17.6198 9.73026 17.6198 8.8441C17.6198 7.95795 17.3875 7.13196 16.9228 6.36615C16.4695 5.62222 15.8575 5.03145 15.0868 4.59385C14.2935 4.1453 13.4378 3.92103 12.5198 3.92103H9.11982C8.20182 3.92103 7.34616 4.1453 6.55282 4.59385C5.78216 5.03145 5.17016 5.62222 4.71682 6.36615C4.25216 7.13196 4.01982 7.95795 4.01982 8.8441C4.01982 9.82872 4.25782 10.7149 4.73382 11.5026C5.20982 12.2903 5.95216 13.0342 6.96082 13.7344C7.92416 14.4126 9.21049 15.1019 10.8198 15.8021V13.7672Z" fill="#005F5F"/>
</g>
</svg>
