<svg width="18" height="19" viewBox="0 0 18 19" fill="none" xmlns="http://www.w3.org/2000/svg">
<g opacity="0.75">
<path d="M5.86667 3.09999H8.8C9.86578 3.09999 10.8533 3.36888 11.7627 3.90666C12.6427 4.42488 13.3418 5.12399 13.86 6.00399C14.3978 6.91333 14.6667 7.90088 14.6667 8.96666C14.6667 10.0324 14.3978 11.02 13.86 11.9293C13.3418 12.8093 12.6427 13.5084 11.7627 14.0267C10.8533 14.5644 9.86578 14.8333 8.8 14.8333V17.4C7.58756 16.9111 6.61467 16.4907 5.88133 16.1387C4.75689 15.5813 3.80356 15.0093 3.02133 14.4227C2.08267 13.6991 1.364 12.9218 0.865333 12.0907C0.288444 11.1324 0 10.0911 0 8.96666C0 7.90088 0.268889 6.91333 0.806667 6.00399C1.32489 5.12399 2.024 4.42488 2.904 3.90666C3.81333 3.36888 4.80089 3.09999 5.86667 3.09999ZM7.33333 13.3667H8.8C9.592 13.3667 10.3302 13.1662 11.0147 12.7653C11.6796 12.3742 12.2076 11.8462 12.5987 11.1813C12.9996 10.4969 13.2 9.75866 13.2 8.96666C13.2 8.17466 12.9996 7.43644 12.5987 6.75199C12.2076 6.08711 11.6796 5.5591 11.0147 5.16799C10.3302 4.76711 9.592 4.56666 8.8 4.56666H5.86667C5.07467 4.56666 4.33644 4.76711 3.652 5.16799C2.98711 5.5591 2.45911 6.08711 2.068 6.75199C1.66711 7.43644 1.46667 8.17466 1.46667 8.96666C1.46667 9.84666 1.672 10.6387 2.08267 11.3427C2.49333 12.0467 3.13378 12.7115 4.004 13.3373C4.83511 13.9435 5.94489 14.5595 7.33333 15.1853V13.3667Z" fill="#8590A5"/>
</g>
</svg>
