<svg width="18" height="18" viewBox="0 0 18 18" fill="none" xmlns="http://www.w3.org/2000/svg">
<g clip-path="url(#clip0_98_4724)">
<path d="M8.79995 4.379L8.6278 4.43125L1.7528 6.73465L0.189697 7.25L1.09995 7.5415V12.354C0.771597 12.5448 0.549947 12.893 0.549947 13.3C0.549947 13.5917 0.66584 13.8715 0.87213 14.0778C1.07842 14.2841 1.35821 14.4 1.64995 14.4C1.94169 14.4 2.22147 14.2841 2.42776 14.0778C2.63405 13.8715 2.74995 13.5917 2.74995 13.3C2.74995 12.893 2.5283 12.5448 2.19995 12.354V7.921L3.29995 8.28125V11.1C3.29995 11.551 3.57495 11.925 3.90165 12.1835C4.22835 12.4403 4.63425 12.6218 5.12155 12.7846C6.09725 13.1091 7.38315 13.3 8.79995 13.3C10.2167 13.3 11.5026 13.1097 12.4783 12.7841C12.9656 12.6218 13.3715 12.4403 13.6982 12.1829C14.0249 11.925 14.2999 11.551 14.2999 11.1V8.28125L15.8471 7.76535L17.4102 7.25L15.8465 6.7341L8.97155 4.43125L8.79995 4.379ZM8.79995 5.53125L13.9562 7.25L8.79995 8.96875L3.6437 7.25L8.79995 5.53125ZM4.39995 8.65965L8.62835 10.0687L8.79995 10.1204L8.9721 10.0682L13.1999 8.6591V11.1C13.1999 11.1055 13.2021 11.1693 13.0278 11.3062C12.854 11.4437 12.5421 11.617 12.134 11.7534C11.3189 12.0245 10.1172 12.2 8.79995 12.2C7.4827 12.2 6.28095 12.0251 5.4653 11.7528C5.0583 11.617 4.7459 11.4432 4.5721 11.3062C4.3972 11.1687 4.39995 11.1055 4.39995 11.1V8.65965Z" fill="#8590A5"/>
</g>
<defs>
<clipPath id="clip0_98_4724">
<rect width="17.6" height="17.6" fill="white" transform="translate(0 0.100006)"/>
</clipPath>
</defs>
</svg>
