<svg width="18" height="19" viewBox="0 0 18 19" fill="none" xmlns="http://www.w3.org/2000/svg">
<path d="M9 10.65C9.41421 10.65 9.75 10.3142 9.75 9.90002C9.75 9.48581 9.41421 9.15002 9 9.15002C8.58579 9.15002 8.25 9.48581 8.25 9.90002C8.25 10.3142 8.58579 10.65 9 10.65Z" stroke="#808080" stroke-width="2" stroke-linecap="round" stroke-linejoin="round"/>
<path d="M9 5.40002C9.41421 5.40002 9.75 5.06424 9.75 4.65002C9.75 4.23581 9.41421 3.90002 9 3.90002C8.58579 3.90002 8.25 4.23581 8.25 4.65002C8.25 5.06424 8.58579 5.40002 9 5.40002Z" stroke="#808080" stroke-width="2" stroke-linecap="round" stroke-linejoin="round"/>
<path d="M9 15.9C9.41421 15.9 9.75 15.5642 9.75 15.15C9.75 14.7358 9.41421 14.4 9 14.4C8.58579 14.4 8.25 14.7358 8.25 15.15C8.25 15.5642 8.58579 15.9 9 15.9Z" stroke="#808080" stroke-width="2" stroke-linecap="round" stroke-linejoin="round"/>
</svg>
