<svg width="18" height="19" viewBox="0 0 18 19" fill="none" xmlns="http://www.w3.org/2000/svg">
<g opacity="0.75">
<path d="M5.86667 2.80001H8.8C9.86578 2.80001 10.8533 3.0689 11.7627 3.60667C12.6427 4.1249 13.3418 4.82401 13.86 5.70401C14.3978 6.61334 14.6667 7.60089 14.6667 8.66667C14.6667 9.73245 14.3978 10.72 13.86 11.6293C13.3418 12.5093 12.6427 13.2085 11.7627 13.7267C10.8533 14.2645 9.86578 14.5333 8.8 14.5333V17.1C7.58756 16.6111 6.61467 16.1907 5.88133 15.8387C4.75689 15.2813 3.80356 14.7093 3.02133 14.1227C2.08267 13.3991 1.364 12.6218 0.865333 11.7907C0.288444 10.8325 0 9.79112 0 8.66667C0 7.60089 0.268889 6.61334 0.806667 5.70401C1.32489 4.82401 2.024 4.1249 2.904 3.60667C3.81333 3.0689 4.80089 2.80001 5.86667 2.80001ZM7.33333 13.0667H8.8C9.592 13.0667 10.3302 12.8662 11.0147 12.4653C11.6796 12.0742 12.2076 11.5462 12.5987 10.8813C12.9996 10.1969 13.2 9.45867 13.2 8.66667C13.2 7.87467 12.9996 7.13645 12.5987 6.45201C12.2076 5.78712 11.6796 5.25912 11.0147 4.86801C10.3302 4.46712 9.592 4.26667 8.8 4.26667H5.86667C5.07467 4.26667 4.33644 4.46712 3.652 4.86801C2.98711 5.25912 2.45911 5.78712 2.068 6.45201C1.66711 7.13645 1.46667 7.87467 1.46667 8.66667C1.46667 9.54667 1.672 10.3387 2.08267 11.0427C2.49333 11.7467 3.13378 12.4116 4.004 13.0373C4.83511 13.6436 5.94489 14.2596 7.33333 14.8853V13.0667Z" fill="#8590A5"/>
</g>
</svg>
