<svg width="14" height="15" viewBox="0 0 14 15" fill="none" xmlns="http://www.w3.org/2000/svg">
<g clip-path="url(#clip0_107_3202)">
<path d="M9.91644 2.06674H11.4739C11.8041 2.0609 12.1249 2.17648 12.3754 2.39155C12.626 2.60662 12.7888 2.90619 12.8331 3.23341V7.31674C12.7888 7.64395 12.626 7.94353 12.3754 8.15859C12.1249 8.37366 11.8041 8.48924 11.4739 8.48341H9.91644M5.83311 9.65007V11.9834C5.83311 12.4475 6.01748 12.8927 6.34567 13.2208C6.67386 13.549 7.11898 13.7334 7.58311 13.7334L9.91644 8.48341V2.06674H3.33644C3.05508 2.06356 2.78205 2.16217 2.56766 2.3444C2.35327 2.52663 2.21196 2.78021 2.16977 3.05841L1.36477 8.30841C1.33939 8.47561 1.35067 8.64634 1.39783 8.80876C1.44498 8.97118 1.52688 9.1214 1.63786 9.24902C1.74883 9.37664 1.88623 9.47861 2.04052 9.54786C2.19482 9.61711 2.36233 9.65199 2.53144 9.65007H5.83311Z" stroke="#808080" stroke-linecap="round" stroke-linejoin="round"/>
</g>
<defs>
<clipPath id="clip0_107_3202">
<rect width="14" height="14" fill="white" transform="translate(0 0.900024)"/>
</clipPath>
</defs>
</svg>
