<svg width="18" height="19" viewBox="0 0 18 19" fill="none" xmlns="http://www.w3.org/2000/svg">
<path fill-rule="evenodd" clip-rule="evenodd" d="M8.4601 11.7275C8.32107 11.7432 8.18127 11.751 8.04137 11.751H5.86667V13.5333C5.86667 13.5333 5.57113 13.4736 5.13333 13.3049C3.88153 12.8235 1.46667 11.4543 1.46667 8.059C1.46667 6.02034 3.1196 4.36667 5.159 4.36667H8.041C9.82007 4.36667 11.3054 5.6247 11.6552 7.3H13.1798C13.9632 7.3001 14.7144 7.61135 15.2683 8.1653C15.8222 8.71925 16.1333 9.47052 16.1333 10.2539C16.1333 12.9228 13.9964 14.0269 12.8333 14.4298C12.3988 14.5805 12.1 14.6333 12.1 14.6333V13.2074H11.0205C10.5013 13.2078 9.9911 13.0712 9.54153 12.8114C9.09196 12.5515 8.71892 12.1777 8.4601 11.7275ZM5.13333 11.0176V12.5118C4.76797 12.3516 4.42043 12.1535 4.0964 11.9207C3.14673 11.234 2.2 10.0698 2.2 8.05864C2.2001 7.27392 2.51189 6.52138 3.0668 5.96654C3.62171 5.4117 4.37429 5.1 5.159 5.1H8.041C8.79575 5.10001 9.52196 5.38843 10.0711 5.90624C10.6202 6.42406 10.9506 7.13212 10.9949 7.88557C10.9687 8.39319 10.8378 8.88991 10.6104 9.34449C10.3829 9.79907 10.0639 10.2017 9.6734 10.527C9.18962 10.8478 8.62184 11.0185 8.04137 11.0176H5.13333ZM10.1108 11.1166C9.85843 11.3234 9.58397 11.5017 9.29243 11.6483C9.50043 11.9064 9.76364 12.1145 10.0627 12.2574C10.3618 12.4003 10.6891 12.4743 11.0205 12.474H12.8333V13.6477C13.1439 13.5258 13.4426 13.3755 13.7254 13.1986C14.5933 12.6504 15.4 11.7601 15.4 10.2539C15.4 9.66501 15.1661 9.10026 14.7498 8.68384C14.3334 8.26742 13.7687 8.03343 13.1798 8.03334H11.7333V8.059C11.7333 9.33097 11.0898 10.4526 10.1108 11.1166Z" fill="#8590A5"/>
</svg>
