<svg width="22" height="23" viewBox="0 0 22 23" fill="none" xmlns="http://www.w3.org/2000/svg">
<g clip-path="url(#clip0_51_5460)">
<path d="M16.5001 15.7833H18.3335V17.6167H0.00012207V15.7833H1.83346V9.36666C1.83346 8.03444 2.16957 6.79999 2.84179 5.66333C3.48957 4.56333 4.36346 3.68944 5.46346 3.04166C6.60012 2.36944 7.83457 2.03333 9.16679 2.03333C10.499 2.03333 11.7335 2.36944 12.8701 3.04166C13.9701 3.68944 14.844 4.56333 15.4918 5.66333C16.164 6.79999 16.5001 8.03444 16.5001 9.36666V15.7833ZM14.6668 15.7833V9.36666C14.6668 8.37666 14.4162 7.45388 13.9151 6.59833C13.4262 5.76721 12.7662 5.10721 11.9351 4.61833C11.0796 4.11721 10.1568 3.86666 9.16679 3.86666C8.17679 3.86666 7.25401 4.11721 6.39846 4.61833C5.56734 5.10721 4.90734 5.76721 4.41846 6.59833C3.91734 7.45388 3.66679 8.37666 3.66679 9.36666V15.7833H14.6668ZM6.41679 19.45H11.9168V21.2833H6.41679V19.45Z" fill="#636E75"/>
</g>
<defs>
<clipPath id="clip0_51_5460">
<rect width="22" height="22.4" fill="white" transform="matrix(1 0 0 -1 0.00012207 22.4)"/>
</clipPath>
</defs>
</svg>
