<svg width="18" height="18" viewBox="0 0 18 18" fill="none" xmlns="http://www.w3.org/2000/svg">
<g clip-path="url(#clip0_98_4451)">
<path d="M8.8 4.379L8.62785 4.43125L1.75285 6.73465L0.189751 7.25L1.1 7.5415V12.354C0.771651 12.5448 0.550001 12.893 0.550001 13.3C0.550001 13.5917 0.665893 13.8715 0.872183 14.0778C1.07847 14.2841 1.35826 14.4 1.65 14.4C1.94174 14.4 2.22153 14.2841 2.42782 14.0778C2.63411 13.8715 2.75 13.5917 2.75 13.3C2.75 12.893 2.52835 12.5448 2.2 12.354V7.921L3.3 8.28125V11.1C3.3 11.551 3.575 11.925 3.9017 12.1835C4.2284 12.4403 4.6343 12.6218 5.1216 12.7846C6.0973 13.1091 7.3832 13.3 8.8 13.3C10.2168 13.3 11.5027 13.1097 12.4784 12.7841C12.9657 12.6218 13.3716 12.4403 13.6983 12.1829C14.025 11.925 14.3 11.551 14.3 11.1V8.28125L15.8472 7.76535L17.4103 7.25L15.8466 6.7341L8.9716 4.43125L8.8 4.379ZM8.8 5.53125L13.9563 7.25L8.8 8.96875L3.64375 7.25L8.8 5.53125ZM4.4 8.65965L8.6284 10.0687L8.8 10.1204L8.97215 10.0682L13.2 8.6591V11.1C13.2 11.1055 13.2022 11.1693 13.0279 11.3062C12.8541 11.4437 12.5422 11.617 12.1341 11.7534C11.319 12.0245 10.1173 12.2 8.8 12.2C7.48275 12.2 6.281 12.0251 5.46535 11.7528C5.05835 11.617 4.74595 11.4432 4.57215 11.3062C4.39725 11.1687 4.4 11.1055 4.4 11.1V8.65965Z" fill="#8590A5"/>
</g>
<defs>
<clipPath id="clip0_98_4451">
<rect width="17.6" height="17.6" fill="white" transform="translate(0 0.100006)"/>
</clipPath>
</defs>
</svg>
