<svg width="26" height="26" viewBox="0 0 26 26" fill="none" xmlns="http://www.w3.org/2000/svg">
<path fill-rule="evenodd" clip-rule="evenodd" d="M23.0659 13.2796C23.0661 13.5673 22.8331 13.8006 22.5454 13.8008L4.01534 13.8138C3.72769 13.814 3.49434 13.581 3.49414 13.2934C3.49394 13.0057 3.72696 12.7724 4.01461 12.7722L22.5447 12.7592C22.8324 12.759 23.0657 12.992 23.0659 13.2796Z" fill="white"/>
<path fill-rule="evenodd" clip-rule="evenodd" d="M15.1177 5.61975C15.3213 5.41653 15.6511 5.41683 15.8543 5.62041L23.1329 12.9121C23.3359 13.1154 23.3359 13.4447 23.1329 13.648L15.8543 20.9397C15.6511 21.1432 15.3213 21.1435 15.1177 20.9403C14.9141 20.7371 14.9138 20.4073 15.1171 20.2037L22.0284 13.28L15.1171 6.35632C14.9138 6.15274 14.9141 5.82297 15.1177 5.61975Z" fill="white"/>
</svg>
