<svg width="102" height="21" viewBox="0 0 102 21" fill="none" xmlns="http://www.w3.org/2000/svg">
<path d="M41.438 10.2404C39.0191 15.4835 37.0059 19.8576 36.9769 19.959C36.919 20.1039 37.2521 20.1328 38.5412 20.1039L40.1779 20.0604L43.0022 13.8468L45.8266 7.63327L46.0873 8.19814C46.2466 8.5023 47.5212 11.2977 48.9261 14.4117L51.5042 20.0604L53.1409 20.1039C54.43 20.1328 54.7631 20.1039 54.7052 19.959C54.6617 19.8576 52.7643 15.7297 50.4759 10.7907C48.1874 5.85176 46.2031 1.56454 46.0728 1.26038L45.841 0.709995L41.438 10.2404Z" fill="white"/>
<path d="M28.953 1.65147C25.419 2.63637 23.8257 6.38769 25.8245 9.00926C26.4473 9.83484 27.2874 10.4432 29.3731 11.6164C32.5016 13.3834 33.472 14.2814 33.4865 15.4835C33.501 16.3671 33.0809 16.9464 32.1105 17.4389C30.5173 18.2355 28.0695 17.9168 26.6935 16.7292C26.3604 16.454 26.0707 16.2222 26.0273 16.2222C25.9983 16.2222 25.5928 16.7147 25.1293 17.323L24.3037 18.4238L24.7962 18.9307C25.361 19.5245 26.9977 20.3356 28.0695 20.5529C29.1703 20.7846 31.227 20.7557 32.2264 20.495C34.0658 20.017 35.4852 18.8148 36.0646 17.2651C36.4557 16.2367 36.4267 14.2814 36.0067 13.4848C35.3259 12.1812 33.7472 10.9501 30.6621 9.25549C28.1999 7.92298 27.6205 7.2712 27.8812 6.06904C28.113 5.01172 29.7641 4.08476 31.1546 4.24408C31.9946 4.34547 32.965 4.75101 33.4285 5.2145C33.6168 5.3883 33.7906 5.50417 33.8341 5.46072C33.863 5.43176 34.2541 4.92482 34.7031 4.33098L35.4997 3.25918L35.0218 2.83915C33.6313 1.65147 30.9228 1.11557 28.953 1.65147Z" fill="white"/>
<path d="M0 11.1529V20.1329H5.14176H10.2835V18.6845V17.2361H6.59015H2.89677V9.70451V2.17291H1.44838H0V11.1529Z" fill="white"/>
<path d="M12.6006 3.62126V5.06964H17.7423H22.8841V3.62126V2.17287H17.7423H12.6006V3.62126Z" fill="white"/>
<path d="M94.2031 2.96951C93.7107 3.0709 92.9865 3.33161 92.5954 3.53438C91.7264 3.96889 90.727 5.05518 90.5242 5.77937C90.278 6.69186 90.3504 7.8216 90.727 8.61821C91.3353 9.93624 92.5375 10.6604 95.695 11.6019C98.2296 12.3695 99.3159 12.8475 100.141 13.6151C100.953 14.3683 101.3 15.2084 101.213 16.2657C101.126 17.3085 100.706 18.0617 99.8518 18.7134C98.7366 19.568 97.9834 19.7708 95.9557 19.7708C94.5073 19.7563 94.0873 19.6983 93.4065 19.4376C91.6829 18.7569 90.7705 17.743 90.4663 16.1933C90.3504 15.527 90.2635 15.3532 90.0318 15.3532C89.7856 15.3532 89.7711 15.4256 89.858 16.1064C90.1476 18.2644 91.625 19.6549 94.2466 20.2053C95.4922 20.466 96.564 20.4805 97.7806 20.2198C99.649 19.8142 100.851 18.9597 101.503 17.5403C101.807 16.8885 101.851 16.6133 101.793 15.7298C101.633 13.3834 100.199 12.1523 96.3178 11.037C92.2623 9.86382 91.1036 8.99479 90.9877 7.03947C90.9443 6.31528 91.0022 6.04008 91.2774 5.50418C91.9726 4.20064 93.841 3.33161 95.9557 3.33161C98.5628 3.33161 100.518 4.75102 100.982 6.96705C101.126 7.64779 101.213 7.8216 101.431 7.8216C101.677 7.8216 101.706 7.74918 101.604 7.12637C101.126 3.93993 97.94 2.15841 94.2031 2.96951Z" fill="white"/>
<path d="M57.9355 11.5874V20.1329H62.6428C67.2487 20.1329 67.35 20.1329 67.35 19.8432C67.35 19.5535 67.2487 19.5535 62.9325 19.5535H58.5149V11.2977C58.5149 3.14333 58.5149 3.04194 58.2252 3.04194C57.9355 3.04194 57.9355 3.14333 57.9355 11.5874Z" fill="white"/>
<path d="M70.3916 11.5874C70.3916 20.0315 70.3916 20.1329 70.6813 20.1329C70.971 20.1329 70.971 20.0315 70.971 12.1523C70.971 7.77816 71.0289 4.21513 71.0868 4.25858C71.1448 4.28755 72.7525 7.87954 74.6643 12.2247C77.17 17.9313 78.1984 20.1329 78.3577 20.1329C78.5315 20.1329 79.5744 17.8879 82.138 12.0654L85.672 4.01236L85.7155 12.0654C85.7445 20.017 85.7445 20.1329 86.0341 20.1329C86.3238 20.1329 86.3238 20.0315 86.3238 11.5729V3.02746L85.8603 3.07091L85.3969 3.11436L81.9207 11.1094C79.9944 15.5125 78.4012 19.119 78.3577 19.119C78.3143 19.119 76.721 15.498 74.8092 11.0805L71.3331 3.05643L70.8696 3.04194H70.3916V11.5874Z" fill="white"/>
<path d="M12.6006 11.1529V12.6013H17.8148H23.029V11.1529V9.70449H17.8148H12.6006V11.1529Z" fill="white"/>
<path d="M44.0312 15.2808V17.0912H45.8417H47.6522V15.2808V13.4703H45.8417H44.0312V15.2808Z" fill="white"/>
<path d="M12.6006 18.6845V20.1329H17.7423H22.8841V18.6845V17.2361H17.7423H12.6006V18.6845Z" fill="white"/>
</svg>
