<svg width="18" height="19" viewBox="0 0 18 19" fill="none" xmlns="http://www.w3.org/2000/svg">
<path d="M13.1998 17.3H4.3998C4.10816 17.2997 3.82854 17.1837 3.62231 16.9775C3.41608 16.7712 3.3001 16.4916 3.2998 16.2V2.99996C3.3001 2.70831 3.41608 2.42869 3.62231 2.22247C3.82854 2.01624 4.10816 1.90025 4.3998 1.89996H13.1998C13.4915 1.90025 13.7711 2.01624 13.9773 2.22247C14.1835 2.42869 14.2995 2.70831 14.2998 2.99996V12.1399L11.5498 10.7649L8.7998 12.1399V2.99996H4.3998V16.2H13.1998V14H14.2998V16.2C14.2994 16.4916 14.1833 16.7711 13.9771 16.9773C13.7709 17.1835 13.4914 17.2995 13.1998 17.3ZM11.5498 9.53506L13.1998 10.3601V2.99996H9.89981V10.3601L11.5498 9.53506Z" fill="#8590A5"/>
</svg>
