<svg width="18" height="18" viewBox="0 0 18 18" fill="none" xmlns="http://www.w3.org/2000/svg">
<path fill-rule="evenodd" clip-rule="evenodd" d="M8.46023 11.2274C8.3212 11.2431 8.1814 11.2509 8.0415 11.2509H5.8668V13.0332C5.8668 13.0332 5.57126 12.9735 5.13346 12.8048C3.88166 12.3234 1.4668 10.9542 1.4668 7.55891C1.4668 5.52024 3.11973 3.86658 5.15913 3.86658H8.04113C9.8202 3.86658 11.3056 5.12461 11.6554 6.79991H13.18C13.9633 6.80001 14.7145 7.11126 15.2684 7.66521C15.8223 8.21915 16.1335 8.97043 16.1335 9.75378C16.1335 12.4227 13.9965 13.5268 12.8335 13.9297C12.399 14.0804 12.1001 14.1332 12.1001 14.1332V12.7073H11.0207C10.5014 12.7077 9.99123 12.5711 9.54166 12.3113C9.09209 12.0514 8.71905 11.6776 8.46023 11.2274ZM5.13346 10.5175V12.0117C4.7681 11.8515 4.42056 11.6534 4.09653 11.4206C3.14686 10.7339 2.20013 9.56971 2.20013 7.55854C2.20023 6.77383 2.51202 6.02129 3.06693 5.46645C3.62184 4.91161 4.37442 4.59991 5.15913 4.59991H8.04113C8.79588 4.59992 9.52209 4.88834 10.0712 5.40615C10.6203 5.92397 10.9508 6.63203 10.995 7.38548C10.9688 7.8931 10.8379 8.38981 10.6105 8.8444C10.3831 9.29898 10.0641 9.7016 9.67353 10.0269C9.18975 10.3477 8.62197 10.5184 8.0415 10.5175H5.13346ZM10.111 10.6165C9.85856 10.8233 9.5841 11.0016 9.29256 11.1482C9.50056 11.4063 9.76377 11.6144 10.0628 11.7573C10.3619 11.9002 10.6892 11.9742 11.0207 11.9739H12.8335V13.1476C13.144 13.0257 13.4427 12.8754 13.7256 12.6985C14.5935 12.1503 15.4001 11.26 15.4001 9.75378C15.4001 9.16492 15.1662 8.60017 14.7499 8.18375C14.3335 7.76733 13.7688 7.53334 13.18 7.53324H11.7335V7.55891C11.7335 8.83088 11.09 9.95251 10.111 10.6165Z" fill="#8590A5"/>
</svg>
