<svg width="18" height="19" viewBox="0 0 18 19" fill="none" xmlns="http://www.w3.org/2000/svg">
<g opacity="0.75">
<path d="M5.86667 2.79998H8.8C9.86578 2.79998 10.8533 3.06886 11.7627 3.60664C12.6427 4.12486 13.3418 4.82398 13.86 5.70398C14.3978 6.61331 14.6667 7.60086 14.6667 8.66664C14.6667 9.73242 14.3978 10.72 13.86 11.6293C13.3418 12.5093 12.6427 13.2084 11.7627 13.7266C10.8533 14.2644 9.86578 14.5333 8.8 14.5333V17.1C7.58756 16.6111 6.61467 16.1906 5.88133 15.8386C4.75689 15.2813 3.80356 14.7093 3.02133 14.1226C2.08267 13.3991 1.364 12.6218 0.865333 11.7906C0.288444 10.8324 0 9.79109 0 8.66664C0 7.60086 0.268889 6.61331 0.806667 5.70398C1.32489 4.82398 2.024 4.12486 2.904 3.60664C3.81333 3.06886 4.80089 2.79998 5.86667 2.79998ZM7.33333 13.0666H8.8C9.592 13.0666 10.3302 12.8662 11.0147 12.4653C11.6796 12.0742 12.2076 11.5462 12.5987 10.8813C12.9996 10.1969 13.2 9.45864 13.2 8.66664C13.2 7.87464 12.9996 7.13642 12.5987 6.45198C12.2076 5.78709 11.6796 5.25909 11.0147 4.86798C10.3302 4.46709 9.592 4.26664 8.8 4.26664H5.86667C5.07467 4.26664 4.33644 4.46709 3.652 4.86798C2.98711 5.25909 2.45911 5.78709 2.068 6.45198C1.66711 7.13642 1.46667 7.87464 1.46667 8.66664C1.46667 9.54664 1.672 10.3386 2.08267 11.0426C2.49333 11.7466 3.13378 12.4115 4.004 13.0373C4.83511 13.6435 5.94489 14.2595 7.33333 14.8853V13.0666Z" fill="#8590A5"/>
</g>
</svg>
