<svg width="22" height="23" viewBox="0 0 22 23" fill="none" xmlns="http://www.w3.org/2000/svg">
<path d="M16.5 15.7834H18.3333V17.6167H0V15.7834H1.83333V9.36672C1.83333 8.0345 2.16944 6.80005 2.84167 5.66339C3.48944 4.56339 4.36333 3.6895 5.46333 3.04172C6.6 2.3695 7.83444 2.03339 9.16667 2.03339C10.4989 2.03339 11.7333 2.3695 12.87 3.04172C13.97 3.6895 14.8439 4.56339 15.4917 5.66339C16.1639 6.80005 16.5 8.0345 16.5 9.36672V15.7834ZM14.6667 15.7834V9.36672C14.6667 8.37672 14.4161 7.45394 13.915 6.59839C13.4261 5.76728 12.7661 5.10728 11.935 4.61839C11.0794 4.11728 10.1567 3.86672 9.16667 3.86672C8.17667 3.86672 7.25389 4.11728 6.39833 4.61839C5.56722 5.10728 4.90722 5.76728 4.41833 6.59839C3.91722 7.45394 3.66667 8.37672 3.66667 9.36672V15.7834H14.6667ZM6.41667 19.4501H11.9167V21.2834H6.41667V19.4501Z" fill="#636E75"/>
</svg>
