<svg width="24" height="24" viewBox="0 0 24 24" fill="none" xmlns="http://www.w3.org/2000/svg">
<path fill-rule="evenodd" clip-rule="evenodd" d="M12 3.75C7.44365 3.75 3.75 7.44365 3.75 12C3.75 16.5563 7.44365 20.25 12 20.25C16.5563 20.25 20.25 16.5563 20.25 12C20.25 7.44365 16.5563 3.75 12 3.75ZM2.25 12C2.25 6.61522 6.61522 2.25 12 2.25C17.3848 2.25 21.75 6.61522 21.75 12C21.75 17.3848 17.3848 21.75 12 21.75C6.61522 21.75 2.25 17.3848 2.25 12Z" fill="#60BAA1"/>
<path d="M16.6187 12C16.6187 14.5507 14.5509 16.6184 12.0003 16.6184C9.44957 16.6184 7.38184 14.5507 7.38184 12C7.38184 9.44933 9.44957 7.38159 12.0003 7.38159C14.5509 7.38159 16.6187 9.44933 16.6187 12Z" fill="#60BAA1"/>
</svg>
