<svg width="18" height="19" viewBox="0 0 18 19" fill="none" xmlns="http://www.w3.org/2000/svg">
<g clip-path="url(#clip0_107_3804)">
<path d="M8.7997 5.07898L8.62755 5.13123L1.75255 7.43463L0.189453 7.94998L1.0997 8.24148V13.054C0.771353 13.2448 0.549703 13.593 0.549703 14C0.549703 14.2917 0.665596 14.5715 0.871886 14.7778C1.07818 14.9841 1.35796 15.1 1.6497 15.1C1.94144 15.1 2.22123 14.9841 2.42752 14.7778C2.63381 14.5715 2.7497 14.2917 2.7497 14C2.7497 13.593 2.52805 13.2448 2.1997 13.054V8.62098L3.2997 8.98123V11.8C3.2997 12.251 3.5747 12.625 3.9014 12.8835C4.2281 13.1403 4.634 13.3218 5.1213 13.4846C6.097 13.8091 7.3829 14 8.7997 14C10.2165 14 11.5024 13.8097 12.4781 13.4841C12.9654 13.3218 13.3713 13.1403 13.698 12.8829C14.0247 12.625 14.2997 12.251 14.2997 11.8V8.98123L15.8469 8.46533L17.41 7.94998L15.8463 7.43408L8.9713 5.13123L8.7997 5.07898ZM8.7997 6.23123L13.956 7.94998L8.7997 9.66873L3.64345 7.94998L8.7997 6.23123ZM4.3997 9.35963L8.6281 10.7687L8.7997 10.8204L8.97185 10.7682L13.1997 9.35908V11.8C13.1997 11.8055 13.2019 11.8693 13.0276 12.0062C12.8538 12.1437 12.5419 12.317 12.1338 12.4534C11.3187 12.7245 10.117 12.9 8.7997 12.9C7.48245 12.9 6.2807 12.7251 5.46505 12.4528C5.05805 12.317 4.74565 12.1432 4.57185 12.0062C4.39695 11.8687 4.3997 11.8055 4.3997 11.8V9.35963Z" fill="#8590A5"/>
</g>
<defs>
<clipPath id="clip0_107_3804">
<rect width="17.6" height="17.6" fill="white" transform="translate(0 0.799988)"/>
</clipPath>
</defs>
</svg>
