<svg width="47" height="70" viewBox="0 0 47 70" fill="none" xmlns="http://www.w3.org/2000/svg">
<g clip-path="url(#clip0_51_5514)">
<path d="M19.1485 26.8667L21.5502 24.4833C21.7213 24.3 21.9352 24.2083 22.1919 24.2083C22.4485 24.2083 22.6624 24.3 22.8335 24.4833L25.2352 26.8667H28.6085C28.8652 26.8667 29.0821 26.9553 29.2594 27.1325C29.4366 27.3097 29.5252 27.5267 29.5252 27.7833V31.1567L31.9085 33.5583C32.0919 33.7294 32.1835 33.9433 32.1835 34.2C32.1835 34.4567 32.0919 34.6705 31.9085 34.8417L29.5252 37.2433V40.6167C29.5252 40.8733 29.4366 41.0903 29.2594 41.2675C29.0821 41.4447 28.8652 41.5333 28.6085 41.5333H25.2352L22.8335 43.9167C22.6624 44.1 22.4485 44.1917 22.1919 44.1917C21.9352 44.1917 21.7213 44.1 21.5502 43.9167L19.1485 41.5333H15.7752C15.5185 41.5333 15.3016 41.4447 15.1244 41.2675C14.9471 41.0903 14.8585 40.8733 14.8585 40.6167V37.2433L12.4752 34.8417C12.2919 34.6705 12.2002 34.4567 12.2002 34.2C12.2002 33.9433 12.2919 33.7294 12.4752 33.5583L14.8585 31.1567V27.7833C14.8585 27.5267 14.9471 27.3097 15.1244 27.1325C15.3016 26.9553 15.5185 26.8667 15.7752 26.8667H19.1485ZM16.6919 28.7V31.9267L14.4185 34.2L16.6919 36.4733V39.7H19.9185L22.1919 41.9733L24.4652 39.7H27.6919V36.4733L29.9652 34.2L27.6919 31.9267V28.7H24.4652L22.1919 26.4267L19.9185 28.7H16.6919ZM22.1919 37.8667C21.5319 37.8667 20.9208 37.7017 20.3585 37.3717C19.7963 37.0417 19.3502 36.5955 19.0202 36.0333C18.6902 35.4711 18.5252 34.86 18.5252 34.2C18.5252 33.54 18.6902 32.9289 19.0202 32.3667C19.3502 31.8044 19.7963 31.3583 20.3585 31.0283C20.9208 30.6983 21.5319 30.5333 22.1919 30.5333C22.8519 30.5333 23.463 30.6983 24.0252 31.0283C24.5874 31.3583 25.0335 31.8044 25.3635 32.3667C25.6935 32.9289 25.8585 33.54 25.8585 34.2C25.8585 34.86 25.6935 35.4711 25.3635 36.0333C25.0335 36.5955 24.5874 37.0417 24.0252 37.3717C23.463 37.7017 22.8519 37.8667 22.1919 37.8667ZM22.1919 36.0333C22.693 36.0333 23.1238 35.853 23.4844 35.4925C23.8449 35.1319 24.0252 34.7011 24.0252 34.2C24.0252 33.6989 23.8449 33.268 23.4844 32.9075C23.1238 32.5469 22.693 32.3667 22.1919 32.3667C21.6908 32.3667 21.2599 32.5469 20.8994 32.9075C20.5388 33.268 20.3585 33.6989 20.3585 34.2C20.3585 34.7011 20.5388 35.1319 20.8994 35.4925C21.2599 35.853 21.6908 36.0333 22.1919 36.0333Z" fill="#636E75"/>
</g>
<defs>
<clipPath id="clip0_51_5514">
<rect width="22" height="22.4" fill="white" transform="matrix(1 0 0 -1 12.2002 45.4)"/>
</clipPath>
</defs>
</svg>
