<svg width="18" height="18" viewBox="0 0 18 18" fill="none" xmlns="http://www.w3.org/2000/svg">
<path fill-rule="evenodd" clip-rule="evenodd" d="M8.46023 11.2275C8.3212 11.2432 8.1814 11.251 8.0415 11.251H5.8668V13.0333C5.8668 13.0333 5.57126 12.9736 5.13346 12.8049C3.88166 12.3235 1.4668 10.9543 1.4668 7.55902C1.4668 5.52035 3.11973 3.86668 5.15913 3.86668H8.04113C9.8202 3.86668 11.3056 5.12472 11.6554 6.80002H13.18C13.9633 6.80011 14.7145 7.11137 15.2684 7.66531C15.8223 8.21926 16.1335 8.97053 16.1335 9.75388C16.1335 12.4228 13.9965 13.5269 12.8335 13.9298C12.399 14.0806 12.1001 14.1334 12.1001 14.1334V12.7074H11.0207C10.5014 12.7078 9.99123 12.5712 9.54166 12.3114C9.09209 12.0516 8.71905 11.6777 8.46023 11.2275ZM5.13346 10.5177V12.0118C4.7681 11.8516 4.42056 11.6535 4.09653 11.4208C3.14686 10.734 2.20013 9.56982 2.20013 7.55865C2.20023 6.77394 2.51202 6.0214 3.06693 5.46656C3.62184 4.91172 4.37442 4.60002 5.15913 4.60002H8.04113C8.79588 4.60003 9.52209 4.88845 10.0712 5.40626C10.6203 5.92407 10.9508 6.63214 10.995 7.38558C10.9688 7.89321 10.8379 8.38992 10.6105 8.8445C10.3831 9.29909 10.0641 9.70171 9.67353 10.0271C9.18975 10.3478 8.62197 10.5185 8.0415 10.5177H5.13346ZM10.111 10.6167C9.85856 10.8235 9.5841 11.0018 9.29256 11.1483C9.50056 11.4064 9.76377 11.6145 10.0628 11.7574C10.3619 11.9003 10.6892 11.9744 11.0207 11.9741H12.8335V13.1477C13.144 13.0259 13.4427 12.8755 13.7256 12.6986C14.5935 12.1504 15.4001 11.2601 15.4001 9.75388C15.4001 9.16503 15.1662 8.60028 14.7499 8.18386C14.3335 7.76744 13.7688 7.53345 13.18 7.53335H11.7335V7.55902C11.7335 8.83098 11.09 9.95262 10.111 10.6167Z" fill="#8590A5"/>
</svg>
