<svg width="53" height="53" viewBox="0 0 53 53" fill="none" xmlns="http://www.w3.org/2000/svg">
<rect width="53" height="53" rx="26.5" transform="matrix(1 0 0 -1 0 53)" fill="#60BAA1"/>
<path d="M23.6 12H29.4C31.5073 12 33.46 12.5453 35.258 13.6359C36.998 14.6868 38.3803 16.1046 39.405 17.8892C40.4683 19.7333 41 21.7361 41 23.8974C41 26.0588 40.4683 28.0615 39.405 29.9056C38.3803 31.6903 36.998 33.108 35.258 34.159C33.46 35.2496 31.5073 35.7949 29.4 35.7949V41C27.0027 40.0085 25.079 39.1559 23.629 38.4421C21.4057 37.3118 19.5207 36.1518 17.974 34.9621C16.118 33.4947 14.697 31.9183 13.711 30.2328C12.5703 28.2896 12 26.1778 12 23.8974C12 21.7361 12.5317 19.7333 13.595 17.8892C14.6197 16.1046 16.002 14.6868 17.742 13.6359C19.54 12.5453 21.4927 12 23.6 12ZM26.5 32.8205H29.4C30.966 32.8205 32.4257 32.414 33.779 31.601C35.0937 30.8079 36.1377 29.7371 36.911 28.3887C37.7037 27.0007 38.1 25.5036 38.1 23.8974C38.1 22.2913 37.7037 20.7942 36.911 19.4062C36.1377 18.0578 35.0937 16.987 33.779 16.1938C32.4257 15.3809 30.966 14.9744 29.4 14.9744H23.6C22.034 14.9744 20.5743 15.3809 19.221 16.1938C17.9063 16.987 16.8623 18.0578 16.089 19.4062C15.2963 20.7942 14.9 22.2913 14.9 23.8974C14.9 25.682 15.306 27.2882 16.118 28.7159C16.93 30.1436 18.1963 31.492 19.917 32.761C21.5603 33.9904 23.7547 35.2397 26.5 36.5087V32.8205Z" fill="white"/>
</svg>
