<svg width="53" height="53" viewBox="0 0 53 53" fill="none" xmlns="http://www.w3.org/2000/svg">
<rect width="53" height="53" rx="26.5" fill="#005F5F"/>
<path fill-rule="evenodd" clip-rule="evenodd" d="M25.6952 31.6548C25.366 31.6911 25.035 31.7092 24.7038 31.7091H19.5551V35.8338C19.5551 35.8338 18.8554 35.6955 17.8189 35.3052C14.8551 34.1911 9.13782 31.0227 9.13782 23.1654C9.13782 18.4476 13.0512 14.6208 17.8796 14.6208H24.7029C28.9149 14.6208 32.4316 17.532 33.2598 21.4089H36.8694C38.724 21.4092 40.5026 22.1294 41.8139 23.4114C43.1253 24.6933 43.862 26.4318 43.862 28.2446C43.862 34.421 38.8026 36.9759 36.049 37.9084C35.0203 38.2572 34.3128 38.3794 34.3128 38.3794V35.0795H31.7571C30.5277 35.0805 29.3199 34.7644 28.2555 34.1631C27.1911 33.5618 26.3079 32.6966 25.6952 31.6548ZM17.8189 30.0121V33.4698C16.9538 33.0991 16.131 32.6406 15.3639 32.102C13.1155 30.5127 10.874 27.8187 10.874 23.1645C10.8743 21.3486 11.6124 19.6071 12.9262 18.3231C14.24 17.0391 16.0218 16.3178 17.8796 16.3178H24.7029C26.4898 16.3178 28.2092 16.9853 29.5092 18.1836C30.8092 19.3819 31.5916 21.0204 31.6964 22.764C31.6344 23.9387 31.3244 25.0882 30.786 26.1402C30.2476 27.1922 29.4923 28.1239 28.5677 28.8768C27.4223 29.6191 26.0781 30.0141 24.7038 30.0121H17.8189ZM29.6034 30.2412C29.0058 30.7198 28.356 31.1324 27.6657 31.4716C28.1582 32.0688 28.7814 32.5504 29.4894 32.8811C30.1975 33.2118 30.9724 33.3831 31.7571 33.3824H36.049V36.0986C36.7843 35.8165 37.4914 35.4685 38.1611 35.0591C40.2159 33.7906 42.1257 31.7304 42.1257 28.2446C42.1257 26.8819 41.572 25.575 40.5862 24.6114C39.6005 23.6477 38.2635 23.1062 36.8694 23.106H33.4447V23.1654C33.4447 26.1089 31.9212 28.7045 29.6034 30.2412Z" fill="white"/>
</svg>
