<svg width="18" height="18" viewBox="0 0 18 18" fill="none" xmlns="http://www.w3.org/2000/svg">
<path fill-rule="evenodd" clip-rule="evenodd" d="M8.45999 11.4275C8.32096 11.4432 8.18116 11.451 8.04125 11.451H5.86655V13.2333C5.86655 13.2333 5.57102 13.1736 5.13322 13.0049C3.88142 12.5235 1.46655 11.1543 1.46655 7.75901C1.46655 5.72035 3.11949 4.06668 5.15889 4.06668H8.04089C9.81995 4.06668 11.3053 5.32471 11.6551 7.00001H13.1797C13.9631 7.00011 14.7143 7.31136 15.2682 7.86531C15.8221 8.41926 16.1332 9.17053 16.1332 9.95388C16.1332 12.6228 13.9963 13.7269 12.8332 14.1298C12.3987 14.2805 12.0999 14.3333 12.0999 14.3333V12.9074H11.0204C10.5012 12.9078 9.99098 12.7712 9.54141 12.5114C9.09184 12.2515 8.71881 11.8777 8.45999 11.4275ZM5.13322 10.7176V12.2118C4.76786 12.0516 4.42031 11.8535 4.09629 11.6207C3.14662 10.934 2.19989 9.76981 2.19989 7.75865C2.19998 6.97394 2.51178 6.2214 3.06669 5.66656C3.6216 5.11171 4.37417 4.80001 5.15889 4.80001H8.04089C8.79563 4.80003 9.52184 5.08844 10.0709 5.60626C10.62 6.12407 10.9505 6.83213 10.9948 7.58558C10.9686 8.0932 10.8377 8.58992 10.6102 9.0445C10.3828 9.49909 10.0638 9.9017 9.67329 10.227C9.1895 10.5478 8.62172 10.7185 8.04125 10.7176H5.13322ZM10.1107 10.8166C9.85832 11.0234 9.58386 11.2018 9.29232 11.3483C9.50031 11.6064 9.76353 11.8145 10.0626 11.9574C10.3617 12.1003 10.689 12.1744 11.0204 12.174H12.8332V13.3477C13.1438 13.2258 13.4424 13.0755 13.7253 12.8986C14.5932 12.3504 15.3999 11.4601 15.3999 9.95388C15.3999 9.36502 15.166 8.80028 14.7496 8.38386C14.3333 7.96744 13.7686 7.73344 13.1797 7.73335H11.7332V7.75901C11.7332 9.03098 11.0897 10.1526 10.1107 10.8166Z" fill="#8590A5"/>
</svg>
