<svg width="16" height="17" viewBox="0 0 16 17" fill="none" xmlns="http://www.w3.org/2000/svg">
<g clip-path="url(#clip0_51_5669)">
<path d="M10.6933 11.48L13.5467 14.3333L12.6 15.28L9.74667 12.4267C9.21333 12.8444 8.62667 13.1667 7.98667 13.3933C7.34667 13.62 6.68444 13.7333 6 13.7333C4.91556 13.7333 3.90667 13.4622 2.97333 12.92C2.06667 12.3867 1.34667 11.6667 0.813333 10.76C0.271111 9.82667 0 8.81778 0 7.73333C0 6.64889 0.271111 5.64 0.813333 4.70667C1.34667 3.8 2.06667 3.08 2.97333 2.54667C3.90667 2.00444 4.91556 1.73333 6 1.73333C7.08444 1.73333 8.09333 2.00444 9.02667 2.54667C9.93333 3.08 10.6533 3.8 11.1867 4.70667C11.7289 5.64 12 6.64889 12 7.73333C12 8.41778 11.8867 9.08 11.66 9.72C11.4333 10.36 11.1111 10.9467 10.6933 11.48ZM9.34667 10.9867C9.77333 10.5511 10.1 10.0511 10.3267 9.48667C10.5533 8.92222 10.6667 8.33778 10.6667 7.73333C10.6667 6.88889 10.4533 6.10222 10.0267 5.37333C9.61778 4.67111 9.06222 4.11555 8.36 3.70667C7.63111 3.28 6.84444 3.06666 6 3.06666C5.15556 3.06666 4.36889 3.28 3.64 3.70667C2.93778 4.11555 2.38222 4.67111 1.97333 5.37333C1.54667 6.10222 1.33333 6.88889 1.33333 7.73333C1.33333 8.57778 1.54667 9.36444 1.97333 10.0933C2.38222 10.7956 2.93778 11.3511 3.64 11.76C4.36889 12.1867 5.15556 12.4 6 12.4C6.60444 12.4 7.18889 12.2867 7.75333 12.06C8.31778 11.8333 8.81778 11.5067 9.25333 11.08L9.34667 10.9867Z" fill="#74788D"/>
</g>
<defs>
<clipPath id="clip0_51_5669">
<rect width="16" height="16" fill="white" transform="matrix(1 0 0 -1 0 16.4)"/>
</clipPath>
</defs>
</svg>
