<svg width="37" height="30" viewBox="0 0 37 30" fill="none" xmlns="http://www.w3.org/2000/svg">
<rect width="36" height="29" transform="translate(0.799805 0.0998535)" fill="#F0F0F0"/>
<g clip-path="url(#clip0_95_2129)">
<path d="M18.7998 6.59985C17.6956 6.59985 16.6566 6.80819 15.6826 7.22485C14.7087 7.64152 13.8597 8.21183 13.1357 8.93579C12.4118 9.65975 11.8415 10.5087 11.4248 11.4827C11.0081 12.4566 10.7998 13.4957 10.7998 14.5999C10.7998 15.704 11.0081 16.7431 11.4248 17.717C11.8415 18.691 12.4118 19.54 13.1357 20.2639C13.8597 20.9879 14.7087 21.5582 15.6826 21.9749C16.6566 22.3915 17.6956 22.5999 18.7998 22.5999C19.904 22.5999 20.943 22.3915 21.917 21.9749C22.891 21.5582 23.7399 20.9879 24.4639 20.2639C25.1878 19.54 25.7581 18.691 26.1748 17.717C26.5915 16.7431 26.7998 15.704 26.7998 14.5999C26.7998 13.4957 26.5915 12.4566 26.1748 11.4827C25.7581 10.5087 25.1878 9.65975 24.4639 8.93579C23.7399 8.21183 22.891 7.64152 21.917 7.22485C20.943 6.80819 19.904 6.59985 18.7998 6.59985ZM18.7998 21.3499C17.8727 21.3499 16.9977 21.1728 16.1748 20.8186C15.3519 20.4644 14.6357 19.9827 14.0264 19.3733C13.417 18.7639 12.9352 18.0478 12.5811 17.2249C12.2269 16.4019 12.0498 15.5269 12.0498 14.5999C12.0498 13.6728 12.2269 12.7978 12.5811 11.9749C12.9352 11.1519 13.417 10.4358 14.0264 9.82642C14.6357 9.21704 15.3519 8.73527 16.1748 8.3811C16.9977 8.02694 17.8727 7.84985 18.7998 7.84985C19.7269 7.84985 20.6019 8.02694 21.4248 8.3811C22.2477 8.73527 22.9639 9.21704 23.5732 9.82642C24.1826 10.4358 24.6644 11.1519 25.0186 11.9749C25.3727 12.7978 25.5498 13.6728 25.5498 14.5999C25.5498 15.5269 25.3727 16.4019 25.0186 17.2249C24.6644 18.0478 24.1826 18.7639 23.5732 19.3733C22.9639 19.9827 22.2477 20.4644 21.4248 20.8186C20.6019 21.1728 19.7269 21.3499 18.7998 21.3499ZM16.7998 11.5999C16.7998 11.8811 16.7035 12.1181 16.5107 12.3108C16.318 12.5035 16.0811 12.5999 15.7998 12.5999C15.5186 12.5999 15.2816 12.5035 15.0889 12.3108C14.8962 12.1181 14.7998 11.8811 14.7998 11.5999C14.7998 11.3186 14.8962 11.0816 15.0889 10.8889C15.2816 10.6962 15.5186 10.5999 15.7998 10.5999C16.0811 10.5999 16.318 10.6962 16.5107 10.8889C16.7035 11.0816 16.7998 11.3186 16.7998 11.5999ZM22.7998 11.5999C22.7998 11.8811 22.7035 12.1181 22.5107 12.3108C22.318 12.5035 22.0811 12.5999 21.7998 12.5999C21.5186 12.5999 21.2816 12.5035 21.0889 12.3108C20.8962 12.1181 20.7998 11.8811 20.7998 11.5999C20.7998 11.3186 20.8962 11.0816 21.0889 10.8889C21.2816 10.6962 21.5186 10.5999 21.7998 10.5999C22.0811 10.5999 22.318 10.6962 22.5107 10.8889C22.7035 11.0816 22.7998 11.3186 22.7998 11.5999ZM18.7998 16.7874C19.3519 16.7874 19.8805 16.7353 20.3857 16.6311C20.891 16.5269 21.3571 16.3863 21.7842 16.2092C22.2113 16.0321 22.5967 15.8264 22.9404 15.592C23.2842 15.3577 23.5602 15.1155 23.7686 14.8655C23.6956 15.5321 23.5133 16.1545 23.2217 16.7327C22.93 17.3108 22.5628 17.8108 22.1201 18.2327C21.6774 18.6545 21.1722 18.9879 20.6045 19.2327C20.0368 19.4775 19.4352 19.5999 18.7998 19.5999C18.1644 19.5999 17.5628 19.4775 16.9951 19.2327C16.4274 18.9879 15.9222 18.6545 15.4795 18.2327C15.0368 17.8108 14.6696 17.3108 14.3779 16.7327C14.0863 16.1545 13.904 15.5321 13.8311 14.8655C14.0394 15.1155 14.3154 15.3577 14.6592 15.592C15.0029 15.8264 15.3883 16.0321 15.8154 16.2092C16.2425 16.3863 16.7087 16.5269 17.2139 16.6311C17.7191 16.7353 18.2477 16.7874 18.7998 16.7874Z" fill="#333333"/>
</g>
<defs>
<clipPath id="clip0_95_2129">
<rect width="16" height="16" fill="white" transform="matrix(1 0 0 -1 10.7998 22.5999)"/>
</clipPath>
</defs>
</svg>
