<svg width="37" height="30" viewBox="0 0 37 30" fill="none" xmlns="http://www.w3.org/2000/svg">
<rect width="36" height="29" transform="translate(0.799805 0.899902)" fill="#F0F0F0"/>
<g clip-path="url(#clip0_68_1224)">
<path d="M18.7998 7.3999C17.6956 7.3999 16.6566 7.60824 15.6826 8.0249C14.7087 8.44157 13.8597 9.01188 13.1357 9.73584C12.4118 10.4598 11.8415 11.3088 11.4248 12.2827C11.0081 13.2567 10.7998 14.2957 10.7998 15.3999C10.7998 16.5041 11.0081 17.5431 11.4248 18.5171C11.8415 19.491 12.4118 20.34 13.1357 21.064C13.8597 21.7879 14.7087 22.3582 15.6826 22.7749C16.6566 23.1916 17.6956 23.3999 18.7998 23.3999C19.904 23.3999 20.943 23.1916 21.917 22.7749C22.891 22.3582 23.7399 21.7879 24.4639 21.064C25.1878 20.34 25.7581 19.491 26.1748 18.5171C26.5915 17.5431 26.7998 16.5041 26.7998 15.3999C26.7998 14.2957 26.5915 13.2567 26.1748 12.2827C25.7581 11.3088 25.1878 10.4598 24.4639 9.73584C23.7399 9.01188 22.891 8.44157 21.917 8.0249C20.943 7.60824 19.904 7.3999 18.7998 7.3999ZM18.7998 22.1499C17.8727 22.1499 16.9977 21.9728 16.1748 21.6187C15.3519 21.2645 14.6357 20.7827 14.0264 20.1733C13.417 19.564 12.9352 18.8478 12.5811 18.0249C12.2269 17.202 12.0498 16.327 12.0498 15.3999C12.0498 14.4728 12.2269 13.5978 12.5811 12.7749C12.9352 11.952 13.417 11.2358 14.0264 10.6265C14.6357 10.0171 15.3519 9.53532 16.1748 9.18115C16.9977 8.82699 17.8727 8.6499 18.7998 8.6499C19.7269 8.6499 20.6019 8.82699 21.4248 9.18115C22.2477 9.53532 22.9639 10.0171 23.5732 10.6265C24.1826 11.2358 24.6644 11.952 25.0186 12.7749C25.3727 13.5978 25.5498 14.4728 25.5498 15.3999C25.5498 16.327 25.3727 17.202 25.0186 18.0249C24.6644 18.8478 24.1826 19.564 23.5732 20.1733C22.9639 20.7827 22.2477 21.2645 21.4248 21.6187C20.6019 21.9728 19.7269 22.1499 18.7998 22.1499ZM16.7998 12.3999C16.7998 12.6812 16.7035 12.9181 16.5107 13.1108C16.318 13.3035 16.0811 13.3999 15.7998 13.3999C15.5186 13.3999 15.2816 13.3035 15.0889 13.1108C14.8962 12.9181 14.7998 12.6812 14.7998 12.3999C14.7998 12.1187 14.8962 11.8817 15.0889 11.689C15.2816 11.4963 15.5186 11.3999 15.7998 11.3999C16.0811 11.3999 16.318 11.4963 16.5107 11.689C16.7035 11.8817 16.7998 12.1187 16.7998 12.3999ZM22.7998 12.3999C22.7998 12.6812 22.7035 12.9181 22.5107 13.1108C22.318 13.3035 22.0811 13.3999 21.7998 13.3999C21.5186 13.3999 21.2816 13.3035 21.0889 13.1108C20.8962 12.9181 20.7998 12.6812 20.7998 12.3999C20.7998 12.1187 20.8962 11.8817 21.0889 11.689C21.2816 11.4963 21.5186 11.3999 21.7998 11.3999C22.0811 11.3999 22.318 11.4963 22.5107 11.689C22.7035 11.8817 22.7998 12.1187 22.7998 12.3999ZM18.7998 17.5874C19.3519 17.5874 19.8805 17.5353 20.3857 17.4312C20.891 17.327 21.3571 17.1864 21.7842 17.0093C22.2113 16.8322 22.5967 16.6265 22.9404 16.3921C23.2842 16.1577 23.5602 15.9155 23.7686 15.6655C23.6956 16.3322 23.5133 16.9546 23.2217 17.5327C22.93 18.1108 22.5628 18.6108 22.1201 19.0327C21.6774 19.4546 21.1722 19.7879 20.6045 20.0327C20.0368 20.2775 19.4352 20.3999 18.7998 20.3999C18.1644 20.3999 17.5628 20.2775 16.9951 20.0327C16.4274 19.7879 15.9222 19.4546 15.4795 19.0327C15.0368 18.6108 14.6696 18.1108 14.3779 17.5327C14.0863 16.9546 13.904 16.3322 13.8311 15.6655C14.0394 15.9155 14.3154 16.1577 14.6592 16.3921C15.0029 16.6265 15.3883 16.8322 15.8154 17.0093C16.2425 17.1864 16.7087 17.327 17.2139 17.4312C17.7191 17.5353 18.2477 17.5874 18.7998 17.5874Z" fill="#333333"/>
</g>
<defs>
<clipPath id="clip0_68_1224">
<rect width="16" height="16" fill="white" transform="matrix(1 0 0 -1 10.7998 23.3999)"/>
</clipPath>
</defs>
</svg>
