<svg width="56" height="70" viewBox="0 0 56 70" fill="none" xmlns="http://www.w3.org/2000/svg">
<path d="M16 28.4902C16 27.9379 16.4477 27.4902 17 27.4902H33C33.5523 27.4902 34 27.9379 34 28.4902C34 29.0425 33.5523 29.4902 33 29.4902H17C16.4477 29.4902 16 29.0425 16 28.4902ZM16 35.4902C16 34.9379 16.4477 34.4902 17 34.4902H27C27.5523 34.4902 28 34.9379 28 35.4902C28 36.0425 27.5523 36.4902 27 36.4902H17C16.4477 36.4902 16 36.0425 16 35.4902ZM16 42.4902C16 41.9379 16.4477 41.4902 17 41.4902H33C33.5523 41.4902 34 41.9379 34 42.4902C34 43.0425 33.5523 43.4902 33 43.4902H17C16.4477 43.4902 16 43.0425 16 42.4902Z" fill="#636E75"/>
</svg>
