<svg width="37" height="30" viewBox="0 0 37 30" fill="none" xmlns="http://www.w3.org/2000/svg">
<rect width="36" height="29" transform="translate(0.799805 0.0996094)" fill="#F0F0F0"/>
<g clip-path="url(#clip0_84_927)">
<path d="M18.7998 6.59961C17.6956 6.59961 16.6566 6.80794 15.6826 7.22461C14.7087 7.64128 13.8597 8.21159 13.1357 8.93555C12.4118 9.6595 11.8415 10.5085 11.4248 11.4824C11.0081 12.4564 10.7998 13.4954 10.7998 14.5996C10.7998 15.7038 11.0081 16.7428 11.4248 17.7168C11.8415 18.6908 12.4118 19.5397 13.1357 20.2637C13.8597 20.9876 14.7087 21.5579 15.6826 21.9746C16.6566 22.3913 17.6956 22.5996 18.7998 22.5996C19.904 22.5996 20.943 22.3913 21.917 21.9746C22.891 21.5579 23.7399 20.9876 24.4639 20.2637C25.1878 19.5397 25.7581 18.6908 26.1748 17.7168C26.5915 16.7428 26.7998 15.7038 26.7998 14.5996C26.7998 13.4954 26.5915 12.4564 26.1748 11.4824C25.7581 10.5085 25.1878 9.6595 24.4639 8.93555C23.7399 8.21159 22.891 7.64128 21.917 7.22461C20.943 6.80794 19.904 6.59961 18.7998 6.59961ZM18.7998 21.3496C17.8727 21.3496 16.9977 21.1725 16.1748 20.8184C15.3519 20.4642 14.6357 19.9824 14.0264 19.373C13.417 18.7637 12.9352 18.0475 12.5811 17.2246C12.2269 16.4017 12.0498 15.5267 12.0498 14.5996C12.0498 13.6725 12.2269 12.7975 12.5811 11.9746C12.9352 11.1517 13.417 10.4355 14.0264 9.82617C14.6357 9.2168 15.3519 8.73503 16.1748 8.38086C16.9977 8.02669 17.8727 7.84961 18.7998 7.84961C19.7269 7.84961 20.6019 8.02669 21.4248 8.38086C22.2477 8.73503 22.9639 9.2168 23.5732 9.82617C24.1826 10.4355 24.6644 11.1517 25.0186 11.9746C25.3727 12.7975 25.5498 13.6725 25.5498 14.5996C25.5498 15.5267 25.3727 16.4017 25.0186 17.2246C24.6644 18.0475 24.1826 18.7637 23.5732 19.373C22.9639 19.9824 22.2477 20.4642 21.4248 20.8184C20.6019 21.1725 19.7269 21.3496 18.7998 21.3496ZM16.7998 11.5996C16.7998 11.8809 16.7035 12.1178 16.5107 12.3105C16.318 12.5033 16.0811 12.5996 15.7998 12.5996C15.5186 12.5996 15.2816 12.5033 15.0889 12.3105C14.8962 12.1178 14.7998 11.8809 14.7998 11.5996C14.7998 11.3184 14.8962 11.0814 15.0889 10.8887C15.2816 10.696 15.5186 10.5996 15.7998 10.5996C16.0811 10.5996 16.318 10.696 16.5107 10.8887C16.7035 11.0814 16.7998 11.3184 16.7998 11.5996ZM22.7998 11.5996C22.7998 11.8809 22.7035 12.1178 22.5107 12.3105C22.318 12.5033 22.0811 12.5996 21.7998 12.5996C21.5186 12.5996 21.2816 12.5033 21.0889 12.3105C20.8962 12.1178 20.7998 11.8809 20.7998 11.5996C20.7998 11.3184 20.8962 11.0814 21.0889 10.8887C21.2816 10.696 21.5186 10.5996 21.7998 10.5996C22.0811 10.5996 22.318 10.696 22.5107 10.8887C22.7035 11.0814 22.7998 11.3184 22.7998 11.5996ZM18.7998 16.7871C19.3519 16.7871 19.8805 16.735 20.3857 16.6309C20.891 16.5267 21.3571 16.3861 21.7842 16.209C22.2113 16.0319 22.5967 15.8262 22.9404 15.5918C23.2842 15.3574 23.5602 15.1152 23.7686 14.8652C23.6956 15.5319 23.5133 16.1543 23.2217 16.7324C22.93 17.3105 22.5628 17.8105 22.1201 18.2324C21.6774 18.6543 21.1722 18.9876 20.6045 19.2324C20.0368 19.4772 19.4352 19.5996 18.7998 19.5996C18.1644 19.5996 17.5628 19.4772 16.9951 19.2324C16.4274 18.9876 15.9222 18.6543 15.4795 18.2324C15.0368 17.8105 14.6696 17.3105 14.3779 16.7324C14.0863 16.1543 13.904 15.5319 13.8311 14.8652C14.0394 15.1152 14.3154 15.3574 14.6592 15.5918C15.0029 15.8262 15.3883 16.0319 15.8154 16.209C16.2425 16.3861 16.7087 16.5267 17.2139 16.6309C17.7191 16.735 18.2477 16.7871 18.7998 16.7871Z" fill="#333333"/>
</g>
<defs>
<clipPath id="clip0_84_927">
<rect width="16" height="16" fill="white" transform="matrix(1 0 0 -1 10.7998 22.5996)"/>
</clipPath>
</defs>
</svg>
