<svg width="102" height="21" viewBox="0 0 102 21" fill="none" xmlns="http://www.w3.org/2000/svg">
<path d="M41.4383 10.2404C39.0195 15.4836 37.0062 19.8577 36.9773 19.9591C36.9193 20.1039 37.2525 20.1329 38.5415 20.1039L40.1782 20.0605L43.0025 13.8469L45.8269 7.63333L46.0876 8.1982C46.2469 8.50236 47.5215 11.2977 48.9264 14.4118L51.5046 20.0605L53.1412 20.1039C54.4303 20.1329 54.7634 20.1039 54.7055 19.9591C54.662 19.8577 52.7647 15.7298 50.4762 10.7908C48.1878 5.85182 46.2035 1.5646 46.0731 1.26044L45.8414 0.710056L41.4383 10.2404Z" fill="white"/>
<path d="M28.9532 1.65141C25.4191 2.63631 23.8259 6.38763 25.8247 9.0092C26.4475 9.83478 27.2876 10.4431 29.3732 11.6163C32.5017 13.3833 33.4722 14.2813 33.4866 15.4835C33.5011 16.367 33.0811 16.9463 32.1107 17.4388C30.5175 18.2354 28.0697 17.9168 26.6937 16.7291C26.3606 16.4539 26.0709 16.2222 26.0275 16.2222C25.9985 16.2222 25.593 16.7146 25.1295 17.3229L24.3039 18.4237L24.7963 18.9306C25.3612 19.5245 26.9979 20.3356 28.0697 20.5528C29.1705 20.7846 31.2272 20.7556 32.2266 20.4949C34.066 20.0169 35.4854 18.8148 36.0648 17.265C36.4558 16.2366 36.4269 14.2813 36.0068 13.4847C35.3261 12.1812 33.7474 10.95 30.6623 9.25543C28.2 7.92291 27.6207 7.27114 27.8814 6.06898C28.1131 5.01166 29.7643 4.0847 31.1548 4.24402C31.9948 4.34541 32.9652 4.75095 33.4287 5.21444C33.617 5.38824 33.7908 5.50411 33.8343 5.46066C33.8632 5.43169 34.2543 4.92476 34.7033 4.33092L35.4999 3.25912L35.0219 2.83909C33.6315 1.65141 30.923 1.11551 28.9532 1.65141Z" fill="white"/>
<path d="M0 11.1528V20.1328H5.14176H10.2835V18.6844V17.236H6.59015H2.89677V9.70445V2.17285H1.44838H0V11.1528Z" fill="white"/>
<path d="M12.6009 3.6212V5.06958H17.7427H22.8844V3.6212V2.17281H17.7427H12.6009V3.6212Z" fill="white"/>
<path d="M94.2029 2.96951C93.7105 3.0709 92.9863 3.33161 92.5952 3.53438C91.7262 3.96889 90.7268 5.05518 90.524 5.77937C90.2778 6.69186 90.3502 7.8216 90.7268 8.61821C91.3351 9.93624 92.5373 10.6604 95.6947 11.6019C98.2294 12.3695 99.3157 12.8475 100.141 13.6151C100.952 14.3683 101.3 15.2084 101.213 16.2657C101.126 17.3085 100.706 18.0617 99.8516 18.7134C98.7363 19.568 97.9832 19.7708 95.9555 19.7708C94.5071 19.7563 94.087 19.6983 93.4063 19.4376C91.6827 18.7569 90.7702 17.743 90.4661 16.1933C90.3502 15.527 90.2633 15.3532 90.0316 15.3532C89.7853 15.3532 89.7709 15.4256 89.8578 16.1064C90.1474 18.2644 91.6248 19.6549 94.2464 20.2053C95.492 20.466 96.5638 20.4805 97.7804 20.2198C99.6488 19.8142 100.851 18.9597 101.503 17.5403C101.807 16.8885 101.85 16.6133 101.792 15.7298C101.633 13.3834 100.199 12.1523 96.3175 11.037C92.2621 9.86382 91.1034 8.99479 90.9875 7.03947C90.944 6.31528 91.002 6.04008 91.2772 5.50418C91.9724 4.20064 93.8408 3.33161 95.9555 3.33161C98.5625 3.33161 100.518 4.75102 100.981 6.96705C101.126 7.64779 101.213 7.8216 101.43 7.8216C101.677 7.8216 101.706 7.74918 101.604 7.12637C101.126 3.93993 97.9397 2.15841 94.2029 2.96951Z" fill="white"/>
<path d="M57.9354 11.5873V20.1328H62.6426C67.2485 20.1328 67.3499 20.1328 67.3499 19.8431C67.3499 19.5535 67.2485 19.5535 62.9323 19.5535H58.5147V11.2977C58.5147 3.14327 58.5147 3.04188 58.225 3.04188C57.9354 3.04188 57.9354 3.14327 57.9354 11.5873Z" fill="white"/>
<path d="M70.3915 11.5873C70.3915 20.0314 70.3915 20.1328 70.6812 20.1328C70.9708 20.1328 70.9708 20.0314 70.9708 12.1522C70.9708 7.7781 71.0288 4.21507 71.0867 4.25852C71.1446 4.28749 72.7523 7.87948 74.6642 12.2246C77.1699 17.9313 78.1983 20.1328 78.3576 20.1328C78.5314 20.1328 79.5742 17.8878 82.1379 12.0653L85.6719 4.0123L85.7154 12.0653C85.7443 20.0169 85.7443 20.1328 86.034 20.1328C86.3237 20.1328 86.3237 20.0314 86.3237 11.5729V3.0274L85.8602 3.07085L85.3967 3.1143L81.9206 11.1094C79.9943 15.5125 78.401 19.1189 78.3576 19.1189C78.3141 19.1189 76.7209 15.498 74.809 11.0804L71.3329 3.05636L70.8694 3.04188H70.3915V11.5873Z" fill="white"/>
<path d="M12.6009 11.1527V12.6011H17.8151H23.0293V11.1527V9.70431H17.8151H12.6009V11.1527Z" fill="white"/>
<path d="M44.0309 15.2806V17.0911H45.8413H47.6518V15.2806V13.4701H45.8413H44.0309V15.2806Z" fill="white"/>
<path d="M12.6009 18.6844V20.1328H17.7427H22.8844V18.6844V17.236H17.7427H12.6009V18.6844Z" fill="white"/>
</svg>
