<svg width="102" height="21" viewBox="0 0 102 21" fill="none" xmlns="http://www.w3.org/2000/svg">
<path d="M41.4382 10.2407C39.0194 15.4838 37.0061 19.8579 36.9772 19.9593C36.9192 20.1042 37.2524 20.1331 38.5414 20.1042L40.1781 20.0607L43.0025 13.8471L45.8268 7.63358L46.0875 8.19845C46.2468 8.50261 47.5214 11.298 48.9263 14.412L51.5045 20.0607L53.1411 20.1042C54.4302 20.1331 54.7633 20.1042 54.7054 19.9593C54.6619 19.8579 52.7646 15.73 50.4761 10.7911C48.1877 5.85206 46.2034 1.56485 46.073 1.26069L45.8413 0.7103L41.4382 10.2407Z" fill="white"/>
<path d="M28.9533 1.65141C25.4192 2.63631 23.826 6.38763 25.8248 9.0092C26.4476 9.83478 27.2876 10.4431 29.3733 11.6163C32.5018 13.3833 33.4722 14.2813 33.4867 15.4835C33.5012 16.367 33.0812 16.9463 32.1107 17.4388C30.5175 18.2354 28.0698 17.9168 26.6938 16.7291C26.3607 16.4539 26.071 16.2222 26.0275 16.2222C25.9986 16.2222 25.593 16.7146 25.1295 17.3229L24.304 18.4237L24.7964 18.9306C25.3613 19.5245 26.9979 20.3356 28.0698 20.5528C29.1705 20.7846 31.2272 20.7556 32.2266 20.4949C34.0661 20.0169 35.4855 18.8148 36.0648 17.265C36.4559 16.2366 36.4269 14.2813 36.0069 13.4847C35.3262 12.1812 33.7474 10.95 30.6624 9.25543C28.2001 7.92291 27.6208 7.27114 27.8815 6.06898C28.1132 5.01166 29.7644 4.0847 31.1548 4.24402C31.9949 4.34541 32.9653 4.75095 33.4288 5.21444C33.6171 5.38824 33.7909 5.50411 33.8343 5.46066C33.8633 5.43169 34.2544 4.92476 34.7034 4.33092L35.5 3.25912L35.022 2.83909C33.6315 1.65141 30.9231 1.11551 28.9533 1.65141Z" fill="white"/>
<path d="M0 11.1528V20.1328H5.14176H10.2835V18.6844V17.236H6.59015H2.89677V9.70445V2.17285H1.44838H0V11.1528Z" fill="white"/>
<path d="M12.6008 3.62095V5.06934H17.7426H22.8844V3.62095V2.17257H17.7426H12.6008V3.62095Z" fill="white"/>
<path d="M94.2029 2.96951C93.7104 3.0709 92.9862 3.33161 92.5952 3.53438C91.7261 3.96889 90.7268 5.05518 90.524 5.77937C90.2778 6.69186 90.3502 7.8216 90.7268 8.61821C91.3351 9.93624 92.5372 10.6604 95.6947 11.6019C98.2294 12.3695 99.3157 12.8475 100.141 13.6151C100.952 14.3683 101.3 15.2084 101.213 16.2657C101.126 17.3085 100.706 18.0617 99.8516 18.7134C98.7363 19.568 97.9832 19.7708 95.9554 19.7708C94.507 19.7563 94.087 19.6983 93.4063 19.4376C91.6827 18.7569 90.7702 17.743 90.466 16.1933C90.3502 15.527 90.2633 15.3532 90.0315 15.3532C89.7853 15.3532 89.7708 15.4256 89.8577 16.1064C90.1474 18.2644 91.6248 19.6549 94.2463 20.2053C95.4919 20.466 96.5637 20.4805 97.7804 20.2198C99.6488 19.8142 100.851 18.9597 101.503 17.5403C101.807 16.8885 101.85 16.6133 101.792 15.7298C101.633 13.3834 100.199 12.1523 96.3175 11.037C92.262 9.86382 91.1033 8.99479 90.9875 7.03947C90.944 6.31528 91.0019 6.04008 91.2771 5.50418C91.9724 4.20064 93.8408 3.33161 95.9554 3.33161C98.5625 3.33161 100.518 4.75102 100.981 6.96705C101.126 7.64779 101.213 7.8216 101.43 7.8216C101.677 7.8216 101.706 7.74918 101.604 7.12637C101.126 3.93993 97.9397 2.15841 94.2029 2.96951Z" fill="white"/>
<path d="M57.9353 11.5873V20.1328H62.6425C67.2484 20.1328 67.3498 20.1328 67.3498 19.8431C67.3498 19.5535 67.2484 19.5535 62.9322 19.5535H58.5147V11.2977C58.5147 3.14327 58.5147 3.04188 58.225 3.04188C57.9353 3.04188 57.9353 3.14327 57.9353 11.5873Z" fill="white"/>
<path d="M70.3914 11.5873C70.3914 20.0314 70.3914 20.1328 70.681 20.1328C70.9707 20.1328 70.9707 20.0314 70.9707 12.1522C70.9707 7.7781 71.0286 4.21507 71.0866 4.25852C71.1445 4.28749 72.7522 7.87948 74.6641 12.2246C77.1698 17.9313 78.1981 20.1328 78.3575 20.1328C78.5313 20.1328 79.5741 17.8878 82.1377 12.0653L85.6718 4.0123L85.7153 12.0653C85.7442 20.0169 85.7442 20.1328 86.0339 20.1328C86.3236 20.1328 86.3236 20.0314 86.3236 11.5729V3.0274L85.8601 3.07085L85.3966 3.1143L81.9205 11.1094C79.9941 15.5125 78.4009 19.1189 78.3575 19.1189C78.314 19.1189 76.7208 15.498 74.8089 11.0804L71.3328 3.05636L70.8693 3.04188H70.3914V11.5873Z" fill="white"/>
<path d="M12.6008 11.1532V12.6016H17.815H23.0292V11.1532V9.70479H17.815H12.6008V11.1532Z" fill="white"/>
<path d="M44.0308 15.2803V17.0908H45.8412H47.6517V15.2803V13.4699H45.8412H44.0308V15.2803Z" fill="white"/>
<path d="M12.6008 18.6844V20.1328H17.7426H22.8844V18.6844V17.236H17.7426H12.6008V18.6844Z" fill="white"/>
</svg>
