<svg width="18" height="19" viewBox="0 0 18 19" fill="none" xmlns="http://www.w3.org/2000/svg">
<path d="M13.1998 17.3004H4.3998C4.10816 17.3001 3.82854 17.1841 3.62231 16.9779C3.41608 16.7717 3.3001 16.492 3.2998 16.2004V3.00039C3.3001 2.70874 3.41608 2.42912 3.62231 2.22289C3.82854 2.01667 4.10816 1.90068 4.3998 1.90039H13.1998C13.4915 1.90068 13.7711 2.01667 13.9773 2.22289C14.1835 2.42912 14.2995 2.70874 14.2998 3.00039V12.1403L11.5498 10.7653L8.7998 12.1403V3.00039H4.3998V16.2004H13.1998V14.0004H14.2998V16.2004C14.2994 16.492 14.1833 16.7715 13.9771 16.9777C13.7709 17.1839 13.4914 17.3 13.1998 17.3004ZM11.5498 9.53549L13.1998 10.3605V3.00039H9.89981V10.3605L11.5498 9.53549Z" fill="#D7E4EC"/>
</svg>
