<svg width="18" height="19" viewBox="0 0 18 19" fill="none" xmlns="http://www.w3.org/2000/svg">
<path d="M13.2 17.2994H4.40005C4.1084 17.2991 3.82878 17.1831 3.62255 16.9769C3.41633 16.7707 3.30034 16.4911 3.30005 16.1994V2.99941C3.30034 2.70777 3.41633 2.42815 3.62255 2.22192C3.82878 2.01569 4.1084 1.89971 4.40005 1.89941H13.2C13.4917 1.89971 13.7713 2.01569 13.9775 2.22192C14.1838 2.42815 14.2998 2.70777 14.3 2.99941V12.1393L11.55 10.7643L8.80005 12.1393V2.99941H4.40005V16.1994H13.2V13.9994H14.3V16.1994C14.2996 16.491 14.1836 16.7706 13.9774 16.9768C13.7712 17.1829 13.4917 17.299 13.2 17.2994ZM11.55 9.53451L13.2 10.3595V2.99941H9.90005V10.3595L11.55 9.53451Z" fill="#D7E4EC"/>
</svg>
