<svg width="18" height="19" viewBox="0 0 18 19" fill="none" xmlns="http://www.w3.org/2000/svg">
<path d="M13.1998 17.3001H4.3998C4.10816 17.2999 3.82854 17.1839 3.62231 16.9776C3.41608 16.7714 3.3001 16.4918 3.2998 16.2001V3.00015C3.3001 2.7085 3.41608 2.42888 3.62231 2.22265C3.82854 2.01642 4.10816 1.90044 4.3998 1.90015H13.1998C13.4915 1.90044 13.7711 2.01642 13.9773 2.22265C14.1835 2.42888 14.2995 2.7085 14.2998 3.00015V12.14L11.5498 10.765L8.7998 12.14V3.00015H4.3998V16.2001H13.1998V14.0001H14.2998V16.2001C14.2994 16.4918 14.1833 16.7713 13.9771 16.9775C13.7709 17.1837 13.4914 17.2997 13.1998 17.3001ZM11.5498 9.53525L13.1998 10.3602V3.00015H9.89981V10.3602L11.5498 9.53525Z" fill="#D7E4EC"/>
</svg>
