<svg width="18" height="19" viewBox="0 0 18 19" fill="none" xmlns="http://www.w3.org/2000/svg">
<path d="M13.2 17.3001H4.40005C4.1084 17.2999 3.82878 17.1839 3.62255 16.9776C3.41633 16.7714 3.30034 16.4918 3.30005 16.2001V3.00015C3.30034 2.7085 3.41633 2.42888 3.62255 2.22265C3.82878 2.01642 4.1084 1.90044 4.40005 1.90015H13.2C13.4917 1.90044 13.7713 2.01642 13.9775 2.22265C14.1838 2.42888 14.2998 2.7085 14.3 3.00015V12.14L11.55 10.765L8.80005 12.14V3.00015H4.40005V16.2001H13.2V14.0001H14.3V16.2001C14.2996 16.4918 14.1836 16.7713 13.9774 16.9775C13.7712 17.1837 13.4917 17.2997 13.2 17.3001ZM11.55 9.53525L13.2 10.3602V3.00015H9.90005V10.3602L11.55 9.53525Z" fill="#D7E4EC"/>
</svg>
