<svg width="18" height="19" viewBox="0 0 18 19" fill="none" xmlns="http://www.w3.org/2000/svg">
<path d="M13.2 17.3004H4.40005C4.1084 17.3001 3.82878 17.1841 3.62255 16.9779C3.41633 16.7717 3.30034 16.492 3.30005 16.2004V3.00039C3.30034 2.70874 3.41633 2.42912 3.62255 2.22289C3.82878 2.01667 4.1084 1.90068 4.40005 1.90039H13.2C13.4917 1.90068 13.7713 2.01667 13.9775 2.22289C14.1838 2.42912 14.2998 2.70874 14.3 3.00039V12.1403L11.55 10.7653L8.80005 12.1403V3.00039H4.40005V16.2004H13.2V14.0004H14.3V16.2004C14.2996 16.492 14.1836 16.7715 13.9774 16.9777C13.7712 17.1839 13.4917 17.3 13.2 17.3004ZM11.55 9.53549L13.2 10.3605V3.00039H9.90005V10.3605L11.55 9.53549Z" fill="#D7E4EC"/>
</svg>
