<svg width="47" height="70" viewBox="0 0 47 70" fill="none" xmlns="http://www.w3.org/2000/svg">
<g clip-path="url(#clip0_44_340)">
<path d="M19.1485 26.8674L21.5502 24.4841C21.7213 24.3007 21.9352 24.2091 22.1919 24.2091C22.4485 24.2091 22.6624 24.3007 22.8335 24.4841L25.2352 26.8674H28.6085C28.8652 26.8674 29.0821 26.956 29.2594 27.1332C29.4366 27.3104 29.5252 27.5274 29.5252 27.784V31.1574L31.9085 33.559C32.0919 33.7302 32.1835 33.944 32.1835 34.2007C32.1835 34.4574 32.0919 34.6713 31.9085 34.8424L29.5252 37.244V40.6174C29.5252 40.874 29.4366 41.091 29.2594 41.2682C29.0821 41.4454 28.8652 41.534 28.6085 41.534H25.2352L22.8335 43.9174C22.6624 44.1007 22.4485 44.1924 22.1919 44.1924C21.9352 44.1924 21.7213 44.1007 21.5502 43.9174L19.1485 41.534H15.7752C15.5185 41.534 15.3016 41.4454 15.1244 41.2682C14.9471 41.091 14.8585 40.874 14.8585 40.6174V37.244L12.4752 34.8424C12.2919 34.6713 12.2002 34.4574 12.2002 34.2007C12.2002 33.944 12.2919 33.7302 12.4752 33.559L14.8585 31.1574V27.784C14.8585 27.5274 14.9471 27.3104 15.1244 27.1332C15.3016 26.956 15.5185 26.8674 15.7752 26.8674H19.1485ZM16.6919 28.7007V31.9274L14.4185 34.2007L16.6919 36.474V39.7007H19.9185L22.1919 41.974L24.4652 39.7007H27.6919V36.474L29.9652 34.2007L27.6919 31.9274V28.7007H24.4652L22.1919 26.4274L19.9185 28.7007H16.6919ZM22.1919 37.8674C21.5319 37.8674 20.9208 37.7024 20.3585 37.3724C19.7963 37.0424 19.3502 36.5963 19.0202 36.034C18.6902 35.4718 18.5252 34.8607 18.5252 34.2007C18.5252 33.5407 18.6902 32.9296 19.0202 32.3674C19.3502 31.8052 19.7963 31.359 20.3585 31.029C20.9208 30.699 21.5319 30.534 22.1919 30.534C22.8519 30.534 23.463 30.699 24.0252 31.029C24.5874 31.359 25.0335 31.8052 25.3635 32.3674C25.6935 32.9296 25.8585 33.5407 25.8585 34.2007C25.8585 34.8607 25.6935 35.4718 25.3635 36.034C25.0335 36.5963 24.5874 37.0424 24.0252 37.3724C23.463 37.7024 22.8519 37.8674 22.1919 37.8674ZM22.1919 36.034C22.693 36.034 23.1238 35.8538 23.4844 35.4932C23.8449 35.1327 24.0252 34.7018 24.0252 34.2007C24.0252 33.6996 23.8449 33.2688 23.4844 32.9082C23.1238 32.5477 22.693 32.3674 22.1919 32.3674C21.6908 32.3674 21.2599 32.5477 20.8994 32.9082C20.5388 33.2688 20.3585 33.6996 20.3585 34.2007C20.3585 34.7018 20.5388 35.1327 20.8994 35.4932C21.2599 35.8538 21.6908 36.034 22.1919 36.034Z" fill="#636E75"/>
</g>
<defs>
<clipPath id="clip0_44_340">
<rect width="22" height="22.4" fill="white" transform="matrix(1 0 0 -1 12.2002 45.4004)"/>
</clipPath>
</defs>
</svg>
