<svg width="47" height="70" viewBox="0 0 47 70" fill="none" xmlns="http://www.w3.org/2000/svg">
<g clip-path="url(#clip0_44_156)">
<path d="M19.1485 26.8664L21.5502 24.4831C21.7213 24.2997 21.9352 24.2081 22.1919 24.2081C22.4485 24.2081 22.6624 24.2997 22.8335 24.4831L25.2352 26.8664H28.6085C28.8652 26.8664 29.0821 26.955 29.2594 27.1322C29.4366 27.3095 29.5252 27.5264 29.5252 27.7831V31.1564L31.9085 33.5581C32.0919 33.7292 32.1835 33.9431 32.1835 34.1997C32.1835 34.4564 32.0919 34.6703 31.9085 34.8414L29.5252 37.2431V40.6164C29.5252 40.8731 29.4366 41.09 29.2594 41.2672C29.0821 41.4445 28.8652 41.5331 28.6085 41.5331H25.2352L22.8335 43.9164C22.6624 44.0997 22.4485 44.1914 22.1919 44.1914C21.9352 44.1914 21.7213 44.0997 21.5502 43.9164L19.1485 41.5331H15.7752C15.5185 41.5331 15.3016 41.4445 15.1244 41.2672C14.9471 41.09 14.8585 40.8731 14.8585 40.6164V37.2431L12.4752 34.8414C12.2919 34.6703 12.2002 34.4564 12.2002 34.1997C12.2002 33.9431 12.2919 33.7292 12.4752 33.5581L14.8585 31.1564V27.7831C14.8585 27.5264 14.9471 27.3095 15.1244 27.1322C15.3016 26.955 15.5185 26.8664 15.7752 26.8664H19.1485ZM16.6919 28.6997V31.9264L14.4185 34.1997L16.6919 36.4731V39.6997H19.9185L22.1919 41.9731L24.4652 39.6997H27.6919V36.4731L29.9652 34.1997L27.6919 31.9264V28.6997H24.4652L22.1919 26.4264L19.9185 28.6997H16.6919ZM22.1919 37.8664C21.5319 37.8664 20.9208 37.7014 20.3585 37.3714C19.7963 37.0414 19.3502 36.5953 19.0202 36.0331C18.6902 35.4709 18.5252 34.8597 18.5252 34.1997C18.5252 33.5397 18.6902 32.9286 19.0202 32.3664C19.3502 31.8042 19.7963 31.3581 20.3585 31.0281C20.9208 30.6981 21.5319 30.5331 22.1919 30.5331C22.8519 30.5331 23.463 30.6981 24.0252 31.0281C24.5874 31.3581 25.0335 31.8042 25.3635 32.3664C25.6935 32.9286 25.8585 33.5397 25.8585 34.1997C25.8585 34.8597 25.6935 35.4709 25.3635 36.0331C25.0335 36.5953 24.5874 37.0414 24.0252 37.3714C23.463 37.7014 22.8519 37.8664 22.1919 37.8664ZM22.1919 36.0331C22.693 36.0331 23.1238 35.8528 23.4844 35.4922C23.8449 35.1317 24.0252 34.7009 24.0252 34.1997C24.0252 33.6986 23.8449 33.2678 23.4844 32.9072C23.1238 32.5467 22.693 32.3664 22.1919 32.3664C21.6908 32.3664 21.2599 32.5467 20.8994 32.9072C20.5388 33.2678 20.3585 33.6986 20.3585 34.1997C20.3585 34.7009 20.5388 35.1317 20.8994 35.4922C21.2599 35.8528 21.6908 36.0331 22.1919 36.0331Z" fill="#636E75"/>
</g>
<defs>
<clipPath id="clip0_44_156">
<rect width="22" height="22.4" fill="white" transform="matrix(1 0 0 -1 12.2002 45.3999)"/>
</clipPath>
</defs>
</svg>
