<svg width="47" height="70" viewBox="0 0 47 70" fill="none" xmlns="http://www.w3.org/2000/svg">
<g clip-path="url(#clip0_44_88)">
<path d="M19.1484 26.8667L21.5501 24.4833C21.7212 24.3 21.9351 24.2083 22.1917 24.2083C22.4484 24.2083 22.6623 24.3 22.8334 24.4833L25.2351 26.8667H28.6084C28.8651 26.8667 29.082 26.9553 29.2592 27.1325C29.4365 27.3097 29.5251 27.5267 29.5251 27.7833V31.1567L31.9084 33.5583C32.0917 33.7294 32.1834 33.9433 32.1834 34.2C32.1834 34.4567 32.0917 34.6705 31.9084 34.8417L29.5251 37.2433V40.6167C29.5251 40.8733 29.4365 41.0903 29.2592 41.2675C29.082 41.4447 28.8651 41.5333 28.6084 41.5333H25.2351L22.8334 43.9167C22.6623 44.1 22.4484 44.1917 22.1917 44.1917C21.9351 44.1917 21.7212 44.1 21.5501 43.9167L19.1484 41.5333H15.7751C15.5184 41.5333 15.3015 41.4447 15.1242 41.2675C14.947 41.0903 14.8584 40.8733 14.8584 40.6167V37.2433L12.4751 34.8417C12.2917 34.6705 12.2001 34.4567 12.2001 34.2C12.2001 33.9433 12.2917 33.7294 12.4751 33.5583L14.8584 31.1567V27.7833C14.8584 27.5267 14.947 27.3097 15.1242 27.1325C15.3015 26.9553 15.5184 26.8667 15.7751 26.8667H19.1484ZM16.6917 28.7V31.9267L14.4184 34.2L16.6917 36.4733V39.7H19.9184L22.1917 41.9733L24.4651 39.7H27.6917V36.4733L29.9651 34.2L27.6917 31.9267V28.7H24.4651L22.1917 26.4267L19.9184 28.7H16.6917ZM22.1917 37.8667C21.5317 37.8667 20.9206 37.7017 20.3584 37.3717C19.7962 37.0417 19.3501 36.5955 19.0201 36.0333C18.6901 35.4711 18.5251 34.86 18.5251 34.2C18.5251 33.54 18.6901 32.9289 19.0201 32.3667C19.3501 31.8044 19.7962 31.3583 20.3584 31.0283C20.9206 30.6983 21.5317 30.5333 22.1917 30.5333C22.8517 30.5333 23.4629 30.6983 24.0251 31.0283C24.5873 31.3583 25.0334 31.8044 25.3634 32.3667C25.6934 32.9289 25.8584 33.54 25.8584 34.2C25.8584 34.86 25.6934 35.4711 25.3634 36.0333C25.0334 36.5955 24.5873 37.0417 24.0251 37.3717C23.4629 37.7017 22.8517 37.8667 22.1917 37.8667ZM22.1917 36.0333C22.6929 36.0333 23.1237 35.853 23.4842 35.4925C23.8448 35.1319 24.0251 34.7011 24.0251 34.2C24.0251 33.6989 23.8448 33.268 23.4842 32.9075C23.1237 32.5469 22.6929 32.3667 22.1917 32.3667C21.6906 32.3667 21.2598 32.5469 20.8992 32.9075C20.5387 33.268 20.3584 33.6989 20.3584 34.2C20.3584 34.7011 20.5387 35.1319 20.8992 35.4925C21.2598 35.853 21.6906 36.0333 22.1917 36.0333Z" fill="#636E75"/>
</g>
<defs>
<clipPath id="clip0_44_88">
<rect width="22" height="22.4" fill="white" transform="matrix(1 0 0 -1 12.2001 45.3999)"/>
</clipPath>
</defs>
</svg>
