<svg width="18" height="18" viewBox="0 0 18 18" fill="none" xmlns="http://www.w3.org/2000/svg">
<path fill-rule="evenodd" clip-rule="evenodd" d="M8.45999 11.0276C8.32096 11.0432 8.18116 11.0511 8.04125 11.051H5.86655V12.8334C5.86655 12.8334 5.57102 12.7736 5.13322 12.605C3.88142 12.1235 1.46655 10.7544 1.46655 7.35908C1.46655 5.32041 3.11949 3.66675 5.15889 3.66675H8.04089C9.81995 3.66675 11.3053 4.92478 11.6551 6.60008H13.1797C13.9631 6.60018 14.7143 6.91143 15.2682 7.46538C15.8221 8.01933 16.1332 8.7706 16.1332 9.55395C16.1332 12.2229 13.9963 13.3269 12.8332 13.7299C12.3987 13.8806 12.0999 13.9334 12.0999 13.9334V12.5074H11.0204C10.5012 12.5079 9.99098 12.3713 9.54141 12.1115C9.09184 11.8516 8.71881 11.4777 8.45999 11.0276ZM5.13322 10.3177V11.8119C4.76786 11.6517 4.42031 11.4536 4.09629 11.2208C3.14662 10.534 2.19989 9.36988 2.19989 7.35871C2.19998 6.574 2.51178 5.82146 3.06669 5.26662C3.6216 4.71178 4.37417 4.40008 5.15889 4.40008H8.04089C8.79563 4.40009 9.52184 4.68851 10.0709 5.20632C10.62 5.72414 10.9505 6.4322 10.9948 7.18565C10.9686 7.69327 10.8377 8.18999 10.6102 8.64457C10.3828 9.09915 10.0638 9.50177 9.67329 9.82711C9.1895 10.1479 8.62172 10.3186 8.04125 10.3177H5.13322ZM10.1107 10.4167C9.85832 10.6235 9.58386 10.8018 9.29232 10.9484C9.50031 11.2064 9.76353 11.4146 10.0626 11.5575C10.3617 11.7004 10.689 11.7744 11.0204 11.7741H12.8332V12.9478C13.1438 12.8259 13.4424 12.6756 13.7253 12.4986C14.5932 11.9505 15.3999 11.0602 15.3999 9.55395C15.3999 8.96509 15.166 8.40034 14.7496 7.98392C14.3333 7.5675 13.7686 7.33351 13.1797 7.33341H11.7332V7.35908C11.7332 8.63105 11.0897 9.75268 10.1107 10.4167Z" fill="#8590A5"/>
</svg>
