<svg width="18" height="18" viewBox="0 0 18 18" fill="none" xmlns="http://www.w3.org/2000/svg">
<path fill-rule="evenodd" clip-rule="evenodd" d="M8.45999 11.0278C8.32096 11.0435 8.18116 11.0513 8.04125 11.0513H5.86655V12.8337C5.86655 12.8337 5.57102 12.7739 5.13322 12.6052C3.88142 12.1238 1.46655 10.7547 1.46655 7.35933C1.46655 5.32066 3.11949 3.66699 5.15889 3.66699H8.04089C9.81995 3.66699 11.3053 4.92503 11.6551 6.60033H13.1797C13.9631 6.60042 14.7143 6.91168 15.2682 7.46562C15.8221 8.01957 16.1332 8.77084 16.1332 9.55419C16.1332 12.2232 13.9963 13.3272 12.8332 13.7302C12.3987 13.8809 12.0999 13.9337 12.0999 13.9337V12.5077H11.0204C10.5012 12.5081 9.99098 12.3715 9.54141 12.1117C9.09184 11.8519 8.71881 11.478 8.45999 11.0278ZM5.13322 10.318V11.8121C4.76786 11.6519 4.42031 11.4538 4.09629 11.2211C3.14662 10.5343 2.19989 9.37013 2.19989 7.35896C2.19998 6.57425 2.51178 5.82171 3.06669 5.26687C3.6216 4.71203 4.37417 4.40033 5.15889 4.40033H8.04089C8.79563 4.40034 9.52184 4.68875 10.0709 5.20657C10.62 5.72438 10.9505 6.43245 10.9948 7.18589C10.9686 7.69351 10.8377 8.19023 10.6102 8.64481C10.3828 9.0994 10.0638 9.50202 9.67329 9.82736C9.1895 10.1481 8.62172 10.3188 8.04125 10.318H5.13322ZM10.1107 10.417C9.85832 10.6238 9.58386 10.8021 9.29232 10.9486C9.50031 11.2067 9.76353 11.4148 10.0626 11.5577C10.3617 11.7006 10.689 11.7747 11.0204 11.7744H12.8332V12.9481C13.1438 12.8262 13.4424 12.6758 13.7253 12.4989C14.5932 11.9507 15.3999 11.0605 15.3999 9.55419C15.3999 8.96533 15.166 8.40059 14.7496 7.98417C14.3333 7.56775 13.7686 7.33376 13.1797 7.33366H11.7332V7.35933C11.7332 8.63129 11.0897 9.75293 10.1107 10.417Z" fill="#8590A5"/>
</svg>
