<svg width="18" height="18" viewBox="0 0 18 18" fill="none" xmlns="http://www.w3.org/2000/svg">
<path fill-rule="evenodd" clip-rule="evenodd" d="M8.45999 11.3276C8.32096 11.3433 8.18116 11.3511 8.04125 11.3511H5.86655V13.1335C5.86655 13.1335 5.57102 13.0737 5.13322 12.905C3.88142 12.4236 1.46655 11.0545 1.46655 7.65913C1.46655 5.62046 3.11949 3.9668 5.15889 3.9668H8.04089C9.81995 3.9668 11.3053 5.22483 11.6551 6.90013H13.1797C13.9631 6.90023 14.7143 7.21148 15.2682 7.76543C15.8221 8.31937 16.1332 9.07065 16.1332 9.854C16.1332 12.523 13.9963 13.627 12.8332 14.03C12.3987 14.1807 12.0999 14.2335 12.0999 14.2335V12.8075H11.0204C10.5012 12.8079 9.99098 12.6713 9.54141 12.4115C9.09184 12.1517 8.71881 11.7778 8.45999 11.3276ZM5.13322 10.6178V12.1119C4.76786 11.9517 4.42031 11.7536 4.09629 11.5209C3.14662 10.8341 2.19989 9.66993 2.19989 7.65876C2.19998 6.87405 2.51178 6.12151 3.06669 5.56667C3.6216 5.01183 4.37417 4.70013 5.15889 4.70013H8.04089C8.79563 4.70014 9.52184 4.98856 10.0709 5.50637C10.62 6.02418 10.9505 6.73225 10.9948 7.4857C10.9686 7.99332 10.8377 8.49003 10.6102 8.94462C10.3828 9.3992 10.0638 9.80182 9.67329 10.1272C9.1895 10.4479 8.62172 10.6186 8.04125 10.6178H5.13322ZM10.1107 10.7168C9.85832 10.9236 9.58386 11.1019 9.29232 11.2484C9.50031 11.5065 9.76353 11.7146 10.0626 11.8575C10.3617 12.0004 10.689 12.0745 11.0204 12.0742H12.8332V13.2479C13.1438 13.126 13.4424 12.9756 13.7253 12.7987C14.5932 12.2505 15.3999 11.3603 15.3999 9.854C15.3999 9.26514 15.166 8.70039 14.7496 8.28397C14.3333 7.86755 13.7686 7.63356 13.1797 7.63346H11.7332V7.65913C11.7332 8.9311 11.0897 10.0527 10.1107 10.7168Z" fill="#8590A5"/>
</svg>
