<svg width="18" height="18" viewBox="0 0 18 18" fill="none" xmlns="http://www.w3.org/2000/svg">
<path fill-rule="evenodd" clip-rule="evenodd" d="M8.46023 11.0276C8.3212 11.0432 8.1814 11.0511 8.0415 11.051H5.8668V12.8334C5.8668 12.8334 5.57126 12.7736 5.13346 12.605C3.88166 12.1235 1.4668 10.7544 1.4668 7.35908C1.4668 5.32041 3.11973 3.66675 5.15913 3.66675H8.04113C9.8202 3.66675 11.3056 4.92478 11.6554 6.60008H13.18C13.9633 6.60018 14.7145 6.91143 15.2684 7.46538C15.8223 8.01933 16.1335 8.7706 16.1335 9.55395C16.1335 12.2229 13.9965 13.3269 12.8335 13.7299C12.399 13.8806 12.1001 13.9334 12.1001 13.9334V12.5074H11.0207C10.5014 12.5079 9.99123 12.3713 9.54166 12.1115C9.09209 11.8516 8.71905 11.4777 8.46023 11.0276ZM5.13346 10.3177V11.8119C4.7681 11.6517 4.42056 11.4536 4.09653 11.2208C3.14686 10.534 2.20013 9.36988 2.20013 7.35871C2.20023 6.574 2.51202 5.82146 3.06693 5.26662C3.62184 4.71178 4.37442 4.40008 5.15913 4.40008H8.04113C8.79588 4.40009 9.52209 4.68851 10.0712 5.20632C10.6203 5.72414 10.9508 6.4322 10.995 7.18565C10.9688 7.69327 10.8379 8.18999 10.6105 8.64457C10.3831 9.09915 10.0641 9.50177 9.67353 9.82711C9.18975 10.1479 8.62197 10.3186 8.0415 10.3177H5.13346ZM10.111 10.4167C9.85856 10.6235 9.5841 10.8018 9.29256 10.9484C9.50056 11.2064 9.76377 11.4146 10.0628 11.5575C10.3619 11.7004 10.6892 11.7744 11.0207 11.7741H12.8335V12.9478C13.144 12.8259 13.4427 12.6756 13.7256 12.4986C14.5935 11.9505 15.4001 11.0602 15.4001 9.55395C15.4001 8.96509 15.1662 8.40034 14.7499 7.98392C14.3335 7.5675 13.7688 7.33351 13.18 7.33341H11.7335V7.35908C11.7335 8.63105 11.09 9.75268 10.111 10.4167Z" fill="#8590A5"/>
</svg>
