<svg width="18" height="18" viewBox="0 0 18 18" fill="none" xmlns="http://www.w3.org/2000/svg">
<path fill-rule="evenodd" clip-rule="evenodd" d="M8.46023 11.4277C8.3212 11.4434 8.1814 11.4512 8.0415 11.4512H5.8668V13.2336C5.8668 13.2336 5.57126 13.1738 5.13346 13.0051C3.88166 12.5237 1.4668 11.1546 1.4668 7.75923C1.4668 5.72056 3.11973 4.06689 5.15913 4.06689H8.04113C9.8202 4.06689 11.3056 5.32493 11.6554 7.00023H13.18C13.9633 7.00032 14.7145 7.31158 15.2684 7.86552C15.8223 8.41947 16.1335 9.17074 16.1335 9.95409C16.1335 12.6231 13.9965 13.7271 12.8335 14.1301C12.399 14.2808 12.1001 14.3336 12.1001 14.3336V12.9076H11.0207C10.5014 12.908 9.99123 12.7714 9.54166 12.5116C9.09209 12.2518 8.71905 11.8779 8.46023 11.4277ZM5.13346 10.7179V12.212C4.7681 12.0518 4.42056 11.8537 4.09653 11.621C3.14686 10.9342 2.20013 9.77003 2.20013 7.75886C2.20023 6.97415 2.51202 6.22161 3.06693 5.66677C3.62184 5.11193 4.37442 4.80023 5.15913 4.80023H8.04113C8.79588 4.80024 9.52209 5.08866 10.0712 5.60647C10.6203 6.12428 10.9508 6.83235 10.995 7.58579C10.9688 8.09342 10.8379 8.59013 10.6105 9.04472C10.3831 9.4993 10.0641 9.90192 9.67353 10.2273C9.18975 10.548 8.62197 10.7187 8.0415 10.7179H5.13346ZM10.111 10.8169C9.85856 11.0237 9.5841 11.202 9.29256 11.3485C9.50056 11.6066 9.76377 11.8147 10.0628 11.9576C10.3619 12.1005 10.6892 12.1746 11.0207 12.1743H12.8335V13.348C13.144 13.2261 13.4427 13.0757 13.7256 12.8988C14.5935 12.3506 15.4001 11.4604 15.4001 9.95409C15.4001 9.36524 15.1662 8.80049 14.7499 8.38407C14.3335 7.96765 13.7688 7.73366 13.18 7.73356H11.7335V7.75923C11.7335 9.03119 11.09 10.1528 10.111 10.8169Z" fill="#8590A5"/>
</svg>
