<svg width="18" height="18" viewBox="0 0 18 18" fill="none" xmlns="http://www.w3.org/2000/svg">
<path fill-rule="evenodd" clip-rule="evenodd" d="M8.46023 11.3276C8.3212 11.3433 8.1814 11.3511 8.0415 11.3511H5.8668V13.1335C5.8668 13.1335 5.57126 13.0737 5.13346 12.905C3.88166 12.4236 1.4668 11.0545 1.4668 7.65913C1.4668 5.62046 3.11973 3.9668 5.15913 3.9668H8.04113C9.8202 3.9668 11.3056 5.22483 11.6554 6.90013H13.18C13.9633 6.90023 14.7145 7.21148 15.2684 7.76543C15.8223 8.31937 16.1335 9.07065 16.1335 9.854C16.1335 12.523 13.9965 13.627 12.8335 14.03C12.399 14.1807 12.1001 14.2335 12.1001 14.2335V12.8075H11.0207C10.5014 12.8079 9.99123 12.6713 9.54166 12.4115C9.09209 12.1517 8.71905 11.7778 8.46023 11.3276ZM5.13346 10.6178V12.1119C4.7681 11.9517 4.42056 11.7536 4.09653 11.5209C3.14686 10.8341 2.20013 9.66993 2.20013 7.65876C2.20023 6.87405 2.51202 6.12151 3.06693 5.56667C3.62184 5.01183 4.37442 4.70013 5.15913 4.70013H8.04113C8.79588 4.70014 9.52209 4.98856 10.0712 5.50637C10.6203 6.02418 10.9508 6.73225 10.995 7.4857C10.9688 7.99332 10.8379 8.49003 10.6105 8.94462C10.3831 9.3992 10.0641 9.80182 9.67353 10.1272C9.18975 10.4479 8.62197 10.6186 8.0415 10.6178H5.13346ZM10.111 10.7168C9.85856 10.9236 9.5841 11.1019 9.29256 11.2484C9.50056 11.5065 9.76377 11.7146 10.0628 11.8575C10.3619 12.0004 10.6892 12.0745 11.0207 12.0742H12.8335V13.2479C13.144 13.126 13.4427 12.9756 13.7256 12.7987C14.5935 12.2505 15.4001 11.3603 15.4001 9.854C15.4001 9.26514 15.1662 8.70039 14.7499 8.28397C14.3335 7.86755 13.7688 7.63356 13.18 7.63346H11.7335V7.65913C11.7335 8.9311 11.09 10.0527 10.111 10.7168Z" fill="#8590A5"/>
</svg>
