<svg width="70" height="30" viewBox="0 0 70 30" fill="none" xmlns="http://www.w3.org/2000/svg">
<rect width="33.6" height="29.6" transform="translate(0.799805 0.0998535)" fill="#F0F0F0"/>
<g opacity="0.4" clip-path="url(#clip0_95_2056)">
<path d="M20.5059 20.8999C20.9538 20.0978 21.2767 19.2228 21.4746 18.2749C21.6725 17.327 21.6257 16.452 21.334 15.6499C21.0423 14.8478 20.4512 14.1838 19.5605 13.6577C18.6699 13.1317 17.3496 12.8895 15.5996 12.9312V16.8999L9.59961 10.8999L15.5996 4.8999V8.7749C17.6934 8.72282 19.3314 9.10303 20.5137 9.91553C21.696 10.728 22.4694 11.7489 22.834 12.978C23.1986 14.2072 23.1751 15.5379 22.7637 16.9702C22.3522 18.4025 21.5996 19.7124 20.5059 20.8999Z" fill="#333333"/>
</g>
<rect width="33.6" height="29.6" transform="translate(36.3994 0.0998535)" fill="#F0F0F0"/>
<g opacity="0.4" clip-path="url(#clip1_95_2056)">
<path d="M52.6905 8.7749V4.8999L58.6905 10.8999L52.6905 16.8999V12.9312C50.9405 12.8895 49.6202 13.1317 48.7296 13.6577C47.839 14.1838 47.2478 14.8478 46.9561 15.6499C46.6645 16.452 46.6176 17.327 46.8155 18.2749C47.0134 19.2228 47.3363 20.0978 47.7843 20.8999C46.6905 19.7124 45.9379 18.4025 45.5265 16.9702C45.115 15.5379 45.0916 14.2072 45.4561 12.978C45.8207 11.7489 46.5942 10.728 47.7765 9.91553C48.9587 9.10303 50.5968 8.72282 52.6905 8.7749Z" fill="#333333"/>
</g>
<defs>
<clipPath id="clip0_95_2056">
<rect width="16" height="16" fill="white" transform="matrix(1 0 0 -1 9.59961 20.8999)"/>
</clipPath>
<clipPath id="clip1_95_2056">
<rect width="16" height="16" fill="white" transform="matrix(1 0 0 -1 45.1992 20.8999)"/>
</clipPath>
</defs>
</svg>
