<svg width="38" height="30" viewBox="0 0 38 30" fill="none" xmlns="http://www.w3.org/2000/svg">
<rect width="33.6" height="29.6" transform="translate(3.7998 0.0998535)" fill="#F0F0F0"/>
<g clip-path="url(#clip0_95_2103)">
<path d="M12.5996 6.8999V19.8999H28.5996V6.8999H12.5996ZM27.5996 18.8999H13.5996V7.8999H27.5996V18.8999ZM23.5996 10.3999C23.5996 9.98324 23.7454 9.62907 24.0371 9.3374C24.3288 9.04574 24.6829 8.8999 25.0996 8.8999C25.5163 8.8999 25.8704 9.04574 26.1621 9.3374C26.4538 9.62907 26.5996 9.98324 26.5996 10.3999C26.5996 10.8166 26.4538 11.1707 26.1621 11.4624C25.8704 11.7541 25.5163 11.8999 25.0996 11.8999C24.6829 11.8999 24.3288 11.7541 24.0371 11.4624C23.7454 11.1707 23.5996 10.8166 23.5996 10.3999ZM26.5996 17.8999H14.5996L17.5996 9.8999L21.5996 14.8999L23.5996 13.3999L26.5996 17.8999Z" fill="#333333"/>
</g>
<path d="M0.8 29.6999V0.0998535H-0.8V29.6999H0.8Z" fill="#D9D9D9" mask="url(#path-1-inside-1_95_2103)"/>
<defs>
<clipPath id="clip0_95_2103">
<rect width="16" height="16" fill="white" transform="matrix(1 0 0 -1 12.5996 20.8999)"/>
</clipPath>
</defs>
</svg>
