<svg width="109" height="30" viewBox="0 0 109 30" fill="none" xmlns="http://www.w3.org/2000/svg">
<rect width="33.6" height="29.6" transform="translate(4.2002 0.0996094)" fill="#F0F0F0"/>
<g clip-path="url(#clip0_84_905)">
<path d="M17.0002 5.89941H25.0002V7.89941H17.0002V5.89941ZM28.0002 8.89941H14.0002C13.7294 8.89941 13.495 8.99837 13.2971 9.19629C13.0992 9.39421 13.0002 9.62858 13.0002 9.89941V14.8994C13.0002 15.1702 13.0992 15.4046 13.2971 15.6025C13.495 15.8005 13.7294 15.8994 14.0002 15.8994H17.0002V19.8994H25.0002V15.8994H28.0002C28.2711 15.8994 28.5055 15.8005 28.7034 15.6025C28.9013 15.4046 29.0002 15.1702 29.0002 14.8994V9.89941C29.0002 9.62858 28.9013 9.39421 28.7034 9.19629C28.5055 8.99837 28.2711 8.89941 28.0002 8.89941ZM24.0002 18.8994H18.0002V13.8994H24.0002V18.8994ZM28.219 10.3994C28.219 10.5973 28.1487 10.7666 28.0081 10.9072C27.8674 11.0479 27.6982 11.1182 27.5002 11.1182C27.3023 11.1182 27.1331 11.0479 26.9924 10.9072C26.8518 10.7666 26.7815 10.5973 26.7815 10.3994C26.7815 10.2015 26.8518 10.0322 26.9924 9.8916C27.1331 9.75098 27.3023 9.68066 27.5002 9.68066C27.6982 9.68066 27.8674 9.75098 28.0081 9.8916C28.1487 10.0322 28.219 10.2015 28.219 10.3994Z" fill="#333333"/>
</g>
<rect width="33.6" height="29.6" transform="translate(39.8003 0.0996094)" fill="#F0F0F0"/>
<g clip-path="url(#clip1_84_905)">
<path d="M56.6003 9.89941C55.7774 9.89941 54.9858 9.99316 54.2253 10.1807C53.4649 10.3682 52.7436 10.6364 52.0613 10.9854C51.379 11.3343 50.7462 11.7562 50.1628 12.251C49.5795 12.7458 49.0587 13.2952 48.6003 13.8994C49.0587 14.5036 49.5795 15.0531 50.1628 15.5479C50.7462 16.0426 51.379 16.4645 52.0613 16.8135C52.7436 17.1624 53.4649 17.4307 54.2253 17.6182C54.9858 17.8057 55.7774 17.8994 56.6003 17.8994C57.4233 17.8994 58.2149 17.8057 58.9753 17.6182C59.7358 17.4307 60.4571 17.1624 61.1394 16.8135C61.8217 16.4645 62.4545 16.0426 63.0378 15.5479C63.6212 15.0531 64.142 14.5036 64.6003 13.8994C64.142 13.2952 63.6212 12.7458 63.0378 12.251C62.4545 11.7562 61.8217 11.3343 61.1394 10.9854C60.4571 10.6364 59.7358 10.3682 58.9753 10.1807C58.2149 9.99316 57.4233 9.89941 56.6003 9.89941ZM55.6003 11.8994C55.8816 11.8994 56.1186 11.9958 56.3113 12.1885C56.504 12.3812 56.6003 12.6182 56.6003 12.8994C56.6003 13.1807 56.504 13.4176 56.3113 13.6104C56.1186 13.8031 55.8816 13.8994 55.6003 13.8994C55.3191 13.8994 55.0821 13.8031 54.8894 13.6104C54.6967 13.4176 54.6003 13.1807 54.6003 12.8994C54.6003 12.6182 54.6967 12.3812 54.8894 12.1885C55.0821 11.9958 55.3191 11.8994 55.6003 11.8994ZM60.6941 15.915C60.3816 16.0713 60.0613 16.2119 59.7332 16.3369C59.405 16.4619 59.0743 16.5661 58.741 16.6494C58.3868 16.7327 58.0326 16.7952 57.6785 16.8369C57.3243 16.8786 56.9649 16.8994 56.6003 16.8994C56.2358 16.8994 55.8764 16.8786 55.5222 16.8369C55.1681 16.7952 54.8139 16.7327 54.4597 16.6494C54.1264 16.5661 53.7957 16.4619 53.4675 16.3369C53.1394 16.2119 52.8191 16.0713 52.5066 15.915C52.017 15.665 51.5509 15.3708 51.1082 15.0322C50.6654 14.6937 50.2618 14.3161 49.8972 13.8994C50.2618 13.4827 50.6654 13.1051 51.1082 12.7666C51.5509 12.4281 52.017 12.1338 52.5066 11.8838C52.767 11.7484 53.0274 11.6286 53.2878 11.5244C53.5483 11.4202 53.8139 11.3317 54.0847 11.2588C53.9389 11.488 53.8217 11.7432 53.7332 12.0244C53.6446 12.3057 53.6003 12.5973 53.6003 12.8994C53.6003 13.7327 53.892 14.4411 54.4753 15.0244C55.0587 15.6077 55.767 15.8994 56.6003 15.8994C57.4337 15.8994 58.142 15.6077 58.7253 15.0244C59.3087 14.4411 59.6003 13.7327 59.6003 12.8994C59.6003 12.5973 59.5561 12.3057 59.4675 12.0244C59.379 11.7432 59.2618 11.488 59.116 11.2588C59.3868 11.3317 59.6524 11.4202 59.9128 11.5244C60.1733 11.6286 60.4337 11.7484 60.6941 11.8838C61.1837 12.1338 61.6498 12.4281 62.0925 12.7666C62.5352 13.1051 62.9389 13.4827 63.3035 13.8994C62.9389 14.3161 62.5352 14.6937 62.0925 15.0322C61.6498 15.3708 61.1837 15.665 60.6941 15.915ZM62.0535 8.71191C61.6264 8.49316 61.1915 8.30306 60.7488 8.1416C60.3061 7.98014 59.8582 7.84473 59.405 7.73535C58.9519 7.62598 58.491 7.54264 58.0222 7.48535C57.5535 7.42806 57.0795 7.39941 56.6003 7.39941C56.1212 7.39941 55.6472 7.42806 55.1785 7.48535C54.7097 7.54264 54.2488 7.62598 53.7957 7.73535C53.3425 7.84473 52.8946 7.98014 52.4519 8.1416C52.0092 8.30306 51.5743 8.49316 51.1472 8.71191C50.6889 8.94108 50.2462 9.2041 49.8191 9.50098C49.392 9.79785 48.9858 10.1182 48.6003 10.4619V12.165C49.0378 11.7067 49.5092 11.2874 50.0144 10.9072C50.5196 10.527 51.0483 10.1963 51.6003 9.91504C51.9962 9.71712 52.3946 9.54264 52.7957 9.3916C53.1967 9.24056 53.6056 9.11556 54.0222 9.0166C54.4389 8.91764 54.8634 8.84212 55.2957 8.79004C55.7279 8.73796 56.1628 8.71191 56.6003 8.71191C57.0378 8.71191 57.4727 8.73796 57.905 8.79004C58.3373 8.84212 58.7618 8.91764 59.1785 9.0166C59.5951 9.11556 60.004 9.24056 60.405 9.3916C60.8061 9.54264 61.2045 9.71712 61.6003 9.91504C62.1524 10.1963 62.6811 10.527 63.1863 10.9072C63.6915 11.2874 64.1628 11.7067 64.6003 12.165V10.4619C64.2149 10.1182 63.8087 9.79785 63.3816 9.50098C62.9545 9.2041 62.5118 8.94108 62.0535 8.71191Z" fill="#333333"/>
</g>
<rect width="33.6" height="29.6" transform="translate(75.4001 0.0996094)" fill="#F0F0F0"/>
<g clip-path="url(#clip2_84_905)">
<path d="M84.2002 6.89941V18.8994H100.2V6.89941H84.2002ZM87.2002 17.8994H85.2002V15.8994H87.2002V17.8994ZM87.2002 13.8994H85.2002V11.8994H87.2002V13.8994ZM87.2002 9.89941H85.2002V7.89941H87.2002V9.89941ZM96.2002 17.8994H88.2002V7.89941H96.2002V17.8994ZM99.2002 17.8994H97.2002V15.8994H99.2002V17.8994ZM99.2002 13.8994H97.2002V11.8994H99.2002V13.8994ZM99.2002 9.89941H97.2002V7.89941H99.2002V9.89941ZM90.2002 9.89941V15.8994L94.2002 12.8994L90.2002 9.89941Z" fill="#333333"/>
</g>
<path d="M1.20015 29.6996V0.0996094H-0.399854V29.6996H1.20015Z" fill="#D9D9D9" mask="url(#path-1-inside-1_84_905)"/>
<defs>
<clipPath id="clip0_84_905">
<rect width="16" height="16" fill="white" transform="matrix(1 0 0 -1 13.0002 20.8994)"/>
</clipPath>
<clipPath id="clip1_84_905">
<rect width="16" height="16" fill="white" transform="matrix(1 0 0 -1 48.6003 20.8994)"/>
</clipPath>
<clipPath id="clip2_84_905">
<rect width="16" height="16" fill="white" transform="matrix(1 0 0 -1 84.2002 20.8994)"/>
</clipPath>
</defs>
</svg>
