<svg width="154" height="30" viewBox="0 0 154 30" fill="none" xmlns="http://www.w3.org/2000/svg">
<rect width="38.2" height="29.6" transform="translate(4.39941 0.0998535)" fill="#F0F0F0"/>
<g clip-path="url(#clip0_95_2089)">
<path d="M21.499 7.8999H31.499V9.8999H21.499V7.8999ZM21.499 13.8999H31.499V15.8999H21.499V13.8999ZM21.499 19.8999H31.499V21.8999H21.499V19.8999ZM15.499 8.8999C15.499 8.34782 15.6943 7.87646 16.085 7.48584C16.4756 7.09521 16.9469 6.8999 17.499 6.8999C18.0511 6.8999 18.5225 7.09521 18.9131 7.48584C19.3037 7.87646 19.499 8.34782 19.499 8.8999C19.499 9.45199 19.3037 9.92334 18.9131 10.314C18.5225 10.7046 18.0511 10.8999 17.499 10.8999C16.9469 10.8999 16.4756 10.7046 16.085 10.314C15.6943 9.92334 15.499 9.45199 15.499 8.8999ZM15.499 14.8999C15.499 14.3478 15.6943 13.8765 16.085 13.4858C16.4756 13.0952 16.9469 12.8999 17.499 12.8999C18.0511 12.8999 18.5225 13.0952 18.9131 13.4858C19.3037 13.8765 19.499 14.3478 19.499 14.8999C19.499 15.452 19.3037 15.9233 18.9131 16.314C18.5225 16.7046 18.0511 16.8999 17.499 16.8999C16.9469 16.8999 16.4756 16.7046 16.085 16.314C15.6943 15.9233 15.499 15.452 15.499 14.8999ZM15.499 20.8999C15.499 20.3478 15.6943 19.8765 16.085 19.4858C16.4756 19.0952 16.9469 18.8999 17.499 18.8999C18.0511 18.8999 18.5225 19.0952 18.9131 19.4858C19.3037 19.8765 19.499 20.3478 19.499 20.8999C19.499 21.452 19.3037 21.9233 18.9131 22.314C18.5225 22.7046 18.0511 22.8999 17.499 22.8999C16.9469 22.8999 16.4756 22.7046 16.085 22.314C15.6943 21.9233 15.499 21.452 15.499 20.8999Z" fill="#333333"/>
</g>
<rect width="38.2" height="29.6" transform="translate(44.5996 0.0998535)" fill="#F0F0F0"/>
<g clip-path="url(#clip1_95_2089)">
<path d="M60.6992 19.8999H70.6992V21.8999H60.6992V19.8999ZM60.6992 13.8999H70.6992V15.8999H60.6992V13.8999ZM60.6992 7.8999H70.6992V9.8999H60.6992V7.8999ZM57.6992 6.8999V10.8999H56.6992V7.8999H55.6992V6.8999H57.6992ZM56.6992 15.1187V15.8999H58.6992V16.8999H55.6992V14.6187L57.6992 13.6812V12.8999H55.6992V11.8999H58.6992V14.1812L56.6992 15.1187ZM58.6992 17.8999V22.8999H55.6992V21.8999H57.6992V20.8999H55.6992V19.8999H57.6992V18.8999H55.6992V17.8999H58.6992Z" fill="#333333"/>
</g>
<rect width="33.6" height="29.6" transform="translate(84.7998 0.0998535)" fill="#F0F0F0"/>
<g clip-path="url(#clip2_95_2089)">
<path d="M93.5996 5.8999H109.6V7.8999H93.5996V5.8999ZM99.5996 8.8999H109.6V10.8999H99.5996V8.8999ZM99.5996 11.8999H109.6V13.8999H99.5996V11.8999ZM99.5996 14.8999H109.6V16.8999H99.5996V14.8999ZM93.5996 17.8999H109.6V19.8999H93.5996V17.8999ZM97.5996 9.8999V15.8999L93.5996 12.8999L97.5996 9.8999Z" fill="#333333"/>
</g>
<rect width="33.6" height="29.6" transform="translate(120.399 0.0998535)" fill="#F0F0F0"/>
<g clip-path="url(#clip3_95_2089)">
<path d="M129.199 5.8999H145.199V7.8999H129.199V5.8999ZM135.199 8.8999H145.199V10.8999H135.199V8.8999ZM135.199 11.8999H145.199V13.8999H135.199V11.8999ZM135.199 14.8999H145.199V16.8999H135.199V14.8999ZM129.199 17.8999H145.199V19.8999H129.199V17.8999ZM129.199 15.8999V9.8999L133.199 12.8999L129.199 15.8999Z" fill="#333333"/>
</g>
<path d="M1.39961 29.6999V0.0998535H-0.200391V29.6999H1.39961Z" fill="#D9D9D9" mask="url(#path-1-inside-1_95_2089)"/>
<defs>
<clipPath id="clip0_95_2089">
<rect width="16" height="16" fill="white" transform="matrix(1 0 0 -1 15.499 22.8999)"/>
</clipPath>
<clipPath id="clip1_95_2089">
<rect width="16" height="16" fill="white" transform="matrix(1 0 0 -1 55.6992 22.8999)"/>
</clipPath>
<clipPath id="clip2_95_2089">
<rect width="16" height="16" fill="white" transform="matrix(1 0 0 -1 93.5996 20.8999)"/>
</clipPath>
<clipPath id="clip3_95_2089">
<rect width="16" height="16" fill="white" transform="matrix(1 0 0 -1 129.199 20.8999)"/>
</clipPath>
</defs>
</svg>
