<svg width="154" height="31" viewBox="0 0 154 31" fill="none" xmlns="http://www.w3.org/2000/svg">
<rect width="38.2" height="29.6" transform="translate(4.39941 0.899902)" fill="#F0F0F0"/>
<g clip-path="url(#clip0_68_1180)">
<path d="M21.4995 8.69995H31.4995V10.7H21.4995V8.69995ZM21.4995 14.7H31.4995V16.7H21.4995V14.7ZM21.4995 20.7H31.4995V22.7H21.4995V20.7ZM15.4995 9.69995C15.4995 9.14787 15.6948 8.67651 16.0854 8.28589C16.4761 7.89526 16.9474 7.69995 17.4995 7.69995C18.0516 7.69995 18.5229 7.89526 18.9136 8.28589C19.3042 8.67651 19.4995 9.14787 19.4995 9.69995C19.4995 10.252 19.3042 10.7234 18.9136 11.114C18.5229 11.5046 18.0516 11.7 17.4995 11.7C16.9474 11.7 16.4761 11.5046 16.0854 11.114C15.6948 10.7234 15.4995 10.252 15.4995 9.69995ZM15.4995 15.7C15.4995 15.1479 15.6948 14.6765 16.0854 14.2859C16.4761 13.8953 16.9474 13.7 17.4995 13.7C18.0516 13.7 18.5229 13.8953 18.9136 14.2859C19.3042 14.6765 19.4995 15.1479 19.4995 15.7C19.4995 16.252 19.3042 16.7234 18.9136 17.114C18.5229 17.5046 18.0516 17.7 17.4995 17.7C16.9474 17.7 16.4761 17.5046 16.0854 17.114C15.6948 16.7234 15.4995 16.252 15.4995 15.7ZM15.4995 21.7C15.4995 21.1479 15.6948 20.6765 16.0854 20.2859C16.4761 19.8953 16.9474 19.7 17.4995 19.7C18.0516 19.7 18.5229 19.8953 18.9136 20.2859C19.3042 20.6765 19.4995 21.1479 19.4995 21.7C19.4995 22.252 19.3042 22.7234 18.9136 23.114C18.5229 23.5046 18.0516 23.7 17.4995 23.7C16.9474 23.7 16.4761 23.5046 16.0854 23.114C15.6948 22.7234 15.4995 22.252 15.4995 21.7Z" fill="#333333"/>
</g>
<rect width="38.2" height="29.6" transform="translate(44.5996 0.899902)" fill="#F0F0F0"/>
<g clip-path="url(#clip1_68_1180)">
<path d="M60.6997 20.7H70.6997V22.7H60.6997V20.7ZM60.6997 14.7H70.6997V16.7H60.6997V14.7ZM60.6997 8.69995H70.6997V10.7H60.6997V8.69995ZM57.6997 7.69995V11.7H56.6997V8.69995H55.6997V7.69995H57.6997ZM56.6997 15.9187V16.7H58.6997V17.7H55.6997V15.4187L57.6997 14.4812V13.7H55.6997V12.7H58.6997V14.9812L56.6997 15.9187ZM58.6997 18.7V23.7H55.6997V22.7H57.6997V21.7H55.6997V20.7H57.6997V19.7H55.6997V18.7H58.6997Z" fill="#333333"/>
</g>
<rect width="33.6" height="29.6" transform="translate(84.7993 0.899902)" fill="#F0F0F0"/>
<g clip-path="url(#clip2_68_1180)">
<path d="M93.5991 6.69995H109.599V8.69995H93.5991V6.69995ZM99.5991 9.69995H109.599V11.7H99.5991V9.69995ZM99.5991 12.7H109.599V14.7H99.5991V12.7ZM99.5991 15.7H109.599V17.7H99.5991V15.7ZM93.5991 18.7H109.599V20.7H93.5991V18.7ZM97.5991 10.7V16.7L93.5991 13.7L97.5991 10.7Z" fill="#333333"/>
</g>
<rect width="33.6" height="29.6" transform="translate(120.399 0.899902)" fill="#F0F0F0"/>
<g clip-path="url(#clip3_68_1180)">
<path d="M129.199 6.69995H145.199V8.69995H129.199V6.69995ZM135.199 9.69995H145.199V11.7H135.199V9.69995ZM135.199 12.7H145.199V14.7H135.199V12.7ZM135.199 15.7H145.199V17.7H135.199V15.7ZM129.199 18.7H145.199V20.7H129.199V18.7ZM129.199 16.7V10.7L133.199 13.7L129.199 16.7Z" fill="#333333"/>
</g>
<path d="M1.39961 30.4999V0.899902H-0.200391V30.4999H1.39961Z" fill="#D9D9D9" mask="url(#path-1-inside-1_68_1180)"/>
<defs>
<clipPath id="clip0_68_1180">
<rect width="16" height="16" fill="white" transform="matrix(1 0 0 -1 15.4995 23.7)"/>
</clipPath>
<clipPath id="clip1_68_1180">
<rect width="16" height="16" fill="white" transform="matrix(1 0 0 -1 55.6997 23.7)"/>
</clipPath>
<clipPath id="clip2_68_1180">
<rect width="16" height="16" fill="white" transform="matrix(1 0 0 -1 93.5991 21.7)"/>
</clipPath>
<clipPath id="clip3_68_1180">
<rect width="16" height="16" fill="white" transform="matrix(1 0 0 -1 129.199 21.7)"/>
</clipPath>
</defs>
</svg>
