<svg width="145" height="31" viewBox="0 0 145 31" fill="none" xmlns="http://www.w3.org/2000/svg">
<rect width="33.6" height="29.6" transform="translate(4.19971 0.899902)" fill="#F0F0F0"/>
<g clip-path="url(#clip0_68_1166)">
<path d="M12.9995 6.69995H28.9995V8.69995H12.9995V6.69995ZM12.9995 9.69995H22.9995V11.7H12.9995V9.69995ZM12.9995 15.7H22.9995V17.7H12.9995V15.7ZM12.9995 12.7H28.9995V14.7H12.9995V12.7ZM12.9995 18.7H28.9995V20.7H12.9995V18.7Z" fill="#333333"/>
</g>
<rect width="33.6" height="29.6" transform="translate(39.7998 0.899902)" fill="#F0F0F0"/>
<g clip-path="url(#clip1_68_1166)">
<path d="M48.5996 6.69995H64.5996V8.69995H48.5996V6.69995ZM51.5996 9.69995H61.5996V11.7H51.5996V9.69995ZM51.5996 15.7H61.5996V17.7H51.5996V15.7ZM48.5996 12.7H64.5996V14.7H48.5996V12.7ZM48.5996 18.7H64.5996V20.7H48.5996V18.7Z" fill="#333333"/>
</g>
<rect width="33.6" height="29.6" transform="translate(75.3999 0.899902)" fill="#F0F0F0"/>
<g clip-path="url(#clip2_68_1166)">
<path d="M84.1997 6.69995H100.2V8.69995H84.1997V6.69995ZM90.1997 9.69995H100.2V11.7H90.1997V9.69995ZM90.1997 15.7H100.2V17.7H90.1997V15.7ZM84.1997 12.7H100.2V14.7H84.1997V12.7ZM84.1997 18.7H100.2V20.7H84.1997V18.7Z" fill="#333333"/>
</g>
<rect width="33.6" height="29.6" transform="translate(111 0.899902)" fill="#F0F0F0"/>
<g clip-path="url(#clip3_68_1166)">
<path d="M119.799 6.69995H135.799V8.69995H119.799V6.69995ZM119.799 9.69995H135.799V11.7H119.799V9.69995ZM119.799 12.7H135.799V14.7H119.799V12.7ZM119.799 15.7H135.799V17.7H119.799V15.7ZM119.799 18.7H135.799V20.7H119.799V18.7Z" fill="#333333"/>
</g>
<path d="M1.1999 30.4999V0.899902H-0.400098V30.4999H1.1999Z" fill="#D9D9D9" mask="url(#path-1-inside-1_68_1166)"/>
<defs>
<clipPath id="clip0_68_1166">
<rect width="16" height="16" fill="white" transform="matrix(1 0 0 -1 12.9995 21.7)"/>
</clipPath>
<clipPath id="clip1_68_1166">
<rect width="16" height="16" fill="white" transform="matrix(1 0 0 -1 48.5996 21.7)"/>
</clipPath>
<clipPath id="clip2_68_1166">
<rect width="16" height="16" fill="white" transform="matrix(1 0 0 -1 84.1997 21.7)"/>
</clipPath>
<clipPath id="clip3_68_1166">
<rect width="16" height="16" fill="white" transform="matrix(1 0 0 -1 119.799 21.7)"/>
</clipPath>
</defs>
</svg>
