<svg width="109" height="30" viewBox="0 0 109 30" fill="none" xmlns="http://www.w3.org/2000/svg">
<rect width="33.6" height="29.6" transform="translate(4.19922 0.0998535)" fill="#F0F0F0"/>
<g clip-path="url(#clip0_95_2107)">
<path d="M16.999 5.8999H24.999V7.8999H16.999V5.8999ZM27.999 8.8999H13.999C13.7282 8.8999 13.4938 8.99886 13.2959 9.19678C13.098 9.39469 12.999 9.62907 12.999 9.8999V14.8999C12.999 15.1707 13.098 15.4051 13.2959 15.603C13.4938 15.8009 13.7282 15.8999 13.999 15.8999H16.999V19.8999H24.999V15.8999H27.999C28.2699 15.8999 28.5042 15.8009 28.7021 15.603C28.9001 15.4051 28.999 15.1707 28.999 14.8999V9.8999C28.999 9.62907 28.9001 9.39469 28.7021 9.19678C28.5042 8.99886 28.2699 8.8999 27.999 8.8999ZM23.999 18.8999H17.999V13.8999H23.999V18.8999ZM28.2178 10.3999C28.2178 10.5978 28.1475 10.7671 28.0068 10.9077C27.8662 11.0483 27.6969 11.1187 27.499 11.1187C27.3011 11.1187 27.1318 11.0483 26.9912 10.9077C26.8506 10.7671 26.7803 10.5978 26.7803 10.3999C26.7803 10.202 26.8506 10.0327 26.9912 9.89209C27.1318 9.75146 27.3011 9.68115 27.499 9.68115C27.6969 9.68115 27.8662 9.75146 28.0068 9.89209C28.1475 10.0327 28.2178 10.202 28.2178 10.3999Z" fill="#333333"/>
</g>
<rect width="33.6" height="29.6" transform="translate(39.7988 0.0998535)" fill="#F0F0F0"/>
<g clip-path="url(#clip1_95_2107)">
<path d="M56.5986 9.8999C55.7757 9.8999 54.984 9.99365 54.2236 10.1812C53.4632 10.3687 52.7419 10.6369 52.0596 10.9858C51.3773 11.3348 50.7445 11.7567 50.1611 12.2515C49.5778 12.7463 49.057 13.2957 48.5986 13.8999C49.057 14.5041 49.5778 15.0535 50.1611 15.5483C50.7445 16.0431 51.3773 16.465 52.0596 16.814C52.7419 17.1629 53.4632 17.4312 54.2236 17.6187C54.984 17.8062 55.7757 17.8999 56.5986 17.8999C57.4215 17.8999 58.2132 17.8062 58.9736 17.6187C59.734 17.4312 60.4554 17.1629 61.1377 16.814C61.82 16.465 62.4528 16.0431 63.0361 15.5483C63.6195 15.0535 64.1403 14.5041 64.5986 13.8999C64.1403 13.2957 63.6195 12.7463 63.0361 12.2515C62.4528 11.7567 61.82 11.3348 61.1377 10.9858C60.4554 10.6369 59.734 10.3687 58.9736 10.1812C58.2132 9.99365 57.4215 9.8999 56.5986 9.8999ZM55.5986 11.8999C55.8799 11.8999 56.1169 11.9963 56.3096 12.189C56.5023 12.3817 56.5986 12.6187 56.5986 12.8999C56.5986 13.1812 56.5023 13.4181 56.3096 13.6108C56.1169 13.8035 55.8799 13.8999 55.5986 13.8999C55.3174 13.8999 55.0804 13.8035 54.8877 13.6108C54.695 13.4181 54.5986 13.1812 54.5986 12.8999C54.5986 12.6187 54.695 12.3817 54.8877 12.189C55.0804 11.9963 55.3174 11.8999 55.5986 11.8999ZM60.6924 15.9155C60.3799 16.0718 60.0596 16.2124 59.7314 16.3374C59.4033 16.4624 59.0726 16.5666 58.7393 16.6499C58.3851 16.7332 58.0309 16.7957 57.6768 16.8374C57.3226 16.8791 56.9632 16.8999 56.5986 16.8999C56.234 16.8999 55.8747 16.8791 55.5205 16.8374C55.1663 16.7957 54.8122 16.7332 54.458 16.6499C54.1247 16.5666 53.7939 16.4624 53.4658 16.3374C53.1377 16.2124 52.8174 16.0718 52.5049 15.9155C52.0153 15.6655 51.5492 15.3713 51.1064 15.0327C50.6637 14.6942 50.2601 14.3166 49.8955 13.8999C50.2601 13.4832 50.6637 13.1056 51.1064 12.7671C51.5492 12.4285 52.0153 12.1343 52.5049 11.8843C52.7653 11.7489 53.0257 11.6291 53.2861 11.5249C53.5465 11.4207 53.8122 11.3322 54.083 11.2593C53.9372 11.4884 53.82 11.7437 53.7314 12.0249C53.6429 12.3062 53.5986 12.5978 53.5986 12.8999C53.5986 13.7332 53.8903 14.4416 54.4736 15.0249C55.057 15.6082 55.7653 15.8999 56.5986 15.8999C57.432 15.8999 58.1403 15.6082 58.7236 15.0249C59.307 14.4416 59.5986 13.7332 59.5986 12.8999C59.5986 12.5978 59.5544 12.3062 59.4658 12.0249C59.3773 11.7437 59.2601 11.4884 59.1143 11.2593C59.3851 11.3322 59.6507 11.4207 59.9111 11.5249C60.1715 11.6291 60.432 11.7489 60.6924 11.8843C61.182 12.1343 61.6481 12.4285 62.0908 12.7671C62.5335 13.1056 62.9372 13.4832 63.3018 13.8999C62.9372 14.3166 62.5335 14.6942 62.0908 15.0327C61.6481 15.3713 61.182 15.6655 60.6924 15.9155ZM62.0518 8.7124C61.6247 8.49365 61.1898 8.30355 60.7471 8.14209C60.3044 7.98063 59.8564 7.84521 59.4033 7.73584C58.9502 7.62646 58.4893 7.54313 58.0205 7.48584C57.5518 7.42855 57.0778 7.3999 56.5986 7.3999C56.1195 7.3999 55.6455 7.42855 55.1768 7.48584C54.708 7.54313 54.2471 7.62646 53.7939 7.73584C53.3408 7.84521 52.8929 7.98063 52.4502 8.14209C52.0075 8.30355 51.5726 8.49365 51.1455 8.7124C50.6872 8.94157 50.2445 9.20459 49.8174 9.50146C49.3903 9.79834 48.984 10.1187 48.5986 10.4624V12.1655C49.0361 11.7072 49.5075 11.2879 50.0127 10.9077C50.5179 10.5275 51.0465 10.1968 51.5986 9.91553C51.9945 9.71761 52.3929 9.54313 52.7939 9.39209C53.195 9.24105 53.6038 9.11605 54.0205 9.01709C54.4372 8.91813 54.8617 8.84261 55.2939 8.79053C55.7262 8.73844 56.1611 8.7124 56.5986 8.7124C57.0361 8.7124 57.471 8.73844 57.9033 8.79053C58.3356 8.84261 58.7601 8.91813 59.1768 9.01709C59.5934 9.11605 60.0023 9.24105 60.4033 9.39209C60.8044 9.54313 61.2028 9.71761 61.5986 9.91553C62.1507 10.1968 62.6794 10.5275 63.1846 10.9077C63.6898 11.2879 64.1611 11.7072 64.5986 12.1655V10.4624C64.2132 10.1187 63.807 9.79834 63.3799 9.50146C62.9528 9.20459 62.5101 8.94157 62.0518 8.7124Z" fill="#333333"/>
</g>
<rect width="33.6" height="29.6" transform="translate(75.3994 0.0998535)" fill="#F0F0F0"/>
<g clip-path="url(#clip2_95_2107)">
<path d="M84.1992 6.8999V18.8999H100.199V6.8999H84.1992ZM87.1992 17.8999H85.1992V15.8999H87.1992V17.8999ZM87.1992 13.8999H85.1992V11.8999H87.1992V13.8999ZM87.1992 9.8999H85.1992V7.8999H87.1992V9.8999ZM96.1992 17.8999H88.1992V7.8999H96.1992V17.8999ZM99.1992 17.8999H97.1992V15.8999H99.1992V17.8999ZM99.1992 13.8999H97.1992V11.8999H99.1992V13.8999ZM99.1992 9.8999H97.1992V7.8999H99.1992V9.8999ZM90.1992 9.8999V15.8999L94.1992 12.8999L90.1992 9.8999Z" fill="#333333"/>
</g>
<path d="M1.19941 29.6999V0.0998535H-0.400586V29.6999H1.19941Z" fill="#D9D9D9" mask="url(#path-1-inside-1_95_2107)"/>
<defs>
<clipPath id="clip0_95_2107">
<rect width="16" height="16" fill="white" transform="matrix(1 0 0 -1 12.999 20.8999)"/>
</clipPath>
<clipPath id="clip1_95_2107">
<rect width="16" height="16" fill="white" transform="matrix(1 0 0 -1 48.5986 20.8999)"/>
</clipPath>
<clipPath id="clip2_95_2107">
<rect width="16" height="16" fill="white" transform="matrix(1 0 0 -1 84.1992 20.8999)"/>
</clipPath>
</defs>
</svg>
