<svg width="70" height="31" viewBox="0 0 70 31" fill="none" xmlns="http://www.w3.org/2000/svg">
<rect width="33.6" height="29.6" transform="translate(0.799805 0.899902)" fill="#F0F0F0"/>
<g opacity="0.4" clip-path="url(#clip0_68_1147)">
<path d="M20.5059 21.7C20.9538 20.8979 21.2767 20.0229 21.4746 19.075C21.6725 18.127 21.6257 17.252 21.334 16.45C21.0423 15.6479 20.4512 14.9838 19.5605 14.4578C18.6699 13.9317 17.3496 13.6895 15.5996 13.7312V17.7L9.59961 11.7L15.5996 5.69995V9.57495C17.6934 9.52287 19.3314 9.90308 20.5137 10.7156C21.696 11.5281 22.4694 12.5489 22.834 13.7781C23.1986 15.0072 23.1751 16.338 22.7637 17.7703C22.3522 19.2026 21.5996 20.5125 20.5059 21.7Z" fill="#333333"/>
</g>
<rect width="33.6" height="29.6" transform="translate(36.3999 0.899902)" fill="#F0F0F0"/>
<g opacity="0.4" clip-path="url(#clip1_68_1147)">
<path d="M52.691 9.57495V5.69995L58.691 11.7L52.691 17.7V13.7312C50.941 13.6895 49.6207 13.9317 48.7301 14.4578C47.8394 14.9838 47.2483 15.6479 46.9566 16.45C46.665 17.252 46.6181 18.127 46.816 19.075C47.0139 20.0229 47.3368 20.8979 47.7848 21.7C46.691 20.5125 45.9384 19.2026 45.5269 17.7703C45.1155 16.338 45.092 15.0072 45.4566 13.7781C45.8212 12.5489 46.5946 11.5281 47.7769 10.7156C48.9592 9.90308 50.5973 9.52287 52.691 9.57495Z" fill="#333333"/>
</g>
<defs>
<clipPath id="clip0_68_1147">
<rect width="16" height="16" fill="white" transform="matrix(1 0 0 -1 9.59961 21.7)"/>
</clipPath>
<clipPath id="clip1_68_1147">
<rect width="16" height="16" fill="white" transform="matrix(1 0 0 -1 45.1997 21.7)"/>
</clipPath>
</defs>
</svg>
