<svg width="145" height="30" viewBox="0 0 145 30" fill="none" xmlns="http://www.w3.org/2000/svg">
<rect width="33.6" height="29.6" transform="translate(4.19922 0.0998535)" fill="#F0F0F0"/>
<g clip-path="url(#clip0_95_2075)">
<path d="M12.999 5.8999H28.999V7.8999H12.999V5.8999ZM12.999 8.8999H22.999V10.8999H12.999V8.8999ZM12.999 14.8999H22.999V16.8999H12.999V14.8999ZM12.999 11.8999H28.999V13.8999H12.999V11.8999ZM12.999 17.8999H28.999V19.8999H12.999V17.8999Z" fill="#333333"/>
</g>
<rect width="33.6" height="29.6" transform="translate(39.7988 0.0998535)" fill="#F0F0F0"/>
<g clip-path="url(#clip1_95_2075)">
<path d="M48.5986 5.8999H64.5986V7.8999H48.5986V5.8999ZM51.5986 8.8999H61.5986V10.8999H51.5986V8.8999ZM51.5986 14.8999H61.5986V16.8999H51.5986V14.8999ZM48.5986 11.8999H64.5986V13.8999H48.5986V11.8999ZM48.5986 17.8999H64.5986V19.8999H48.5986V17.8999Z" fill="#333333"/>
</g>
<rect width="33.6" height="29.6" transform="translate(75.3994 0.0998535)" fill="#F0F0F0"/>
<g clip-path="url(#clip2_95_2075)">
<path d="M84.1992 5.8999H100.199V7.8999H84.1992V5.8999ZM90.1992 8.8999H100.199V10.8999H90.1992V8.8999ZM90.1992 14.8999H100.199V16.8999H90.1992V14.8999ZM84.1992 11.8999H100.199V13.8999H84.1992V11.8999ZM84.1992 17.8999H100.199V19.8999H84.1992V17.8999Z" fill="#333333"/>
</g>
<rect width="33.6" height="29.6" transform="translate(110.999 0.0998535)" fill="#F0F0F0"/>
<g clip-path="url(#clip3_95_2075)">
<path d="M119.799 5.8999H135.799V7.8999H119.799V5.8999ZM119.799 8.8999H135.799V10.8999H119.799V8.8999ZM119.799 11.8999H135.799V13.8999H119.799V11.8999ZM119.799 14.8999H135.799V16.8999H119.799V14.8999ZM119.799 17.8999H135.799V19.8999H119.799V17.8999Z" fill="#333333"/>
</g>
<path d="M1.19941 29.6999V0.0998535H-0.400586V29.6999H1.19941Z" fill="#D9D9D9" mask="url(#path-1-inside-1_95_2075)"/>
<defs>
<clipPath id="clip0_95_2075">
<rect width="16" height="16" fill="white" transform="matrix(1 0 0 -1 12.999 20.8999)"/>
</clipPath>
<clipPath id="clip1_95_2075">
<rect width="16" height="16" fill="white" transform="matrix(1 0 0 -1 48.5986 20.8999)"/>
</clipPath>
<clipPath id="clip2_95_2075">
<rect width="16" height="16" fill="white" transform="matrix(1 0 0 -1 84.1992 20.8999)"/>
</clipPath>
<clipPath id="clip3_95_2075">
<rect width="16" height="16" fill="white" transform="matrix(1 0 0 -1 119.799 20.8999)"/>
</clipPath>
</defs>
</svg>
