<svg width="74" height="30" viewBox="0 0 74 30" fill="none" xmlns="http://www.w3.org/2000/svg">
<rect width="33.6" height="29.6" transform="translate(4.19922 0.0998535)" fill="#F0F0F0"/>
<path d="M21.0615 12.478C21.3532 12.1239 21.5824 11.728 21.749 11.2905C21.9157 10.853 21.999 10.3895 21.999 9.8999C21.999 9.34782 21.8949 8.82959 21.6865 8.34521C21.4782 7.86084 21.1917 7.43636 20.8271 7.07178C20.4626 6.70719 20.0381 6.42074 19.5537 6.2124C19.0693 6.00407 18.5511 5.8999 17.999 5.8999H12.999V19.8999H18.999C19.5511 19.8999 20.0693 19.7957 20.5537 19.5874C21.0381 19.3791 21.4626 19.0926 21.8271 18.728C22.1917 18.3634 22.4782 17.939 22.6865 17.4546C22.8949 16.9702 22.999 16.452 22.999 15.8999C22.999 15.1707 22.8219 14.5041 22.4678 13.8999C22.1136 13.2957 21.6449 12.8218 21.0615 12.478ZM15.999 7.8999H17.5771C18.0146 7.8999 18.3896 8.09521 18.7021 8.48584C19.0146 8.87646 19.1709 9.34782 19.1709 9.8999C19.1709 10.452 19.0146 10.9233 18.7021 11.314C18.3896 11.7046 18.0199 11.8999 17.5928 11.8999H15.999V7.8999ZM18.4834 17.8999H15.999V13.8999H18.4834C18.9417 13.8999 19.3324 14.0952 19.6553 14.4858C19.9782 14.8765 20.1396 15.3478 20.1396 15.8999C20.1396 16.452 19.9782 16.9233 19.6553 17.314C19.3324 17.7046 18.9417 17.8999 18.4834 17.8999Z" fill="#333333"/>
<rect width="33.6" height="29.6" transform="translate(39.7988 0.0998535)" fill="#F0F0F0"/>
<g clip-path="url(#clip0_95_2067)">
<path d="M60.5986 5.8999V6.8999H58.5986L53.5986 18.8999H55.5986V19.8999H48.5986V18.8999H50.5986L55.5986 6.8999H53.5986V5.8999H60.5986Z" fill="#333333"/>
</g>
<path d="M1.19941 29.6999V0.0998535H-0.400586V29.6999H1.19941Z" fill="#D9D9D9" mask="url(#path-1-inside-1_95_2067)"/>
<defs>
<clipPath id="clip0_95_2067">
<rect width="16" height="16" fill="white" transform="matrix(1 0 0 -1 48.5986 20.8999)"/>
</clipPath>
</defs>
</svg>
