<svg width="38" height="30" viewBox="0 0 38 30" fill="none" xmlns="http://www.w3.org/2000/svg">
<rect width="33.6" height="29.6" transform="translate(3.80005 0.0996094)" fill="#F0F0F0"/>
<g clip-path="url(#clip0_84_901)">
<path d="M12.6001 6.89941V19.8994H28.6001V6.89941H12.6001ZM27.6001 18.8994H13.6001V7.89941H27.6001V18.8994ZM23.6001 10.3994C23.6001 9.98275 23.7459 9.62858 24.0376 9.33691C24.3293 9.04525 24.6834 8.89941 25.1001 8.89941C25.5168 8.89941 25.8709 9.04525 26.1626 9.33691C26.4543 9.62858 26.6001 9.98275 26.6001 10.3994C26.6001 10.8161 26.4543 11.1702 26.1626 11.4619C25.8709 11.7536 25.5168 11.8994 25.1001 11.8994C24.6834 11.8994 24.3293 11.7536 24.0376 11.4619C23.7459 11.1702 23.6001 10.8161 23.6001 10.3994ZM26.6001 17.8994H14.6001L17.6001 9.89941L21.6001 14.8994L23.6001 13.3994L26.6001 17.8994Z" fill="#333333"/>
</g>
<path d="M0.8 29.6996V0.0996094H-0.8V29.6996H0.8Z" fill="#D9D9D9" mask="url(#path-1-inside-1_84_901)"/>
<defs>
<clipPath id="clip0_84_901">
<rect width="16" height="16" fill="white" transform="matrix(1 0 0 -1 12.6001 20.8994)"/>
</clipPath>
</defs>
</svg>
