<svg width="109" height="31" viewBox="0 0 109 31" fill="none" xmlns="http://www.w3.org/2000/svg">
<rect width="33.6" height="29.6" transform="translate(4.19971 0.899902)" fill="#F0F0F0"/>
<g clip-path="url(#clip0_68_1200)">
<path d="M16.9995 6.69995H24.9995V8.69995H16.9995V6.69995ZM27.9995 9.69995H13.9995C13.7287 9.69995 13.4943 9.79891 13.2964 9.99683C13.0985 10.1947 12.9995 10.4291 12.9995 10.7V15.7C12.9995 15.9708 13.0985 16.2052 13.2964 16.4031C13.4943 16.601 13.7287 16.7 13.9995 16.7H16.9995V20.7H24.9995V16.7H27.9995C28.2703 16.7 28.5047 16.601 28.7026 16.4031C28.9006 16.2052 28.9995 15.9708 28.9995 15.7V10.7C28.9995 10.4291 28.9006 10.1947 28.7026 9.99683C28.5047 9.79891 28.2703 9.69995 27.9995 9.69995ZM23.9995 19.7H17.9995V14.7H23.9995V19.7ZM28.2183 11.2C28.2183 11.3979 28.1479 11.5671 28.0073 11.7078C27.8667 11.8484 27.6974 11.9187 27.4995 11.9187C27.3016 11.9187 27.1323 11.8484 26.9917 11.7078C26.8511 11.5671 26.7808 11.3979 26.7808 11.2C26.7808 11.002 26.8511 10.8328 26.9917 10.6921C27.1323 10.5515 27.3016 10.4812 27.4995 10.4812C27.6974 10.4812 27.8667 10.5515 28.0073 10.6921C28.1479 10.8328 28.2183 11.002 28.2183 11.2Z" fill="#333333"/>
</g>
<rect width="33.6" height="29.6" transform="translate(39.7998 0.899902)" fill="#F0F0F0"/>
<g clip-path="url(#clip1_68_1200)">
<path d="M56.5996 10.7C55.7767 10.7 54.985 10.7937 54.2246 10.9812C53.4642 11.1687 52.7428 11.4369 52.0605 11.7859C51.3783 12.1348 50.7454 12.5567 50.1621 13.0515C49.5788 13.5463 49.0579 14.0958 48.5996 14.7C49.0579 15.3041 49.5788 15.8536 50.1621 16.3484C50.7454 16.8432 51.3783 17.2651 52.0605 17.614C52.7428 17.963 53.4642 18.2312 54.2246 18.4187C54.985 18.6062 55.7767 18.7 56.5996 18.7C57.4225 18.7 58.2142 18.6062 58.9746 18.4187C59.735 18.2312 60.4564 17.963 61.1387 17.614C61.821 17.2651 62.4538 16.8432 63.0371 16.3484C63.6204 15.8536 64.1413 15.3041 64.5996 14.7C64.1413 14.0958 63.6204 13.5463 63.0371 13.0515C62.4538 12.5567 61.821 12.1348 61.1387 11.7859C60.4564 11.4369 59.735 11.1687 58.9746 10.9812C58.2142 10.7937 57.4225 10.7 56.5996 10.7ZM55.5996 12.7C55.8809 12.7 56.1178 12.7963 56.3105 12.989C56.5033 13.1817 56.5996 13.4187 56.5996 13.7C56.5996 13.9812 56.5033 14.2182 56.3105 14.4109C56.1178 14.6036 55.8809 14.7 55.5996 14.7C55.3184 14.7 55.0814 14.6036 54.8887 14.4109C54.696 14.2182 54.5996 13.9812 54.5996 13.7C54.5996 13.4187 54.696 13.1817 54.8887 12.989C55.0814 12.7963 55.3184 12.7 55.5996 12.7ZM60.6934 16.7156C60.3809 16.8718 60.0605 17.0125 59.7324 17.1375C59.4043 17.2625 59.0736 17.3666 58.7402 17.45C58.3861 17.5333 58.0319 17.5958 57.6777 17.6375C57.3236 17.6791 56.9642 17.7 56.5996 17.7C56.235 17.7 55.8757 17.6791 55.5215 17.6375C55.1673 17.5958 54.8132 17.5333 54.459 17.45C54.1257 17.3666 53.7949 17.2625 53.4668 17.1375C53.1387 17.0125 52.8184 16.8718 52.5059 16.7156C52.0163 16.4656 51.5501 16.1713 51.1074 15.8328C50.6647 15.4942 50.2611 15.1166 49.8965 14.7C50.2611 14.2833 50.6647 13.9057 51.1074 13.5671C51.5501 13.2286 52.0163 12.9343 52.5059 12.6843C52.7663 12.5489 53.0267 12.4291 53.2871 12.325C53.5475 12.2208 53.8132 12.1322 54.084 12.0593C53.9382 12.2885 53.821 12.5437 53.7324 12.825C53.6439 13.1062 53.5996 13.3979 53.5996 13.7C53.5996 14.5333 53.8913 15.2416 54.4746 15.825C55.0579 16.4083 55.7663 16.7 56.5996 16.7C57.4329 16.7 58.1413 16.4083 58.7246 15.825C59.3079 15.2416 59.5996 14.5333 59.5996 13.7C59.5996 13.3979 59.5553 13.1062 59.4668 12.825C59.3783 12.5437 59.2611 12.2885 59.1152 12.0593C59.3861 12.1322 59.6517 12.2208 59.9121 12.325C60.1725 12.4291 60.4329 12.5489 60.6934 12.6843C61.1829 12.9343 61.6491 13.2286 62.0918 13.5671C62.5345 13.9057 62.9382 14.2833 63.3027 14.7C62.9382 15.1166 62.5345 15.4942 62.0918 15.8328C61.6491 16.1713 61.1829 16.4656 60.6934 16.7156ZM62.0527 9.51245C61.6257 9.2937 61.1908 9.1036 60.748 8.94214C60.3053 8.78068 59.8574 8.64526 59.4043 8.53589C58.9512 8.42651 58.4902 8.34318 58.0215 8.28589C57.5527 8.2286 57.0788 8.19995 56.5996 8.19995C56.1204 8.19995 55.6465 8.2286 55.1777 8.28589C54.709 8.34318 54.248 8.42651 53.7949 8.53589C53.3418 8.64526 52.8939 8.78068 52.4512 8.94214C52.0085 9.1036 51.5736 9.2937 51.1465 9.51245C50.6882 9.74162 50.2454 10.0046 49.8184 10.3015C49.3913 10.5984 48.985 10.9187 48.5996 11.2625V12.9656C49.0371 12.5072 49.5085 12.088 50.0137 11.7078C50.5189 11.3276 51.0475 10.9968 51.5996 10.7156C51.9954 10.5177 52.3939 10.3432 52.7949 10.1921C53.196 10.0411 53.6048 9.9161 54.0215 9.81714C54.4382 9.71818 54.8626 9.64266 55.2949 9.59058C55.7272 9.53849 56.1621 9.51245 56.5996 9.51245C57.0371 9.51245 57.472 9.53849 57.9043 9.59058C58.3366 9.64266 58.7611 9.71818 59.1777 9.81714C59.5944 9.9161 60.0033 10.0411 60.4043 10.1921C60.8053 10.3432 61.2038 10.5177 61.5996 10.7156C62.1517 10.9968 62.6803 11.3276 63.1855 11.7078C63.6908 12.088 64.1621 12.5072 64.5996 12.9656V11.2625C64.2142 10.9187 63.8079 10.5984 63.3809 10.3015C62.9538 10.0046 62.5111 9.74162 62.0527 9.51245Z" fill="#333333"/>
</g>
<rect width="33.6" height="29.6" transform="translate(75.3999 0.899902)" fill="#F0F0F0"/>
<g clip-path="url(#clip2_68_1200)">
<path d="M84.1997 7.69995V19.7H100.2V7.69995H84.1997ZM87.1997 18.7H85.1997V16.7H87.1997V18.7ZM87.1997 14.7H85.1997V12.7H87.1997V14.7ZM87.1997 10.7H85.1997V8.69995H87.1997V10.7ZM96.1997 18.7H88.1997V8.69995H96.1997V18.7ZM99.1997 18.7H97.1997V16.7H99.1997V18.7ZM99.1997 14.7H97.1997V12.7H99.1997V14.7ZM99.1997 10.7H97.1997V8.69995H99.1997V10.7ZM90.1997 10.7V16.7L94.1997 13.7L90.1997 10.7Z" fill="#333333"/>
</g>
<path d="M1.1999 30.4999V0.899902H-0.400098V30.4999H1.1999Z" fill="#D9D9D9" mask="url(#path-1-inside-1_68_1200)"/>
<defs>
<clipPath id="clip0_68_1200">
<rect width="16" height="16" fill="white" transform="matrix(1 0 0 -1 12.9995 21.7)"/>
</clipPath>
<clipPath id="clip1_68_1200">
<rect width="16" height="16" fill="white" transform="matrix(1 0 0 -1 48.5996 21.7)"/>
</clipPath>
<clipPath id="clip2_68_1200">
<rect width="16" height="16" fill="white" transform="matrix(1 0 0 -1 84.1997 21.7)"/>
</clipPath>
</defs>
</svg>
