<svg width="74" height="31" viewBox="0 0 74 31" fill="none" xmlns="http://www.w3.org/2000/svg">
<rect width="33.6" height="29.6" transform="translate(4.19971 0.899902)" fill="#F0F0F0"/>
<path d="M21.062 13.2781C21.3537 12.9239 21.5828 12.5281 21.7495 12.0906C21.9162 11.6531 21.9995 11.1895 21.9995 10.7C21.9995 10.1479 21.8953 9.62964 21.687 9.14526C21.4787 8.66089 21.1922 8.23641 20.8276 7.87183C20.4631 7.50724 20.0386 7.22078 19.5542 7.01245C19.0698 6.80412 18.5516 6.69995 17.9995 6.69995H12.9995V20.7H18.9995C19.5516 20.7 20.0698 20.5958 20.5542 20.3875C21.0386 20.1791 21.4631 19.8927 21.8276 19.5281C22.1922 19.1635 22.4787 18.739 22.687 18.2546C22.8953 17.7703 22.9995 17.252 22.9995 16.7C22.9995 15.9708 22.8224 15.3041 22.4683 14.7C22.1141 14.0958 21.6453 13.6218 21.062 13.2781ZM15.9995 8.69995H17.5776C18.0151 8.69995 18.3901 8.89526 18.7026 9.28589C19.0151 9.67651 19.1714 10.1479 19.1714 10.7C19.1714 11.252 19.0151 11.7234 18.7026 12.114C18.3901 12.5046 18.0203 12.7 17.5933 12.7H15.9995V8.69995ZM18.4839 18.7H15.9995V14.7H18.4839C18.9422 14.7 19.3328 14.8953 19.6558 15.2859C19.9787 15.6765 20.1401 16.1479 20.1401 16.7C20.1401 17.252 19.9787 17.7234 19.6558 18.114C19.3328 18.5046 18.9422 18.7 18.4839 18.7Z" fill="#333333"/>
<rect width="33.6" height="29.6" transform="translate(39.7998 0.899902)" fill="#F0F0F0"/>
<g clip-path="url(#clip0_68_1158)">
<path d="M60.5996 6.69995V7.69995H58.5996L53.5996 19.7H55.5996V20.7H48.5996V19.7H50.5996L55.5996 7.69995H53.5996V6.69995H60.5996Z" fill="#333333"/>
</g>
<path d="M1.1999 30.4999V0.899902H-0.400098V30.4999H1.1999Z" fill="#D9D9D9" mask="url(#path-1-inside-1_68_1158)"/>
<defs>
<clipPath id="clip0_68_1158">
<rect width="16" height="16" fill="white" transform="matrix(1 0 0 -1 48.5996 21.7)"/>
</clipPath>
</defs>
</svg>
