<svg width="154" height="30" viewBox="0 0 154 30" fill="none" xmlns="http://www.w3.org/2000/svg">
<rect width="38.2" height="29.6" transform="translate(4.40015 0.0996094)" fill="#F0F0F0"/>
<g clip-path="url(#clip0_84_887)">
<path d="M21.5002 7.89941H31.5002V9.89941H21.5002V7.89941ZM21.5002 13.8994H31.5002V15.8994H21.5002V13.8994ZM21.5002 19.8994H31.5002V21.8994H21.5002V19.8994ZM15.5002 8.89941C15.5002 8.34733 15.6956 7.87598 16.0862 7.48535C16.4768 7.09473 16.9482 6.89941 17.5002 6.89941C18.0523 6.89941 18.5237 7.09473 18.9143 7.48535C19.3049 7.87598 19.5002 8.34733 19.5002 8.89941C19.5002 9.4515 19.3049 9.92285 18.9143 10.3135C18.5237 10.7041 18.0523 10.8994 17.5002 10.8994C16.9482 10.8994 16.4768 10.7041 16.0862 10.3135C15.6956 9.92285 15.5002 9.4515 15.5002 8.89941ZM15.5002 14.8994C15.5002 14.3473 15.6956 13.876 16.0862 13.4854C16.4768 13.0947 16.9482 12.8994 17.5002 12.8994C18.0523 12.8994 18.5237 13.0947 18.9143 13.4854C19.3049 13.876 19.5002 14.3473 19.5002 14.8994C19.5002 15.4515 19.3049 15.9229 18.9143 16.3135C18.5237 16.7041 18.0523 16.8994 17.5002 16.8994C16.9482 16.8994 16.4768 16.7041 16.0862 16.3135C15.6956 15.9229 15.5002 15.4515 15.5002 14.8994ZM15.5002 20.8994C15.5002 20.3473 15.6956 19.876 16.0862 19.4854C16.4768 19.0947 16.9482 18.8994 17.5002 18.8994C18.0523 18.8994 18.5237 19.0947 18.9143 19.4854C19.3049 19.876 19.5002 20.3473 19.5002 20.8994C19.5002 21.4515 19.3049 21.9229 18.9143 22.3135C18.5237 22.7041 18.0523 22.8994 17.5002 22.8994C16.9482 22.8994 16.4768 22.7041 16.0862 22.3135C15.6956 21.9229 15.5002 21.4515 15.5002 20.8994Z" fill="#333333"/>
</g>
<rect width="38.2" height="29.6" transform="translate(44.6001 0.0996094)" fill="#F0F0F0"/>
<g clip-path="url(#clip1_84_887)">
<path d="M60.7002 19.8994H70.7002V21.8994H60.7002V19.8994ZM60.7002 13.8994H70.7002V15.8994H60.7002V13.8994ZM60.7002 7.89941H70.7002V9.89941H60.7002V7.89941ZM57.7002 6.89941V10.8994H56.7002V7.89941H55.7002V6.89941H57.7002ZM56.7002 15.1182V15.8994H58.7002V16.8994H55.7002V14.6182L57.7002 13.6807V12.8994H55.7002V11.8994H58.7002V14.1807L56.7002 15.1182ZM58.7002 17.8994V22.8994H55.7002V21.8994H57.7002V20.8994H55.7002V19.8994H57.7002V18.8994H55.7002V17.8994H58.7002Z" fill="#333333"/>
</g>
<rect width="33.6" height="29.6" transform="translate(84.8 0.0996094)" fill="#F0F0F0"/>
<g clip-path="url(#clip2_84_887)">
<path d="M93.6001 5.89941H109.6V7.89941H93.6001V5.89941ZM99.6001 8.89941H109.6V10.8994H99.6001V8.89941ZM99.6001 11.8994H109.6V13.8994H99.6001V11.8994ZM99.6001 14.8994H109.6V16.8994H99.6001V14.8994ZM93.6001 17.8994H109.6V19.8994H93.6001V17.8994ZM97.6001 9.89941V15.8994L93.6001 12.8994L97.6001 9.89941Z" fill="#333333"/>
</g>
<rect width="33.6" height="29.6" transform="translate(120.4 0.0996094)" fill="#F0F0F0"/>
<g clip-path="url(#clip3_84_887)">
<path d="M129.2 5.89941H145.2V7.89941H129.2V5.89941ZM135.2 8.89941H145.2V10.8994H135.2V8.89941ZM135.2 11.8994H145.2V13.8994H135.2V11.8994ZM135.2 14.8994H145.2V16.8994H135.2V14.8994ZM129.2 17.8994H145.2V19.8994H129.2V17.8994ZM129.2 15.8994V9.89941L133.2 12.8994L129.2 15.8994Z" fill="#333333"/>
</g>
<path d="M1.4001 29.6996V0.0996094H-0.199902V29.6996H1.4001Z" fill="#D9D9D9" mask="url(#path-1-inside-1_84_887)"/>
<defs>
<clipPath id="clip0_84_887">
<rect width="16" height="16" fill="white" transform="matrix(1 0 0 -1 15.5002 22.8994)"/>
</clipPath>
<clipPath id="clip1_84_887">
<rect width="16" height="16" fill="white" transform="matrix(1 0 0 -1 55.7002 22.8994)"/>
</clipPath>
<clipPath id="clip2_84_887">
<rect width="16" height="16" fill="white" transform="matrix(1 0 0 -1 93.6001 20.8994)"/>
</clipPath>
<clipPath id="clip3_84_887">
<rect width="16" height="16" fill="white" transform="matrix(1 0 0 -1 129.2 20.8994)"/>
</clipPath>
</defs>
</svg>
