<svg width="70" height="30" viewBox="0 0 70 30" fill="none" xmlns="http://www.w3.org/2000/svg">
<rect width="33.6" height="29.6" transform="translate(0.800049 0.0996094)" fill="#F0F0F0"/>
<g opacity="0.4" clip-path="url(#clip0_84_854)">
<path d="M20.5063 20.8994C20.9543 20.0973 21.2772 19.2223 21.4751 18.2744C21.673 17.3265 21.6261 16.4515 21.3345 15.6494C21.0428 14.8473 20.4517 14.1833 19.561 13.6572C18.6704 13.1312 17.3501 12.889 15.6001 12.9307V16.8994L9.6001 10.8994L15.6001 4.89941V8.77441C17.6938 8.72233 19.3319 9.10254 20.5142 9.91504C21.6965 10.7275 22.4699 11.7484 22.8345 12.9775C23.1991 14.2067 23.1756 15.5374 22.7642 16.9697C22.3527 18.402 21.6001 19.7119 20.5063 20.8994Z" fill="#333333"/>
</g>
<rect width="33.6" height="29.6" transform="translate(36.4001 0.0996094)" fill="#F0F0F0"/>
<g opacity="0.4" clip-path="url(#clip1_84_854)">
<path d="M52.6915 8.77441V4.89941L58.6915 10.8994L52.6915 16.8994V12.9307C50.9415 12.889 49.6212 13.1312 48.7306 13.6572C47.8399 14.1833 47.2488 14.8473 46.9571 15.6494C46.6654 16.4515 46.6186 17.3265 46.8165 18.2744C47.0144 19.2223 47.3373 20.0973 47.7852 20.8994C46.6915 19.7119 45.9389 18.402 45.5274 16.9697C45.116 15.5374 45.0925 14.2067 45.4571 12.9775C45.8217 11.7484 46.5951 10.7275 47.7774 9.91504C48.9597 9.10254 50.5977 8.72233 52.6915 8.77441Z" fill="#333333"/>
</g>
<defs>
<clipPath id="clip0_84_854">
<rect width="16" height="16" fill="white" transform="matrix(1 0 0 -1 9.6001 20.8994)"/>
</clipPath>
<clipPath id="clip1_84_854">
<rect width="16" height="16" fill="white" transform="matrix(1 0 0 -1 45.2002 20.8994)"/>
</clipPath>
</defs>
</svg>
