<svg width="74" height="30" viewBox="0 0 74 30" fill="none" xmlns="http://www.w3.org/2000/svg">
<rect width="33.6" height="29.6" transform="translate(4.2002 0.0996094)" fill="#F0F0F0"/>
<g clip-path="url(#clip0_84_865)">
<path d="M21.0627 12.4775C21.3544 12.1234 21.5836 11.7275 21.7502 11.29C21.9169 10.8525 22.0002 10.389 22.0002 9.89941C22.0002 9.34733 21.8961 8.8291 21.6877 8.34473C21.4794 7.86035 21.193 7.43587 20.8284 7.07129C20.4638 6.70671 20.0393 6.42025 19.5549 6.21191C19.0706 6.00358 18.5523 5.89941 18.0002 5.89941H13.0002V19.8994H19.0002C19.5523 19.8994 20.0706 19.7952 20.5549 19.5869C21.0393 19.3786 21.4638 19.0921 21.8284 18.7275C22.193 18.363 22.4794 17.9385 22.6877 17.4541C22.8961 16.9697 23.0002 16.4515 23.0002 15.8994C23.0002 15.1702 22.8232 14.5036 22.469 13.8994C22.1148 13.2952 21.6461 12.8213 21.0627 12.4775ZM16.0002 7.89941H17.5784C18.0159 7.89941 18.3909 8.09473 18.7034 8.48535C19.0159 8.87598 19.1721 9.34733 19.1721 9.89941C19.1721 10.4515 19.0159 10.9229 18.7034 11.3135C18.3909 11.7041 18.0211 11.8994 17.594 11.8994H16.0002V7.89941ZM18.4846 17.8994H16.0002V13.8994H18.4846C18.943 13.8994 19.3336 14.0947 19.6565 14.4854C19.9794 14.876 20.1409 15.3473 20.1409 15.8994C20.1409 16.4515 19.9794 16.9229 19.6565 17.3135C19.3336 17.7041 18.943 17.8994 18.4846 17.8994Z" fill="#333333"/>
</g>
<rect width="33.6" height="29.6" transform="translate(39.8003 0.0996094)" fill="#F0F0F0"/>
<g clip-path="url(#clip1_84_865)">
<path d="M60.6003 5.89941V6.89941H58.6003L53.6003 18.8994H55.6003V19.8994H48.6003V18.8994H50.6003L55.6003 6.89941H53.6003V5.89941H60.6003Z" fill="#333333"/>
</g>
<path d="M1.20015 29.6996V0.0996094H-0.399854V29.6996H1.20015Z" fill="#D9D9D9" mask="url(#path-1-inside-1_84_865)"/>
<defs>
<clipPath id="clip0_84_865">
<rect width="16" height="16" fill="white" transform="matrix(1 0 0 -1 13.0002 20.8994)"/>
</clipPath>
<clipPath id="clip1_84_865">
<rect width="16" height="16" fill="white" transform="matrix(1 0 0 -1 48.6003 20.8994)"/>
</clipPath>
</defs>
</svg>
