<svg width="38" height="31" viewBox="0 0 38 31" fill="none" xmlns="http://www.w3.org/2000/svg">
<rect width="33.6" height="29.6" transform="translate(3.7998 0.899902)" fill="#F0F0F0"/>
<g clip-path="url(#clip0_68_1196)">
<path d="M12.5996 7.69995V20.7H28.5996V7.69995H12.5996ZM27.5996 19.7H13.5996V8.69995H27.5996V19.7ZM23.5996 11.2C23.5996 10.7833 23.7454 10.4291 24.0371 10.1375C24.3288 9.84578 24.6829 9.69995 25.0996 9.69995C25.5163 9.69995 25.8704 9.84578 26.1621 10.1375C26.4538 10.4291 26.5996 10.7833 26.5996 11.2C26.5996 11.6166 26.4538 11.9708 26.1621 12.2625C25.8704 12.5541 25.5163 12.7 25.0996 12.7C24.6829 12.7 24.3288 12.5541 24.0371 12.2625C23.7454 11.9708 23.5996 11.6166 23.5996 11.2ZM26.5996 18.7H14.5996L17.5996 10.7L21.5996 15.7L23.5996 14.2L26.5996 18.7Z" fill="#333333"/>
</g>
<path d="M0.8 30.4999V0.899902H-0.8V30.4999H0.8Z" fill="#D9D9D9" mask="url(#path-1-inside-1_68_1196)"/>
<defs>
<clipPath id="clip0_68_1196">
<rect width="16" height="16" fill="white" transform="matrix(1 0 0 -1 12.5996 21.7)"/>
</clipPath>
</defs>
</svg>
