<svg width="18" height="18" viewBox="0 0 18 18" fill="none" xmlns="http://www.w3.org/2000/svg">
<g opacity="0.75">
<path d="M5.86667 2.39995H8.8C9.86578 2.39995 10.8533 2.66884 11.7627 3.20662C12.6427 3.72484 13.3418 4.42395 13.86 5.30395C14.3978 6.21328 14.6667 7.20084 14.6667 8.26662C14.6667 9.3324 14.3978 10.32 13.86 11.2293C13.3418 12.1093 12.6427 12.8084 11.7627 13.3266C10.8533 13.8644 9.86578 14.1333 8.8 14.1333V16.7C7.58756 16.2111 6.61467 15.7906 5.88133 15.4386C4.75689 14.8813 3.80356 14.3093 3.02133 13.7226C2.08267 12.9991 1.364 12.2217 0.865333 11.3906C0.288444 10.4324 0 9.39106 0 8.26662C0 7.20084 0.268889 6.21328 0.806667 5.30395C1.32489 4.42395 2.024 3.72484 2.904 3.20662C3.81333 2.66884 4.80089 2.39995 5.86667 2.39995ZM7.33333 12.6666H8.8C9.592 12.6666 10.3302 12.4662 11.0147 12.0653C11.6796 11.6742 12.2076 11.1462 12.5987 10.4813C12.9996 9.79684 13.2 9.05862 13.2 8.26662C13.2 7.47462 12.9996 6.7364 12.5987 6.05195C12.2076 5.38706 11.6796 4.85906 11.0147 4.46795C10.3302 4.06706 9.592 3.86662 8.8 3.86662H5.86667C5.07467 3.86662 4.33644 4.06706 3.652 4.46795C2.98711 4.85906 2.45911 5.38706 2.068 6.05195C1.66711 6.7364 1.46667 7.47462 1.46667 8.26662C1.46667 9.14662 1.672 9.93862 2.08267 10.6426C2.49333 11.3466 3.13378 12.0115 4.004 12.6373C4.83511 13.2435 5.94489 13.8595 7.33333 14.4853V12.6666Z" fill="#8590A5"/>
</g>
</svg>
