<svg width="33" height="33" viewBox="0 0 33 33" fill="none" xmlns="http://www.w3.org/2000/svg">
<path fill-rule="evenodd" clip-rule="evenodd" d="M26.8335 3.3667C27.3858 3.3667 27.8335 3.81441 27.8335 4.3667V9.70003C27.8335 10.2523 27.3858 10.7 26.8335 10.7C26.2812 10.7 25.8335 10.2523 25.8335 9.70003V4.3667C25.8335 3.81441 26.2812 3.3667 26.8335 3.3667Z" fill="black"/>
<path fill-rule="evenodd" clip-rule="evenodd" d="M23.1665 7.0332C23.1665 6.48092 23.6142 6.0332 24.1665 6.0332H29.4998C30.0521 6.0332 30.4998 6.48092 30.4998 7.0332C30.4998 7.58549 30.0521 8.0332 29.4998 8.0332H24.1665C23.6142 8.0332 23.1665 7.58549 23.1665 7.0332Z" fill="black"/>
<path fill-rule="evenodd" clip-rule="evenodd" d="M3.1665 9.69987C3.1665 7.67425 4.80755 6.0332 6.83317 6.0332H18.8332C19.3855 6.0332 19.8332 6.48092 19.8332 7.0332C19.8332 7.58549 19.3855 8.0332 18.8332 8.0332H6.83317C5.91212 8.0332 5.1665 8.77882 5.1665 9.69987V25.6999C5.1665 26.6209 5.91212 27.3665 6.83317 27.3665H24.1665C25.0876 27.3665 25.8332 26.6209 25.8332 25.6999V15.0332C25.8332 14.4809 26.2809 14.0332 26.8332 14.0332C27.3855 14.0332 27.8332 14.4809 27.8332 15.0332V25.6999C27.8332 27.7255 26.1921 29.3665 24.1665 29.3665H6.83317C4.80755 29.3665 3.1665 27.7255 3.1665 25.6999V9.69987Z" fill="black"/>
<path fill-rule="evenodd" clip-rule="evenodd" d="M17.9943 15.0081C17.8623 14.7694 17.5161 14.782 17.401 15.0268L15.8982 18.2205C15.7573 18.5199 15.4773 18.7303 15.1504 18.7823C14.8235 18.8342 14.4921 18.7211 14.2652 18.4801L12.8319 16.9574C12.683 16.7992 12.4238 16.8235 12.3071 17.0082C12.3071 17.0083 12.3072 17.0082 12.3071 17.0082L10.302 20.1893C10.162 20.4113 10.3205 20.7 10.584 20.7H20.5734C20.8271 20.7 20.9882 20.4273 20.8661 20.205L17.9943 15.0081ZM15.5912 14.1756C16.4015 12.4527 18.8231 12.3747 19.7444 14.0399L22.6166 19.2377C23.4752 20.7939 22.3488 22.7 20.5734 22.7H10.584C8.7463 22.7 7.63027 20.6767 8.61007 19.1228C8.61004 19.1228 8.61011 19.1227 8.61007 19.1228L10.6154 15.9414C11.4294 14.6516 13.2425 14.4756 14.2882 15.5866C14.2882 15.5866 14.2882 15.5866 14.2882 15.5866L14.7142 16.0392L15.5912 14.1756C15.5912 14.1755 15.5912 14.1757 15.5912 14.1756Z" fill="black"/>
</svg>
