<svg width="17" height="17" viewBox="0 0 17 17" fill="none" xmlns="http://www.w3.org/2000/svg">
<g clip-path="url(#clip0_95_2140)">
<path d="M8.39941 4.90015H9.39941V5.90015H8.39941V4.90015ZM6.39941 6.90015H7.39941V7.90015H6.39941V6.90015ZM6.39941 8.90015H7.39941V9.90015H6.39941V8.90015ZM6.39941 10.9001H7.39941V11.9001H6.39941V10.9001ZM4.39941 8.90015H5.39941V9.90015H4.39941V8.90015ZM4.39941 10.9001H5.39941V11.9001H4.39941V10.9001ZM2.39941 10.9001H3.39941V11.9001H2.39941V10.9001ZM8.39941 6.90015H9.39941V7.90015H8.39941V6.90015ZM8.39941 8.90015H9.39941V9.90015H8.39941V8.90015ZM8.39941 10.9001H9.39941V11.9001H8.39941V10.9001ZM8.39941 12.9001H9.39941V13.9001H8.39941V12.9001ZM6.39941 12.9001H7.39941V13.9001H6.39941V12.9001ZM4.39941 12.9001H5.39941V13.9001H4.39941V12.9001ZM2.39941 12.9001H3.39941V13.9001H2.39941V12.9001ZM0.399414 12.9001H1.39941V13.9001H0.399414V12.9001Z" fill="#333333"/>
</g>
<defs>
<clipPath id="clip0_95_2140">
<rect width="16" height="16" fill="white" transform="matrix(1 0 0 -1 0.399414 16.9001)"/>
</clipPath>
</defs>
</svg>
