<svg width="18" height="18" viewBox="0 0 18 18" fill="none" xmlns="http://www.w3.org/2000/svg">
<g opacity="0.75">
<path d="M5.86667 2.4002H8.8C9.86578 2.4002 10.8533 2.66908 11.7627 3.20686C12.6427 3.72508 13.3418 4.4242 13.86 5.3042C14.3978 6.21353 14.6667 7.20108 14.6667 8.26686C14.6667 9.33264 14.3978 10.3202 13.86 11.2295C13.3418 12.1095 12.6427 12.8086 11.7627 13.3269C10.8533 13.8646 9.86578 14.1335 8.8 14.1335V16.7002C7.58756 16.2113 6.61467 15.7909 5.88133 15.4389C4.75689 14.8815 3.80356 14.3095 3.02133 13.7229C2.08267 12.9993 1.364 12.222 0.865333 11.3909C0.288444 10.4326 0 9.39131 0 8.26686C0 7.20108 0.268889 6.21353 0.806667 5.3042C1.32489 4.4242 2.024 3.72508 2.904 3.20686C3.81333 2.66908 4.80089 2.4002 5.86667 2.4002ZM7.33333 12.6669H8.8C9.592 12.6669 10.3302 12.4664 11.0147 12.0655C11.6796 11.6744 12.2076 11.1464 12.5987 10.4815C12.9996 9.79708 13.2 9.05886 13.2 8.26686C13.2 7.47486 12.9996 6.73664 12.5987 6.0522C12.2076 5.38731 11.6796 4.85931 11.0147 4.4682C10.3302 4.06731 9.592 3.86686 8.8 3.86686H5.86667C5.07467 3.86686 4.33644 4.06731 3.652 4.4682C2.98711 4.85931 2.45911 5.38731 2.068 6.0522C1.66711 6.73664 1.46667 7.47486 1.46667 8.26686C1.46667 9.14686 1.672 9.93886 2.08267 10.6429C2.49333 11.3469 3.13378 12.0118 4.004 12.6375C4.83511 13.2438 5.94489 13.8598 7.33333 14.4855V12.6669Z" fill="#8590A5"/>
</g>
</svg>
