<svg width="18" height="19" viewBox="0 0 18 19" fill="none" xmlns="http://www.w3.org/2000/svg">
<g opacity="0.75">
<path d="M5.86667 2.8001H8.8C9.86578 2.8001 10.8533 3.06899 11.7627 3.60676C12.6427 4.12499 13.3418 4.8241 13.86 5.7041C14.3978 6.61343 14.6667 7.60099 14.6667 8.66676C14.6667 9.73254 14.3978 10.7201 13.86 11.6294C13.3418 12.5094 12.6427 13.2085 11.7627 13.7268C10.8533 14.2645 9.86578 14.5334 8.8 14.5334V17.1001C7.58756 16.6112 6.61467 16.1908 5.88133 15.8388C4.75689 15.2814 3.80356 14.7094 3.02133 14.1228C2.08267 13.3992 1.364 12.6219 0.865333 11.7908C0.288444 10.8325 0 9.79121 0 8.66676C0 7.60099 0.268889 6.61343 0.806667 5.7041C1.32489 4.8241 2.024 4.12499 2.904 3.60676C3.81333 3.06899 4.80089 2.8001 5.86667 2.8001ZM7.33333 13.0668H8.8C9.592 13.0668 10.3302 12.8663 11.0147 12.4654C11.6796 12.0743 12.2076 11.5463 12.5987 10.8814C12.9996 10.197 13.2 9.45876 13.2 8.66676C13.2 7.87476 12.9996 7.13654 12.5987 6.4521C12.2076 5.78721 11.6796 5.25921 11.0147 4.8681C10.3302 4.46721 9.592 4.26676 8.8 4.26676H5.86667C5.07467 4.26676 4.33644 4.46721 3.652 4.8681C2.98711 5.25921 2.45911 5.78721 2.068 6.4521C1.66711 7.13654 1.46667 7.87476 1.46667 8.66676C1.46667 9.54676 1.672 10.3388 2.08267 11.0428C2.49333 11.7468 3.13378 12.4117 4.004 13.0374C4.83511 13.6437 5.94489 14.2597 7.33333 14.8854V13.0668Z" fill="#8590A5"/>
</g>
</svg>
