<svg width="16" height="17" viewBox="0 0 16 17" fill="none" xmlns="http://www.w3.org/2000/svg">
<g clip-path="url(#clip0_44_321)">
<path d="M10.6933 11.4803L13.5467 14.3336L12.6 15.2803L9.74667 12.4269C9.21333 12.8447 8.62667 13.1669 7.98667 13.3936C7.34667 13.6203 6.68444 13.7336 6 13.7336C4.91556 13.7336 3.90667 13.4625 2.97333 12.9203C2.06667 12.3869 1.34667 11.6669 0.813333 10.7603C0.271111 9.82694 0 8.81805 0 7.73361C0 6.64916 0.271111 5.64027 0.813333 4.70694C1.34667 3.80027 2.06667 3.08027 2.97333 2.54694C3.90667 2.00472 4.91556 1.73361 6 1.73361C7.08444 1.73361 8.09333 2.00472 9.02667 2.54694C9.93333 3.08027 10.6533 3.80027 11.1867 4.70694C11.7289 5.64027 12 6.64916 12 7.73361C12 8.41805 11.8867 9.08027 11.66 9.72027C11.4333 10.3603 11.1111 10.9469 10.6933 11.4803ZM9.34667 10.9869C9.77333 10.5514 10.1 10.0514 10.3267 9.48694C10.5533 8.9225 10.6667 8.33805 10.6667 7.73361C10.6667 6.88916 10.4533 6.1025 10.0267 5.37361C9.61778 4.67138 9.06222 4.11583 8.36 3.70694C7.63111 3.28027 6.84444 3.06694 6 3.06694C5.15556 3.06694 4.36889 3.28027 3.64 3.70694C2.93778 4.11583 2.38222 4.67138 1.97333 5.37361C1.54667 6.1025 1.33333 6.88916 1.33333 7.73361C1.33333 8.57805 1.54667 9.36472 1.97333 10.0936C2.38222 10.7958 2.93778 11.3514 3.64 11.7603C4.36889 12.1869 5.15556 12.4003 6 12.4003C6.60444 12.4003 7.18889 12.2869 7.75333 12.0603C8.31778 11.8336 8.81778 11.5069 9.25333 11.0803L9.34667 10.9869Z" fill="#74788D"/>
</g>
<defs>
<clipPath id="clip0_44_321">
<rect width="16" height="16" fill="white" transform="matrix(1 0 0 -1 0 16.4004)"/>
</clipPath>
</defs>
</svg>
