<svg width="24" height="25" viewBox="0 0 24 25" fill="none" xmlns="http://www.w3.org/2000/svg">
<path fill-rule="evenodd" clip-rule="evenodd" d="M5 4.6499C4.30921 4.6499 3.75 5.20912 3.75 5.8999V19.8999C3.75 20.5907 4.30921 21.1499 5 21.1499H19C19.6908 21.1499 20.25 20.5907 20.25 19.8999V5.8999C20.25 5.20912 19.6908 4.6499 19 4.6499H5ZM2.25 5.8999C2.25 4.38069 3.48079 3.1499 5 3.1499H19C20.5192 3.1499 21.75 4.38069 21.75 5.8999V19.8999C21.75 21.4191 20.5192 22.6499 19 22.6499H5C3.48079 22.6499 2.25 21.4191 2.25 19.8999V5.8999Z" fill="#858585"/>
</svg>
