<svg width="17" height="17" viewBox="0 0 17 17" fill="none" xmlns="http://www.w3.org/2000/svg">
<g clip-path="url(#clip0_68_1235)">
<path d="M8.3999 4.7002H9.3999V5.7002H8.3999V4.7002ZM6.3999 6.7002H7.3999V7.7002H6.3999V6.7002ZM6.3999 8.7002H7.3999V9.7002H6.3999V8.7002ZM6.3999 10.7002H7.3999V11.7002H6.3999V10.7002ZM4.3999 8.7002H5.3999V9.7002H4.3999V8.7002ZM4.3999 10.7002H5.3999V11.7002H4.3999V10.7002ZM2.3999 10.7002H3.3999V11.7002H2.3999V10.7002ZM8.3999 6.7002H9.3999V7.7002H8.3999V6.7002ZM8.3999 8.7002H9.3999V9.7002H8.3999V8.7002ZM8.3999 10.7002H9.3999V11.7002H8.3999V10.7002ZM8.3999 12.7002H9.3999V13.7002H8.3999V12.7002ZM6.3999 12.7002H7.3999V13.7002H6.3999V12.7002ZM4.3999 12.7002H5.3999V13.7002H4.3999V12.7002ZM2.3999 12.7002H3.3999V13.7002H2.3999V12.7002ZM0.399902 12.7002H1.3999V13.7002H0.399902V12.7002Z" fill="#333333"/>
</g>
<defs>
<clipPath id="clip0_68_1235">
<rect width="16" height="16" fill="white" transform="matrix(1 0 0 -1 0.399902 16.7002)"/>
</clipPath>
</defs>
</svg>
