<svg width="16" height="17" viewBox="0 0 16 17" fill="none" xmlns="http://www.w3.org/2000/svg">
<g clip-path="url(#clip0_44_584)">
<path d="M10.6933 11.4798L13.5467 14.3331L12.6 15.2798L9.74667 12.4265C9.21333 12.8442 8.62667 13.1665 7.98667 13.3931C7.34667 13.6198 6.68444 13.7331 6 13.7331C4.91556 13.7331 3.90667 13.462 2.97333 12.9198C2.06667 12.3865 1.34667 11.6665 0.813333 10.7598C0.271111 9.82645 0 8.81756 0 7.73312C0 6.64867 0.271111 5.63978 0.813333 4.70645C1.34667 3.79978 2.06667 3.07978 2.97333 2.54645C3.90667 2.00423 4.91556 1.73312 6 1.73312C7.08444 1.73312 8.09333 2.00423 9.02667 2.54645C9.93333 3.07978 10.6533 3.79978 11.1867 4.70645C11.7289 5.63978 12 6.64867 12 7.73312C12 8.41756 11.8867 9.07978 11.66 9.71979C11.4333 10.3598 11.1111 10.9465 10.6933 11.4798ZM9.34667 10.9865C9.77333 10.5509 10.1 10.0509 10.3267 9.48645C10.5533 8.92201 10.6667 8.33756 10.6667 7.73312C10.6667 6.88867 10.4533 6.10201 10.0267 5.37312C9.61778 4.6709 9.06222 4.11534 8.36 3.70645C7.63111 3.27979 6.84444 3.06645 6 3.06645C5.15556 3.06645 4.36889 3.27979 3.64 3.70645C2.93778 4.11534 2.38222 4.6709 1.97333 5.37312C1.54667 6.10201 1.33333 6.88867 1.33333 7.73312C1.33333 8.57756 1.54667 9.36423 1.97333 10.0931C2.38222 10.7953 2.93778 11.3509 3.64 11.7598C4.36889 12.1865 5.15556 12.3998 6 12.3998C6.60444 12.3998 7.18889 12.2865 7.75333 12.0598C8.31778 11.8331 8.81778 11.5065 9.25333 11.0798L9.34667 10.9865Z" fill="#74788D"/>
</g>
<defs>
<clipPath id="clip0_44_584">
<rect width="16" height="16" fill="white" transform="matrix(1 0 0 -1 0 16.3999)"/>
</clipPath>
</defs>
</svg>
