<svg width="22" height="23" viewBox="0 0 22 23" fill="none" xmlns="http://www.w3.org/2000/svg">
<path d="M16.5 15.7832H18.3333V17.6165H0V15.7832H1.83333V9.36654C1.83333 8.03432 2.16944 6.79987 2.84167 5.6632C3.48944 4.5632 4.36333 3.68932 5.46333 3.04154C6.6 2.36931 7.83444 2.0332 9.16667 2.0332C10.4989 2.0332 11.7333 2.36931 12.87 3.04154C13.97 3.68932 14.8439 4.5632 15.4917 5.6632C16.1639 6.79987 16.5 8.03432 16.5 9.36654V15.7832ZM14.6667 15.7832V9.36654C14.6667 8.37654 14.4161 7.45376 13.915 6.5982C13.4261 5.76709 12.7661 5.10709 11.935 4.6182C11.0794 4.11709 10.1567 3.86654 9.16667 3.86654C8.17667 3.86654 7.25389 4.11709 6.39833 4.6182C5.56722 5.10709 4.90722 5.76709 4.41833 6.5982C3.91722 7.45376 3.66667 8.37654 3.66667 9.36654V15.7832H14.6667ZM6.41667 19.4499H11.9167V21.2832H6.41667V19.4499Z" fill="#636E75"/>
</svg>
