<svg width="22" height="23" viewBox="0 0 22 23" fill="none" xmlns="http://www.w3.org/2000/svg">
<path d="M16.5 15.7842H18.3333V17.6175H0V15.7842H1.83333V9.36751C1.83333 8.03529 2.16944 6.80085 2.84167 5.66418C3.48944 4.56418 4.36333 3.69029 5.46333 3.04251C6.6 2.37029 7.83444 2.03418 9.16667 2.03418C10.4989 2.03418 11.7333 2.37029 12.87 3.04251C13.97 3.69029 14.8439 4.56418 15.4917 5.66418C16.1639 6.80085 16.5 8.03529 16.5 9.36751V15.7842ZM14.6667 15.7842V9.36751C14.6667 8.37751 14.4161 7.45474 13.915 6.59918C13.4261 5.76807 12.7661 5.10807 11.935 4.61918C11.0794 4.11807 10.1567 3.86751 9.16667 3.86751C8.17667 3.86751 7.25389 4.11807 6.39833 4.61918C5.56722 5.10807 4.90722 5.76807 4.41833 6.59918C3.91722 7.45474 3.66667 8.37751 3.66667 9.36751V15.7842H14.6667ZM6.41667 19.4508H11.9167V21.2842H6.41667V19.4508Z" fill="#636E75"/>
</svg>
