<svg width="18" height="19" viewBox="0 0 18 19" fill="none" xmlns="http://www.w3.org/2000/svg">
<g opacity="0.75">
<path d="M5.86667 2.7H8.8C9.86578 2.7 10.8533 2.96889 11.7627 3.50667C12.6427 4.02489 13.3418 4.724 13.86 5.604C14.3978 6.51333 14.6667 7.50089 14.6667 8.56667C14.6667 9.63244 14.3978 10.62 13.86 11.5293C13.3418 12.4093 12.6427 13.1084 11.7627 13.6267C10.8533 14.1644 9.86578 14.4333 8.8 14.4333V17C7.58756 16.5111 6.61467 16.0907 5.88133 15.7387C4.75689 15.1813 3.80356 14.6093 3.02133 14.0227C2.08267 13.2991 1.364 12.5218 0.865333 11.6907C0.288444 10.7324 0 9.69111 0 8.56667C0 7.50089 0.268889 6.51333 0.806667 5.604C1.32489 4.724 2.024 4.02489 2.904 3.50667C3.81333 2.96889 4.80089 2.7 5.86667 2.7ZM7.33333 12.9667H8.8C9.592 12.9667 10.3302 12.7662 11.0147 12.3653C11.6796 11.9742 12.2076 11.4462 12.5987 10.7813C12.9996 10.0969 13.2 9.35867 13.2 8.56667C13.2 7.77467 12.9996 7.03644 12.5987 6.352C12.2076 5.68711 11.6796 5.15911 11.0147 4.768C10.3302 4.36711 9.592 4.16667 8.8 4.16667H5.86667C5.07467 4.16667 4.33644 4.36711 3.652 4.768C2.98711 5.15911 2.45911 5.68711 2.068 6.352C1.66711 7.03644 1.46667 7.77467 1.46667 8.56667C1.46667 9.44667 1.672 10.2387 2.08267 10.9427C2.49333 11.6467 3.13378 12.3116 4.004 12.9373C4.83511 13.5436 5.94489 14.1596 7.33333 14.7853V12.9667Z" fill="#8590A5"/>
</g>
</svg>
