<svg width="17" height="17" viewBox="0 0 17 17" fill="none" xmlns="http://www.w3.org/2000/svg">
<g clip-path="url(#clip0_84_938)">
<path d="M8.3999 4.89941H9.3999V5.89941H8.3999V4.89941ZM6.3999 6.89941H7.3999V7.89941H6.3999V6.89941ZM6.3999 8.89941H7.3999V9.89941H6.3999V8.89941ZM6.3999 10.8994H7.3999V11.8994H6.3999V10.8994ZM4.3999 8.89941H5.3999V9.89941H4.3999V8.89941ZM4.3999 10.8994H5.3999V11.8994H4.3999V10.8994ZM2.3999 10.8994H3.3999V11.8994H2.3999V10.8994ZM8.3999 6.89941H9.3999V7.89941H8.3999V6.89941ZM8.3999 8.89941H9.3999V9.89941H8.3999V8.89941ZM8.3999 10.8994H9.3999V11.8994H8.3999V10.8994ZM8.3999 12.8994H9.3999V13.8994H8.3999V12.8994ZM6.3999 12.8994H7.3999V13.8994H6.3999V12.8994ZM4.3999 12.8994H5.3999V13.8994H4.3999V12.8994ZM2.3999 12.8994H3.3999V13.8994H2.3999V12.8994ZM0.399902 12.8994H1.3999V13.8994H0.399902V12.8994Z" fill="#333333"/>
</g>
<defs>
<clipPath id="clip0_84_938">
<rect width="16" height="16" fill="white" transform="matrix(1 0 0 -1 0.399902 16.8994)"/>
</clipPath>
</defs>
</svg>
