<svg width="22" height="23" viewBox="0 0 22 23" fill="none" xmlns="http://www.w3.org/2000/svg">
<g clip-path="url(#clip0_44_79)">
<path d="M16.5001 15.7832H18.3335V17.6165H0.00012207V15.7832H1.83346V9.36654C1.83346 8.03432 2.16957 6.79987 2.84179 5.6632C3.48957 4.5632 4.36346 3.68932 5.46346 3.04154C6.60012 2.36931 7.83457 2.0332 9.16679 2.0332C10.499 2.0332 11.7335 2.36931 12.8701 3.04154C13.9701 3.68932 14.844 4.5632 15.4918 5.6632C16.164 6.79987 16.5001 8.03432 16.5001 9.36654V15.7832ZM14.6668 15.7832V9.36654C14.6668 8.37654 14.4162 7.45376 13.9151 6.5982C13.4262 5.76709 12.7662 5.10709 11.9351 4.6182C11.0796 4.11709 10.1568 3.86654 9.16679 3.86654C8.17679 3.86654 7.25401 4.11709 6.39846 4.6182C5.56734 5.10709 4.90734 5.76709 4.41846 6.5982C3.91734 7.45376 3.66679 8.37654 3.66679 9.36654V15.7832H14.6668ZM6.41679 19.4499H11.9168V21.2832H6.41679V19.4499Z" fill="#636E75"/>
</g>
<defs>
<clipPath id="clip0_44_79">
<rect width="22" height="22.4" fill="white" transform="matrix(1 0 0 -1 0.00012207 22.3999)"/>
</clipPath>
</defs>
</svg>
