<svg width="18" height="18" viewBox="0 0 18 18" fill="none" xmlns="http://www.w3.org/2000/svg">
<g clip-path="url(#clip0_59_568)">
<path d="M8.79995 4.67896L8.6278 4.7312L1.7528 7.0346L0.189697 7.54996L1.09995 7.84145V12.654C0.771597 12.8448 0.549947 13.193 0.549947 13.6C0.549947 13.8917 0.66584 14.1715 0.87213 14.3778C1.07842 14.5841 1.35821 14.7 1.64995 14.7C1.94169 14.7 2.22147 14.5841 2.42776 14.3778C2.63405 14.1715 2.74995 13.8917 2.74995 13.6C2.74995 13.193 2.5283 12.8448 2.19995 12.654V8.22096L3.29995 8.58121V11.4C3.29995 11.851 3.57495 12.225 3.90165 12.4835C4.22835 12.7403 4.63425 12.9218 5.12155 13.0846C6.09725 13.4091 7.38315 13.6 8.79995 13.6C10.2167 13.6 11.5026 13.4097 12.4783 13.0841C12.9656 12.9218 13.3715 12.7403 13.6982 12.4829C14.0249 12.225 14.2999 11.851 14.2999 11.4V8.58121L15.8471 8.06531L17.4102 7.54996L15.8465 7.03406L8.97155 4.7312L8.79995 4.67896ZM8.79995 5.83121L13.9562 7.54996L8.79995 9.2687L3.6437 7.54996L8.79995 5.83121ZM4.39995 8.9596L8.62835 10.3687L8.79995 10.4204L8.9721 10.3682L13.1999 8.95906V11.4C13.1999 11.4055 13.2021 11.4693 13.0278 11.6062C12.854 11.7437 12.5421 11.917 12.134 12.0534C11.3189 12.3245 10.1172 12.5 8.79995 12.5C7.4827 12.5 6.28095 12.3251 5.4653 12.0528C5.0583 11.917 4.7459 11.7432 4.5721 11.6062C4.3972 11.4687 4.39995 11.4055 4.39995 11.4V8.9596Z" fill="#8590A5"/>
</g>
<defs>
<clipPath id="clip0_59_568">
<rect width="17.6" height="17.6" fill="white" transform="translate(0 0.399902)"/>
</clipPath>
</defs>
</svg>
