<svg width="18" height="19" viewBox="0 0 18 19" fill="none" xmlns="http://www.w3.org/2000/svg">
<g clip-path="url(#clip0_95_1985)">
<path d="M8.7997 5.0791L8.62755 5.13135L1.75255 7.43475L0.189453 7.9501L1.0997 8.2416V13.0541C0.771353 13.245 0.549703 13.5931 0.549703 14.0001C0.549703 14.2918 0.665596 14.5716 0.871886 14.7779C1.07818 14.9842 1.35796 15.1001 1.6497 15.1001C1.94144 15.1001 2.22123 14.9842 2.42752 14.7779C2.63381 14.5716 2.7497 14.2918 2.7497 14.0001C2.7497 13.5931 2.52805 13.245 2.1997 13.0541V8.6211L3.2997 8.98135V11.8001C3.2997 12.2511 3.5747 12.6251 3.9014 12.8836C4.2281 13.1405 4.634 13.322 5.1213 13.4848C6.097 13.8093 7.3829 14.0001 8.7997 14.0001C10.2165 14.0001 11.5024 13.8098 12.4781 13.4842C12.9654 13.322 13.3713 13.1405 13.698 12.8831C14.0247 12.6251 14.2997 12.2511 14.2997 11.8001V8.98135L15.8469 8.46545L17.41 7.9501L15.8463 7.4342L8.9713 5.13135L8.7997 5.0791ZM8.7997 6.23135L13.956 7.9501L8.7997 9.66885L3.64345 7.9501L8.7997 6.23135ZM4.3997 9.35975L8.6281 10.7689L8.7997 10.8206L8.97185 10.7683L13.1997 9.3592V11.8001C13.1997 11.8056 13.2019 11.8694 13.0276 12.0064C12.8538 12.1439 12.5419 12.3171 12.1338 12.4535C11.3187 12.7247 10.117 12.9001 8.7997 12.9001C7.48245 12.9001 6.2807 12.7252 5.46505 12.453C5.05805 12.3171 4.74565 12.1433 4.57185 12.0064C4.39695 11.8689 4.3997 11.8056 4.3997 11.8001V9.35975Z" fill="#8590A5"/>
</g>
<defs>
<clipPath id="clip0_95_1985">
<rect width="17.6" height="17.6" fill="white" transform="translate(0 0.800049)"/>
</clipPath>
</defs>
</svg>
