<svg width="18" height="19" viewBox="0 0 18 19" fill="none" xmlns="http://www.w3.org/2000/svg">
<g clip-path="url(#clip0_95_1145)">
<path d="M8.7997 4.979L8.62755 5.03125L1.75255 7.33465L0.189453 7.85L1.0997 8.1415V12.954C0.771353 13.1449 0.549703 13.493 0.549703 13.9C0.549703 14.1917 0.665596 14.4715 0.871886 14.6778C1.07818 14.8841 1.35796 15 1.6497 15C1.94144 15 2.22123 14.8841 2.42752 14.6778C2.63381 14.4715 2.7497 14.1917 2.7497 13.9C2.7497 13.493 2.52805 13.1449 2.1997 12.954V8.521L3.2997 8.88125V11.7C3.2997 12.151 3.5747 12.525 3.9014 12.7835C4.2281 13.0404 4.634 13.2219 5.1213 13.3847C6.097 13.7092 7.3829 13.9 8.7997 13.9C10.2165 13.9 11.5024 13.7097 12.4781 13.3841C12.9654 13.2219 13.3713 13.0404 13.698 12.783C14.0247 12.525 14.2997 12.151 14.2997 11.7V8.88125L15.8469 8.36535L17.41 7.85L15.8463 7.3341L8.9713 5.03125L8.7997 4.979ZM8.7997 6.13125L13.956 7.85L8.7997 9.56875L3.64345 7.85L8.7997 6.13125ZM4.3997 9.25965L8.6281 10.6688L8.7997 10.7205L8.97185 10.6682L13.1997 9.2591V11.7C13.1997 11.7055 13.2019 11.7693 13.0276 11.9063C12.8538 12.0438 12.5419 12.217 12.1338 12.3534C11.3187 12.6246 10.117 12.8 8.7997 12.8C7.48245 12.8 6.2807 12.6251 5.46505 12.3529C5.05805 12.217 4.74565 12.0432 4.57185 11.9063C4.39695 11.7688 4.3997 11.7055 4.3997 11.7V9.25965Z" fill="#8590A5"/>
</g>
<defs>
<clipPath id="clip0_95_1145">
<rect width="17.6" height="17.6" fill="white" transform="translate(0 0.700195)"/>
</clipPath>
</defs>
</svg>
