<svg width="18" height="18" viewBox="0 0 18 18" fill="none" xmlns="http://www.w3.org/2000/svg">
<g clip-path="url(#clip0_84_750)">
<path d="M8.79995 4.6792L8.6278 4.73145L1.7528 7.03485L0.189697 7.5502L1.09995 7.8417V12.6542C0.771597 12.845 0.549947 13.1932 0.549947 13.6002C0.549947 13.8919 0.66584 14.1717 0.87213 14.378C1.07842 14.5843 1.35821 14.7002 1.64995 14.7002C1.94169 14.7002 2.22147 14.5843 2.42776 14.378C2.63405 14.1717 2.74995 13.8919 2.74995 13.6002C2.74995 13.1932 2.5283 12.845 2.19995 12.6542V8.2212L3.29995 8.58145V11.4002C3.29995 11.8512 3.57495 12.2252 3.90165 12.4837C4.22835 12.7405 4.63425 12.922 5.12155 13.0848C6.09725 13.4093 7.38315 13.6002 8.79995 13.6002C10.2167 13.6002 11.5026 13.4099 12.4783 13.0843C12.9656 12.922 13.3715 12.7405 13.6982 12.4831C14.0249 12.2252 14.2999 11.8512 14.2999 11.4002V8.58145L15.8471 8.06555L17.4102 7.5502L15.8465 7.0343L8.97155 4.73145L8.79995 4.6792ZM8.79995 5.83145L13.9562 7.5502L8.79995 9.26895L3.6437 7.5502L8.79995 5.83145ZM4.39995 8.95985L8.62835 10.3689L8.79995 10.4206L8.9721 10.3684L13.1999 8.9593V11.4002C13.1999 11.4057 13.2021 11.4695 13.0278 11.6064C12.854 11.7439 12.5421 11.9172 12.134 12.0536C11.3189 12.3247 10.1172 12.5002 8.79995 12.5002C7.4827 12.5002 6.28095 12.3253 5.4653 12.053C5.0583 11.9172 4.7459 11.7434 4.5721 11.6064C4.3972 11.4689 4.39995 11.4057 4.39995 11.4002V8.95985Z" fill="#8590A5"/>
</g>
<defs>
<clipPath id="clip0_84_750">
<rect width="17.6" height="17.6" fill="white" transform="translate(0 0.400391)"/>
</clipPath>
</defs>
</svg>
