<svg width="18" height="19" viewBox="0 0 18 19" fill="none" xmlns="http://www.w3.org/2000/svg">
<g clip-path="url(#clip0_95_986)">
<path d="M8.79995 4.97949L8.6278 5.03174L1.7528 7.33514L0.189697 7.85049L1.09995 8.14199V12.9545C0.771597 13.1453 0.549947 13.4935 0.549947 13.9005C0.549947 14.1922 0.66584 14.472 0.87213 14.6783C1.07842 14.8846 1.35821 15.0005 1.64995 15.0005C1.94169 15.0005 2.22147 14.8846 2.42776 14.6783C2.63405 14.472 2.74995 14.1922 2.74995 13.9005C2.74995 13.4935 2.5283 13.1453 2.19995 12.9545V8.52149L3.29995 8.88174V11.7005C3.29995 12.1515 3.57495 12.5255 3.90165 12.784C4.22835 13.0408 4.63425 13.2223 5.12155 13.3851C6.09725 13.7096 7.38315 13.9005 8.79995 13.9005C10.2167 13.9005 11.5026 13.7102 12.4783 13.3846C12.9656 13.2223 13.3715 13.0408 13.6982 12.7834C14.0249 12.5255 14.2999 12.1515 14.2999 11.7005V8.88174L15.8471 8.36584L17.4102 7.85049L15.8465 7.33459L8.97155 5.03174L8.79995 4.97949ZM8.79995 6.13174L13.9562 7.85049L8.79995 9.56924L3.6437 7.85049L8.79995 6.13174ZM4.39995 9.26014L8.62835 10.6692L8.79995 10.7209L8.9721 10.6687L13.1999 9.25959V11.7005C13.1999 11.706 13.2021 11.7698 13.0278 11.9067C12.854 12.0442 12.5421 12.2175 12.134 12.3539C11.3189 12.625 10.1172 12.8005 8.79995 12.8005C7.4827 12.8005 6.28095 12.6256 5.4653 12.3533C5.0583 12.2175 4.7459 12.0437 4.5721 11.9067C4.3972 11.7692 4.39995 11.706 4.39995 11.7005V9.26014Z" fill="#8590A5"/>
</g>
<defs>
<clipPath id="clip0_95_986">
<rect width="17.6" height="17.6" fill="white" transform="translate(0 0.700195)"/>
</clipPath>
</defs>
</svg>
