<svg width="18" height="18" viewBox="0 0 18 18" fill="none" xmlns="http://www.w3.org/2000/svg">
<g clip-path="url(#clip0_59_457)">
<path d="M8.80019 4.67896L8.62804 4.7312L1.75304 7.0346L0.189941 7.54996L1.10019 7.84145V12.654C0.771841 12.8448 0.550191 13.193 0.550191 13.6C0.550191 13.8917 0.666084 14.1715 0.872374 14.3778C1.07866 14.5841 1.35845 14.7 1.65019 14.7C1.94193 14.7 2.22172 14.5841 2.42801 14.3778C2.6343 14.1715 2.75019 13.8917 2.75019 13.6C2.75019 13.193 2.52854 12.8448 2.20019 12.654V8.22096L3.30019 8.58121V11.4C3.30019 11.851 3.57519 12.225 3.90189 12.4835C4.22859 12.7403 4.63449 12.9218 5.12179 13.0846C6.09749 13.4091 7.38339 13.6 8.80019 13.6C10.217 13.6 11.5029 13.4097 12.4786 13.0841C12.9659 12.9218 13.3718 12.7403 13.6985 12.4829C14.0252 12.225 14.3002 11.851 14.3002 11.4V8.58121L15.8473 8.06531L17.4104 7.54996L15.8468 7.03406L8.97179 4.7312L8.80019 4.67896ZM8.80019 5.83121L13.9564 7.54996L8.80019 9.2687L3.64394 7.54996L8.80019 5.83121ZM4.40019 8.9596L8.62859 10.3687L8.80019 10.4204L8.97234 10.3682L13.2002 8.95906V11.4C13.2002 11.4055 13.2024 11.4693 13.028 11.6062C12.8542 11.7437 12.5424 11.917 12.1343 12.0534C11.3192 12.3245 10.1174 12.5 8.80019 12.5C7.48294 12.5 6.28119 12.3251 5.46554 12.0528C5.05854 11.917 4.74614 11.7432 4.57234 11.6062C4.39744 11.4687 4.40019 11.4055 4.40019 11.4V8.9596Z" fill="#8590A5"/>
</g>
<defs>
<clipPath id="clip0_59_457">
<rect width="17.6" height="17.6" fill="white" transform="translate(0 0.399902)"/>
</clipPath>
</defs>
</svg>
